/* XPM */
static char *ae767744086045b1c34ad800ad232193egbJGShiyzUSNIgE[] = {
/* columns rows colors chars-per-pixel */
"32 32 167 2 ",
"   c #020401",
".  c #060805",
"X  c #090B08",
"o  c #0A0C09",
"O  c #0B0D0A",
"+  c #0C0E0B",
"@  c #0D0F0C",
"#  c #0E100D",
"$  c #0F110E",
"%  c #10120F",
"&  c #111310",
"*  c #121411",
"=  c #141613",
"-  c #151714",
";  c #161815",
":  c #171916",
">  c #181A17",
",  c #191B18",
"<  c #1A1C19",
"1  c #1B1D1A",
"2  c #1C1E1B",
"3  c #1D1F1C",
"4  c #1E201D",
"5  c #1F211E",
"6  c #20221F",
"7  c #212320",
"8  c #222421",
"9  c #232522",
"0  c #242623",
"q  c #252724",
"w  c #262825",
"e  c #272926",
"r  c #282A27",
"t  c #292B28",
"y  c #2A2C29",
"u  c #2B2D2A",
"i  c #2C2E2B",
"p  c #2D2F2C",
"a  c #2E302D",
"s  c #2F312E",
"d  c #30322F",
"f  c #313330",
"g  c #323431",
"h  c #333532",
"j  c #343633",
"k  c #353734",
"l  c #363835",
"z  c #373936",
"x  c #383A37",
"c  c #393B38",
"v  c #3A3C39",
"b  c #3B3D3A",
"n  c #3C3E3B",
"m  c #3D3F3C",
"M  c #3E403D",
"N  c #3F413E",
"B  c #40423F",
"V  c #414340",
"C  c #424441",
"Z  c #434542",
"A  c #444643",
"S  c #454744",
"D  c #464845",
"F  c #474946",
"G  c #484A47",
"H  c #494B48",
"J  c #4A4C49",
"K  c #4B4D4A",
"L  c #4C4E4B",
"P  c #4D4F4C",
"I  c #4E504D",
"U  c #4F514E",
"Y  c #50524F",
"T  c #515350",
"R  c #525451",
"E  c #535552",
"W  c #545653",
"Q  c #555754",
"!  c #565855",
"~  c #575956",
"^  c #585A57",
"/  c #595B58",
"(  c #5A5C59",
")  c #5B5D5A",
"_  c #5C5E5B",
"`  c #5D5F5C",
"'  c #5E605D",
"]  c #5F615E",
"[  c #60625F",
"{  c #616360",
"}  c #626461",
"|  c #636562",
" . c #646663",
".. c #656764",
"X. c #666865",
"o. c #676966",
"O. c #686A67",
"+. c #696B68",
"@. c #6A6C69",
"#. c #6B6D6A",
"$. c #6C6E6B",
"%. c #6D6F6C",
"&. c #6E706D",
"*. c #6F716E",
"=. c #70726F",
"-. c #717370",
";. c #727471",
":. c #737572",
">. c #747673",
",. c #757774",
"<. c #767875",
"1. c #777976",
"2. c #787A77",
"3. c #797B78",
"4. c #7A7C79",
"5. c #7B7D7A",
"6. c #7C7E7B",
"7. c #7D7F7C",
"8. c #7E807D",
"9. c #7F817E",
"0. c #80827F",
"q. c #818380",
"w. c #828481",
"e. c #838582",
"r. c #848683",
"t. c #858784",
"y. c #868885",
"u. c #878986",
"i. c #888A87",
"p. c #898B88",
"a. c #8A8C89",
"s. c #8B8D8A",
"d. c #8C8E8B",
"f. c #8D8F8C",
"g. c #8E908D",
"h. c #8F918E",
"j. c #90928F",
"k. c #919390",
"l. c #929491",
"z. c #939592",
"x. c #949693",
"c. c #959794",
"v. c #969895",
"b. c #979996",
"n. c #989A97",
"m. c #999B98",
"M. c #9A9C99",
"N. c #9B9D9A",
"B. c #9C9E9B",
"V. c #9D9F9C",
"C. c #9EA09D",
"Z. c #9FA19E",
"A. c #A0A29F",
"S. c #A1A3A0",
"D. c #A2A4A1",
"F. c #A3A5A2",
"G. c #A4A6A3",
"H. c #A5A7A4",
"J. c #A6A8A5",
"K. c #A7A9A6",
"L. c #A8AAA7",
"P. c #A9ABA8",
"I. c #AAACA9",
"U. c #ADAFAC",
"Y. c #AFB1AE",
"T. c #B5B7B4",
"R. c #B8BAB7",
/* pixels */
"6 i w , + m 8.4.c.0.0.<.` p P x.4.~ O.;.o.M u t i 8 z j x < q w ",
"*.;.` #.J I G.V.j.K.Z.F.d.n ` A.h.N.V.B.>.w j w.6.{ [ R ( P ..=.",
"K.Z.x.V.] Z 8.~ ] <.o.*. .3 G Y.8.4.} ,.] - g N.T.F.U.Y.R.G.H.Z.",
"+.(  .I 6 F a.( #.o.#.=...t s Z.w.#.{ 3._ 5 g d.q.;.6.w.a.3.<.*.",
"q.4.2.M % I H.*.*.+.>.2.o.f ; ~ L q < 5 0 ; r w.i.<.<.<.2.=.<.2.",
"Y ..` M ; g n. .} ;.#.;.} j 6 v i B  .^ [ k q w.<.*.;.>.#.] ( / ",
"- 8 5 5 ; 0 f.4.+.0.,.0.-.z > G G.N.F.a.z.Z = V u q r u 6 ; - - ",
"t < 8 7 t j 3.8.6.6.2.4.*.f . <.Z.;.3.-.,.w < d w 8 w f p p d j ",
"y.z.4.h.y.S O.h.*.;.<.+.;.s O } z.>.,.2.<.q s y.s t Z.h.c.8.7.y.",
",. .o.w.~ < W z.} R  .<.;.s = ] S.-.( F S 3 >.L.< ] B.4.a.0.;.w.",
"O.;.} { F , 2 v w 2 w z p 2 * u m 2 O - > u b.4.# ;.w.#.;.*.+.7.",
";.] ` %.i ; ^ O.H x < - f ;.t.a.>.4.O.} 6 P P.-.5 +.0.7.-.;.;.O.",
"2.$...>.d f A.z.Z.<.k u } V.h.c.A.U.B.-.< / K.$., M #.*.$.2.4.{ ",
"J R 8 < = s N.4.<.( 8 # [ x...+.2.,.7.J 5 ` G.} 2 < s u v Z L ( ",
"= 7 g W R A A.y.>.*.Z   W Z.3.w.a.0.h.~ ; A V.O.& 0 d > ; 3 6 5 ",
"Z t.x.y.c._ <.=.*.,.[ @ Y b.>.0.w.*.-.( & F F.$.# ;.L.a.*.h.7.w ",
"+.h.o.....i y.3.4.3.$.5 x r.3.%.4.$.3.I ; ` Z.#.< 6.w.k.A.f.{ r ",
";.i.%.*.R 8 y.j.,.y.] < z c.>.2.*.y.d.J , R <.M % 8.w.%.+.;.{ u ",
"/ %.*.0.Q 5 0.m.8.#.( p 8 y.4.} ] ,.%.B 0 p i = d $.} ( (  .Q r ",
"Y $.*.w.} < 6.b.+.} } u q R s 5 s q - = 5 7 w z p g > - * 5 w 7 ",
"I -.( } } - 3.b.` } o.u 6  ./ R H F H Q o.2.q.w.7.8.>.0.h.z.` 5 ",
"Q 2.[  .o., ] 4.+.*.$.x = m.I.Z.G.F.L.F.k.a.r.;.q.j.n.n.z.j.~ r ",
"#.7.;.<.( 5 Z %.o.w.} w 5 h.;.;.;.o.o.+.} o.,.4.#.} { #.<.3.V 0 ",
"( Q R ( t 2 S z.*.] L > < 8.,.o.-.*.#.+.$.;.,.*.,.>.,.;.3.<.x 5 ",
"g 7 % 7 # > B I g V t , ; o.2. .$.3.O.>.=.*.=.$.4.#.w.8.3.` x 5 ",
"v ( W T x t 0 , > w s * 5 k Z q s f J W  ...O.-._ o.*.$...W g r ",
"( N.m.z.a.6.$.o.+.+.o.n Z z Z c t @ u & p v v M g x w z j w 2 k ",
"( 4.] ~ ^ ] *.y.w.p.r.y.a.a.p.b.T s J v B u ; > t t % - # & s L ",
" .;.} $.o.} +.$.o.%. .3.;.;.{ -.Z u S y.V.%.z 0 F ( ..^ L R } n ",
"Q ~ B A v F R G Y I J I P G G R s k s *.h.t.] m a.t.b.x.c.k.4.t ",
"r g 6 q 3 7 q ; < 5 u 5 - X * = 7 H r 7 2 i d s -.J Z S J I n < ",
"i n u z k s s s u z Z k < 2 s k z J q 3 w s s M 5 2 8 7 * 5 > r "
};
