/* XPM */
static char *_e0af4654eb841e5804d234e91f8222cP0f3cVPxc25sj1EM[] = {
/* columns rows colors chars-per-pixel */
"32 32 135 2 ",
"   c #040E0D",
".  c #040C15",
"X  c #02061C",
"o  c #050B1C",
"O  c #090F1C",
"+  c #020624",
"@  c #090725",
"#  c #050A24",
"$  c #0B0B24",
"%  c #03052C",
"&  c #0A072E",
"*  c #06092C",
"=  c #0A0B2D",
"-  c #110E23",
";  c #040534",
":  c #0B0635",
">  c #060933",
",  c #0A0B34",
"<  c #04053C",
"1  c #09043D",
"2  c #05093B",
"3  c #0A0A3B",
"4  c #111030",
"5  c #050544",
"6  c #090644",
"7  c #060942",
"8  c #0B0A43",
"9  c #05044B",
"0  c #09064B",
"q  c #040849",
"w  c #0B0A4B",
"e  c #0E1144",
"r  c #050354",
"t  c #090654",
"y  c #030953",
"u  c #0B0B54",
"i  c #05035B",
"p  c #09055A",
"a  c #060A5C",
"s  c #0C0B5C",
"d  c #110E5D",
"f  c #0F1050",
"g  c #0D105F",
"h  c #101056",
"j  c #10105A",
"k  c #040463",
"l  c #0A0563",
"z  c #070B64",
"x  c #0B0B64",
"c  c #05046B",
"v  c #09066B",
"b  c #0B0A6B",
"n  c #110D62",
"m  c #100C6A",
"M  c #121064",
"N  c #060572",
"B  c #090674",
"V  c #070976",
"C  c #0C0B74",
"Z  c #05057C",
"A  c #0B067A",
"S  c #070A7D",
"D  c #0A0A7C",
"F  c #110D75",
"G  c #151074",
"H  c #16107A",
"J  c #050584",
"K  c #090683",
"L  c #050987",
"P  c #0B0A84",
"I  c #07078D",
"U  c #07048F",
"Y  c #06058D",
"T  c #06068A",
"R  c #080288",
"E  c #080588",
"W  c #0A0788",
"Q  c #08078F",
"!  c #09078F",
"~  c #0C058F",
"^  c #030888",
"/  c #05088B",
"(  c #05088D",
")  c #06088F",
"_  c #080988",
"`  c #0A0989",
"'  c #0A088F",
"]  c #0E0B8E",
"[  c #100B83",
"{  c #100B89",
"}  c #110C8C",
"|  c #131083",
" . c #070491",
".. c #010195",
"X. c #070396",
"o. c #080793",
"O. c #080695",
"+. c #0A0796",
"@. c #0D0694",
"#. c #0C0891",
"$. c #0B0895",
"%. c #080997",
"&. c #0D0C96",
"*. c #06069A",
"=. c #07079B",
"-. c #050798",
";. c #080499",
":. c #090798",
">. c #09069F",
",. c #0B069E",
"<. c #0B079C",
"1. c #06089B",
"2. c #07089E",
"3. c #0C0998",
"4. c #090C99",
"5. c #0D0C98",
"6. c #0A0A9C",
"7. c #0C089D",
"8. c #0C0A9C",
"9. c #0D0B9D",
"0. c #0B0C9C",
"q. c #100899",
"w. c #0301A2",
"e. c #0703A0",
"r. c #0507A7",
"t. c #0705A4",
"y. c #0807A0",
"u. c #0C05A1",
"i. c #0C04A5",
"p. c #0908A1",
"a. c #0A0AA0",
"s. c #0A09A3",
"d. c #0808A6",
"f. c #0507A9",
"g. c #0805AA",
/* pixels */
"w.t.s.s.d.2.^ Z ) / J S D k 9 z 4.t.1.P a q y z C P ! R c m n r ",
"..*.s.s.y.*.^ J Y Y J Z A k r b 0.f.:.P a q r z N Z ' J c x d r ",
"Z _ 5.6.%.) L ^ o.O.Y E V k r C 8.g.,._ x r a b c V P Z i u w 7 ",
"c S &.8.Y / ^ Y :.8.,.#.V i i F O.e.X.K k r p b c V K N r 7 8 ; ",
"k V 3.,.Y J Y  .:.u.i.q.C i i C E U R B p 9 p b C V Z c 9 8 3 % ",
"a b ] $.K S S K E ~ @.{ x 9 r x C D C v t 5 t m C B Z c r 8 3 ; ",
"7 u C V v a a a k k k s e > ; 8 u u t u 3 < 0 n b c V N r 6 8 < ",
"5 9 k k i r 5 5 9 9 9 5 2 % % > ; ; 1 1 % % 1 h l c B v 9 5 7 < ",
"b b B B N b s 9 9 a s t t u u 7 + # , 4 $ @ : 0 r x v i 9 6 w 6 ",
"B B B B N C s 9 s n M x F H G j # $ 4 4 - $ : 8 q s x r 5 8 6 < ",
"b c v c c b s q s s s l D { [ x ; # , , $ @ & 3 6 w u 9 < > 3 ; ",
"a i i i k x w 7 h s s v P } } b < % > , @ @ % > 3 8 0 7 ; > > ; ",
"q q p a r u 8 < f u s x F | P b q > 8 8 = @ & , > 3 2 < % & 3 1 ",
"2 5 p i p u 8 < 7 9 p s x b N c 0 8 w 8 , = & , > > ; ; % * 3 6 ",
"2 5 k c a u w 5 w u x x u a b b q 8 0 8 > @ & , * * ; ; ; > 6 0 ",
"< 5 c N p u 8 < 7 0 s a q 5 a g 7 3 0 8 > # & , > > < ; * > 6 9 ",
"; q v c r 8 > + + ; q 9 < < 7 < ; , 8 8 = # ; 8 8 8 < > # # 5 r ",
"; 6 l l 0 3 = # o = w u 6 8 8 3 % 3 8 8 & # ; w q q < ; o # q i ",
"% 2 0 9 7 2 > + o = 8 u w w 8 3 ; 8 t 0 3 ; < w 0 9 5 < # > w p ",
"+ % < < < < < ; + & 8 6 8 3 > ; ; 8 p t 8 < < 6 0 0 q < # # 7 q ",
". # < < < < q q < < 7 ; # o o + ; 6 p t 8 ; % & > ; ; + . . X + ",
". # 2 q < 7 w u t 0 6 ; o . # # + 3 0 9 < % + # # % % + o . o o ",
"# * 7 q < < 0 u t t 0 < # = 6 6 + $ 3 < > # X o * > < < > > > > ",
"> < q q 7 q t s r 9 5 ; # = 6 < X O > > , = . O = 3 0 t q q < < ",
"< 6 0 q 5 r l l t 7 ; # . . # # . . = 3 > # . o # 8 t i i p q < ",
"q q q 5 q 0 p i 0 > # o   . $ # o o ; 3 < % o o > 6 t i i p q < ",
"7 q q 7 < 8 q 5 > # o . . o 3 8 > ; 7 0 q < # # > 7 9 r r t 3 % ",
"< q 9 9 6 8 0 5 3 * + X . # 8 0 6 6 0 0 q < # = < q 9 r i u 2 % ",
"< q l l p t p p t q < % o $ 3 0 6 7 5 5 5 < % > 7 9 r k v l 0 < ",
"% < p l r p p p t 0 < * . o > 7 7 < < < < < % & < 9 r p v l 0 < ",
". # ; < 7 q 9 q < > # # . o # ; ; % # # > % . O * < < q r q ; # ",
"  . + % ; < 5 < % + + X o o + + % + X o + + . . # % ; ; < < % X "
};
