/* XPM */
static char *_191dc6c31e344fc8621f9e1f2c2c431CM0z7h9jusp4SPsn[] = {
/* columns rows colors chars-per-pixel */
"32 32 118 2 ",
"   c #250200",
".  c #290600",
"X  c #2D0B00",
"o  c #320E00",
"O  c #2E1100",
"+  c #351200",
"@  c #3A1501",
"#  c #3C1A03",
"$  c #361409",
"%  c #39170B",
"&  c #36180B",
"*  c #3D1C09",
"=  c #3F2109",
"-  c #401701",
";  c #411F06",
":  c #431F07",
">  c #421E06",
",  c #451C06",
"<  c #461D07",
"1  c #421C02",
"2  c #481F00",
"3  c #481F05",
"4  c #411E0B",
"5  c #451F08",
"6  c #421F0A",
"7  c #481F09",
"8  c #481F09",
"9  c #432002",
"0  c #472001",
"q  c #462202",
"w  c #472303",
"e  c #432004",
"r  c #432105",
"t  c #422007",
"y  c #462104",
"u  c #462305",
"i  c #452107",
"p  c #462106",
"a  c #452206",
"s  c #472207",
"d  c #472406",
"f  c #452105",
"g  c #492000",
"h  c #482100",
"j  c #492201",
"k  c #482102",
"l  c #492203",
"z  c #4D2502",
"x  c #4B2206",
"c  c #4C2305",
"v  c #482404",
"b  c #492505",
"n  c #4B2405",
"m  c #492407",
"M  c #4A2606",
"N  c #4D2605",
"B  c #4C2506",
"V  c #4D2607",
"C  c #4F2606",
"Z  c #4A2304",
"A  c #4E2804",
"S  c #4F2807",
"D  c #402009",
"F  c #442008",
"G  c #442209",
"H  c #462208",
"J  c #472309",
"K  c #43200D",
"L  c #41220D",
"P  c #42220D",
"I  c #47250C",
"U  c #45250E",
"Y  c #44220B",
"T  c #4B2108",
"R  c #482309",
"E  c #48220B",
"W  c #4B230A",
"Q  c #4C2209",
"!  c #4A2508",
"~  c #4B2609",
"^  c #49250B",
"/  c #49270B",
"(  c #4D2408",
")  c #4D2609",
"_  c #4F2608",
"`  c #4E2708",
"'  c #4B270D",
"]  c #4C270C",
"[  c #4A240B",
"{  c #4B280A",
"}  c #4C2808",
"|  c #4F2809",
" . c #4C290B",
".. c #4B280C",
"X. c #4F2A0D",
"o. c #4E290E",
"O. c #4D2A0E",
"+. c #4D280A",
"@. c #502707",
"#. c #512905",
"$. c #51270E",
"%. c #532B08",
"&. c #522C08",
"*. c #532A0C",
"=. c #52280F",
"-. c #522E0E",
";. c #552C0E",
":. c #512A0B",
">. c #472512",
",. c #4A2712",
"<. c #4F2B11",
"1. c #4D2B12",
"2. c #4B2D13",
"3. c #4C2D11",
"4. c #4A2813",
"5. c #552D14",
"6. c #502D11",
"7. c #583112",
/* pixels */
"* @ # @ + + O & $ & + * @ ; p # P P U # / 1 t p F ; P 6 * * # # ",
"X + # X X + O X X O X + o @ # @ X + # + # + @ # + o o o o + + + ",
". @ D O O = # X X + X + o @ 1 1 . X # @ # + @ 1 @ @ + o o + + @ ",
"X t 1.# # 2.P X + $ + # + # / { o # U t d @ 1 / E E 1 # @ @ ; # ",
"o ; 1.1 ; 3.; X + * + * + 1  .X.o @ / p b @ 1 ) 1 5 @ # # # F # ",
"+ 1 ..1 1 / # X + # + * + 1 )  .o @ p p b @ 1 V 1 E - 1 1 # F # ",
"@ p X.1 1  .1 X @ @ @ ; @ 2 V b @ # p b A # 1 c E 5.< 5 ; # ^ # ",
"@ ) -.# # -.p o @ * @ ; @ 2 V w # # p w V @ @ 2 2 *.- 1 1 # X.1 ",
"# ) 7.l l l x @ - - @ , @ 1 2 l @ 1 X.b 2 @ 1 ) 1 Q - , 1 @ ] b ",
"1 l V 1 A %.V @ 1 1 1 < @ 1 1 w @ 1 X.b l @ 3 *.x $.1 1 # @ p 1 ",
"2 w l @ z %.V @ 1 1 1 7 @ 1 1 1 @ 1 X.b l @ l ;.) $.@ - # # ..p ",
"2 b  .# 2 l l @ 1 1 1 7 @ # 1 1 # 1 X.b 2 @ 2 %.E ] @ @ @ 1 6./ ",
"2  .%.@ 1 2 l @ 1 1 , E @ 1 1 t @ # X.p 1 + 2 %.E ] + o + @ / 1 ",
"p b x @ 2 z V @ 3 3 < E @ # 1 t + # ^ p w @ 2 *.x ] @ o + @ F # ",
"p p l @ l #.@.@ x E < F @ # # # + @ / p w + 1 ) 1 / @ + @ # ^ # ",
"1 E ) 1 l z V @ x E ; F + @ @ # o @ J p 1 o # E 1 E @ + + @ F # ",
"p p / @ @ 1  .@ p p ; F @ @ + * + @ U F * o # F + * + @ X @ * # ",
"# ; J @ # 1 b @ 1 ; # F @ @ + * + @ U D * X @ K + # o @ X # D # ",
"@ p F + # 1 t @ @ # # ; @ @ + * + @ U * # X + ; @ * + @ X # * + ",
"@ / / + t p 1 @ @ # @ ; + + + * + @ D * @ . + # # ; @ * + # # + ",
"@ F / + p p ; @ # # @ # o o + * + @ D # @ . + # + @ + ; @ # # + ",
"+ # p + 1 p p @ # # @ # o o o * + @ * # @ X + * + @ + * @ # @ X ",
"+ @ ; + # ; F + # * @ * o o o * + @ * # @ X @ ; 6 * o # @ # @ X ",
"@ # F @ @ # F o * * @ ; + + o * + @ * # # X @ 6 ^ * X @ @ P * X ",
"+ 6 D + 6 * @ + + + * K o + @ # X @ P @ @ X # ^ 1.@ o @ @ * *   ",
"+ * ; + ; # + o # @ # 6 o + @ @ X @ P @ @ X @ F ,.@ X + + + * X ",
"@ ; 6 + 4 * @ + * @ @ * X + @ @ X # U @ @ X @ F ^ @ X + + + % + ",
"# ; * + K 6 # o 4 * * * o # ; * X * >.# @ X @ F ^ @ X @ + X % $ ",
"# # @ o >.4 + X * # # * X @ 6 6 + * >.* * + # F F # o * # X $ $ ",
"* * @ + 4.K # X + # @ * X # F K + * 4.= D @ # F F ; @ * * + $ $ ",
"+ @ # + >.* o X # @ # * o 6 ,.K X @ P # D @ # 1 # # o + $ o + $ ",
"  X + X # X     . . . X   + @ +   X @ + # X o + o + . . X . X X "
};
