/* XPM */
static char *_94e2f7e792e4a7cdf155f2fd7f076564SW9oXuBDIzUQ52h[] = {
/* columns rows colors chars-per-pixel */
"32 32 209 2 ",
"   c #3E1D0C",
".  c #3A1C1A",
"X  c #3C2316",
"o  c #3B2319",
"O  c #3C1822",
"+  c #392A27",
"@  c #37202A",
"#  c #3F2B36",
"$  c #550D00",
"%  c #5E0C0A",
"&  c #530D0F",
"*  c #4B1506",
"=  c #4D150D",
"-  c #4B1C0C",
";  c #541007",
":  c #53150C",
">  c #5C130C",
",  c #59190D",
"<  c #521D0F",
"1  c #5C0E12",
"2  c #4F1212",
"3  c #421D15",
"4  c #491B14",
"5  c #46171D",
"6  c #46181B",
"7  c #4A1C1B",
"8  c #541513",
"9  c #5A1413",
"0  c #541B14",
"q  c #5C1B13",
"w  c #5D141B",
"e  c #531C1D",
"r  c #5A1C1D",
"t  c #54161B",
"y  c #6C0B05",
"u  c #6C050F",
"i  c #640B0B",
"p  c #6C0B0C",
"a  c #650707",
"s  c #730405",
"d  c #7C0404",
"f  c #720C05",
"g  c #7C0C05",
"h  c #760509",
"j  c #7A060A",
"k  c #740C0C",
"l  c #7C0C0C",
"z  c #64120B",
"x  c #6A150C",
"c  c #74110C",
"v  c #7B120D",
"b  c #640D12",
"n  c #6D0C12",
"m  c #620F19",
"M  c #6E0E19",
"N  c #7D0611",
"B  c #730D13",
"V  c #7C0C13",
"C  c #750D18",
"Z  c #7F0C1D",
"A  c #621214",
"S  c #6D1413",
"D  c #641913",
"F  c #681C16",
"G  c #61151A",
"H  c #6D141D",
"J  c #651C1C",
"K  c #6B1C1C",
"L  c #741314",
"P  c #7C1213",
"I  c #761A15",
"U  c #791A15",
"Y  c #73141A",
"T  c #7B131A",
"R  c #741C1B",
"E  c #7B1C1C",
"W  c #452109",
"Q  c #4A2115",
"!  c #4E221B",
"~  c #562016",
"^  c #54231F",
"/  c #5C231E",
"(  c #48311F",
")  c #65221C",
"_  c #6C221E",
"`  c #692819",
"'  c #73231E",
"]  c #7A231D",
"[  c #4B1C26",
"{  c #551523",
"}  c #591A27",
"|  c #641D20",
" . c #6E1D22",
".. c #7B1C22",
"X. c #7D1D29",
"o. c #422328",
"O. c #422A28",
"+. c #4A222B",
"@. c #5C2423",
"#. c #542C24",
"$. c #5C2B23",
"%. c #552428",
"&. c #5B292C",
"*. c #542024",
"=. c #413124",
"-. c #5B3822",
";. c #513728",
":. c #5B322C",
">. c #502A35",
",. c #4A3B38",
"<. c #533533",
"1. c #5C3233",
"2. c #5F3831",
"3. c #573E39",
"4. c #652423",
"5. c #6B2323",
"6. c #632A23",
"7. c #6B2A23",
"8. c #632228",
"9. c #6B2329",
"0. c #642C2B",
"q. c #6C2C2B",
"w. c #732323",
"e. c #7C2323",
"r. c #742B25",
"t. c #7B2A26",
"y. c #79232A",
"u. c #732B2B",
"i. c #7B292B",
"p. c #623526",
"a. c #6B3024",
"s. c #64332C",
"d. c #6B332A",
"f. c #623B2D",
"g. c #6B3B2E",
"h. c #713627",
"j. c #72322D",
"k. c #743C2D",
"l. c #642C34",
"z. c #7A2731",
"x. c #752E31",
"c. c #7C2B32",
"v. c #653C35",
"b. c #683836",
"n. c #6A3E3D",
"m. c #693634",
"M. c #723533",
"N. c #733936",
"B. c #783A3B",
"V. c #5E413D",
"C. c #684036",
"Z. c #7B4032",
"A. c #79443E",
"S. c #6B503F",
"D. c #5D3845",
"F. c #613F40",
"G. c #850505",
"H. c #8C0403",
"J. c #840B06",
"K. c #890A06",
"L. c #84060D",
"P. c #8B050B",
"I. c #830B0C",
"U. c #8B0B0C",
"Y. c #940405",
"T. c #920A05",
"R. c #91050D",
"E. c #930B0C",
"W. c #821006",
"Q. c #82120E",
"!. c #8C130F",
"~. c #850715",
"^. c #8D0413",
"/. c #830D13",
"(. c #8B0C13",
"). c #830C1A",
"_. c #930214",
"`. c #9B0310",
"'. c #910C12",
"]. c #920A1A",
"[. c #841213",
"{. c #8B1215",
"}. c #801914",
"|. c #8D1C16",
" X c #82161A",
".X c #8A1419",
"XX c #811B1C",
"oX c #8C1B1C",
"OX c #941315",
"+X c #92131A",
"@X c #97261E",
"#X c #831D24",
"$X c #8B1B23",
"%X c #851B29",
"&X c #8B1D2E",
"*X c #881325",
"=X c #901621",
"-X c #961B2F",
";X c #8C2224",
":X c #83242C",
">X c #8A202C",
",X c #842C2B",
"<X c #932228",
"1X c #912A2B",
"2X c #812530",
"3X c #842D34",
"4X c #8B2F30",
"5X c #802E3A",
"6X c #8A3435",
/* pixels */
"6XE ;XoX] a.=.3.5X&X<XoX|.@X|.oX$Xc.( S.:X=X$X$X#XE t.e.$X;X' j.",
"4XL [.g k D X :.:X)..XI.K.!.I./.V Y   f. X^./.V /.l P V V P z q ",
"1XP I.J.L.k = 4.-X_.'.E.T.E.U.U.L.V * h.+X`.P.L.(.P.'.P.P./.z > ",
",XS c v /.L 2 r &X~.I.Q.K.K.Q.v /.L - d.oX'.l l /.I./.~.V L q < ",
"2.! = : 9 8 . O.&.r 9 D z z q 0 9 0 X ;.J A 8 0 9 9 9 t t 4 o o ",
"n.s.6.7.r.q.1.<.F.n.d.r.t.r.j.q.u.q.f.C.u.u.q.q.q.q.:.v.b.0.1.1.",
"B L V I.P L M 1 @.j.E I.{.U.).)./.~.[.P V P P V P L 0 p.i.T Z ).",
"/.(.P.H.J.l ).n q j.[.P.E.R.^.'.R.P.R.P.J.[.(.L.I.p - p.,X/.^._.",
"k l I.J.g v V i $.g.c !.U.!..X/.I.U.E.U.Q.v Q.[.Q.x W -.t.V (.].",
"i a y f y c B i $.p.x l l f S i y h d d y y y y y > - p.r.S B B ",
"M.7.' ] ] e.e.w.s.d.K R e.F 0.0.w.] XXXXE ] w.w.' w.4.u.x.9.0.0.",
"N.4.F I U P Y Y J K S L E A s.b.J R T  X XE Y R R E Y Y H J @.#.",
":XL f g G.G.~.~.N N L.G.I.a | M.S l U.U.R.P.I.l l L._._.~.L 9 = ",
"3XE k l I.I.V V V V (.L.l i @.m.S P {.'.'.(./.V l l ]._.(.T 9 - ",
"l.r 9 > ; : 8 2 8 9 b b 9 7 + ,.7 9 b b b 1 % > q 8 A b b w 3 o ",
"N.q.7.7.6.s.s.:.0.q.R .._ s.<.V.$.5. .K / / 5.5.4.r 4.J  .9.^ #.",
"Q.[.[.XXK J A.q.E .XOXOXOX|.E E  X[.oXU h.Z.U .X.X.X X{.{.{.}.U ",
"H.H.G.l n 9 M.) I.R.Y.Y.Y.Y.K.J.'.L.U.f ` h.k L.P.P.G.G.H.H.G.d ",
"J.L.I.V Y G N.7.T (.E.E.'.'.{.{.{././.k a.k.L /././.[./.'.(.[.Q.",
"p p p n H w s.6.p h h d j j k p i n B A 6.d.D p p p y p j h p i ",
"6.) 5.| 9.8.m.0.w.E E ] e.e.w.q.^ &.9.4.s.f.) K _ _ 5.w.w.w.6.$.",
"g.s.u. .y.w.u.7.R E E R R w.5.@.:.v.x.w.d.d.w.e.' ' ' w.e.w.6.#.",
") D L s L.d d d G.G.d d j k p % ~ 6.L j k g G.J.g g J.J.I.k z > ",
"7.F L j (.P.G.K.J.J.J.J.l l k z q 7.P I./.I.P.U.g g J.L.L.l z > ",
"6./ A p k l l k x i S a p p i > Q $.Y V V L k c z z c V P L A 8 ",
"@.r A n n p x z : : J 1 A b b 9 / 8.H u u i % > : : % a u b 1 & ",
"c.z.:X:X:Xe.w.7.:.:.B.u.2X:X>X:Xc.3X&X*X#Xy.9.6.v.s.w...%X%XX.X.",
"C C V V B p z q 4 ! q.H T ).)./.k V ~.~.T Y D : s.6.Y V V /.V V ",
"I.L.J.J.g g f x * 0 t.P (.U.E.T.G.K.E.E.[.U x $ a.` v I.U.K.K.G.",
"l l g g f f k x * 0 t.L l I.W.J.J.J.K.I.k S D ; 7.) k l I.l g g ",
"9 9 9 9 9 9 9 t . o.l.} G A q , > > A A 8 e *.6 1.%.w m G 9 8 0 ",
"7 7 7 e e e { [ @ # D.} } e ! Q 0 8 r e 5 [ +.O D.>.{ { e 7 3 3 "
};
