/* XPM */
static char *_22bad9ed4d04073a5b5bb0fee92ce778qnXZDkm39OIrdEG[] = {
/* columns rows colors chars-per-pixel */
"60 60 148 2 ",
"   c #4E2D1C",
".  c #502E1D",
"X  c #55311E",
"o  c #5C331E",
"O  c #62351F",
"+  c #5D3521",
"@  c #633621",
"#  c #653822",
"$  c #6C3B22",
"%  c #733E24",
"&  c #793E23",
"*  c #764127",
"=  c #7C4126",
"-  c #774228",
";  c #7D4429",
":  c #7D482F",
">  c #6F4632",
",  c #714632",
"<  c #7A4730",
"1  c #734936",
"2  c #7D4B34",
"3  c #7C5442",
"4  c #7C5847",
"5  c #7F5A48",
"6  c #824427",
"7  c #8A4727",
"8  c #834629",
"9  c #8A4728",
"0  c #86482B",
"q  c #8C4A2B",
"w  c #944E2D",
"e  c #994E2C",
"r  c #96502F",
"t  c #9B512E",
"y  c #844C33",
"u  c #8A4E33",
"i  c #914F30",
"p  c #855036",
"a  c #8C5137",
"s  c #85523B",
"d  c #8D5339",
"f  c #935235",
"g  c #9D5331",
"h  c #945538",
"j  c #9C5B3C",
"k  c #A2542F",
"l  c #A55631",
"z  c #A85732",
"x  c #A65834",
"c  c #AF5C36",
"v  c #AF5C37",
"b  c #AF5C35",
"n  c #AA5932",
"m  c #A35A39",
"M  c #A45A38",
"N  c #A55C3A",
"B  c #A75E3D",
"V  c #A25C3B",
"C  c #A95C38",
"Z  c #AB5E3B",
"A  c #AF5E38",
"S  c #AF5E39",
"D  c #A85E3C",
"F  c #A95E3D",
"G  c #AD5F3C",
"H  c #AB5E3A",
"J  c #B05C34",
"K  c #B05C35",
"L  c #B15C35",
"P  c #B25D35",
"I  c #B35D35",
"U  c #B15D36",
"Y  c #B05D37",
"T  c #B25D36",
"R  c #B35D36",
"E  c #B15E37",
"W  c #B35E36",
"Q  c #B25E37",
"!  c #B35E37",
"~  c #B45E36",
"^  c #B05B34",
"/  c #B15E38",
"(  c #B15F38",
")  c #B35E38",
"_  c #B35F38",
"`  c #B35F39",
"'  c #B05F3A",
"]  c #AF603B",
"[  c #A9603F",
"{  c #AA613F",
"}  c #AE613D",
"|  c #AE623E",
" . c #AB603E",
".. c #B2603B",
"X. c #B3623B",
"o. c #B2633E",
"O. c #835642",
"+. c #885740",
"@. c #845945",
"#. c #8D5942",
"$. c #8F5D46",
"%. c #8A5B45",
"&. c #845D4B",
"*. c #8C5E49",
"=. c #935E45",
"-. c #965C41",
";. c #9A5D40",
":. c #9A5F45",
">. c #915F48",
",. c #86604F",
"<. c #8C604C",
"1. c #9D6144",
"2. c #946149",
"3. c #986248",
"4. c #9B644A",
"5. c #876556",
"6. c #8A6453",
"7. c #8E6B5B",
"8. c #926651",
"9. c #956A56",
"0. c #9C6951",
"q. c #9C6C55",
"w. c #9E6D56",
"e. c #996C56",
"r. c #926B5A",
"t. c #9C715D",
"y. c #A06043",
"u. c #AD6341",
"i. c #AF6543",
"p. c #AB6443",
"a. c #A26549",
"s. c #A4664A",
"d. c #A5694D",
"f. c #A7694C",
"g. c #A4694E",
"h. c #B36540",
"j. c #B26641",
"k. c #B26643",
"l. c #B46743",
"z. c #B46844",
"x. c #A26D54",
"c. c #A06E56",
"v. c #A56B51",
"b. c #AB6D50",
"n. c #A0715B",
"m. c #A67259",
"M. c #A3735C",
"N. c #937262",
/* pixels */
"z.l.o.o...I I ....J ....J X...J ..J J X.J ..J I I ..{ d.c.n.n.m.b.| X.J P X...J ....J X.J ..J X.J I J ..J I X.I ..G  . .",
"j.j.o...I I I v J ] J J ..J J ] J ....J ......J J J { a.q.q.c.x.f.| X...J J J ..J J ..J J ] ..J J ........J J I S  .D B ",
"| | G v v v v b ] J J J J J J J J J J J b b J J J J n ;.2.<.3.3.y.{ ] J J ] J J J J J J ] J J J J J J b b J J J v x M x ",
"C C C b n n b n n J n n n J n J n n J n z J n J J n g a y p p a h g n J J J n n z J z J n J n n J z b n n b n b l x g t ",
"x l l n n n n n n n n n n n n n z n z n n z n n n z r 0 = * = ; q t n n n n n l z n n n z n n n n z z n n z n z k k e e ",
"x l l l n n n z z n n n z n z n z z n z n n n n n z e 7 * % = = 7 t x J n n n n n z z n z n n z n n n z n n z z k t e e ",
"x x l l z n z z n z n z n z n z n z z n z z n n n z e 8 = % * = 7 t l n n n z n n z n n n n z n z n n n z z z z k k e w ",
"x k z n z z z n z n z n z n z n z J z z n n n n n n r 0 = * * 6 7 t n n n n n n z n n z n n n z z n z n z z J z k t e e ",
"x l l n n z z z n n z n n n z z n n n n n n n n n k e 0 = * * ; q g z z z z n z n n n n n n n n n n n z n n z z z t e e ",
"k l x n n n n z z z z n z n n z n n n n n n n n n n r 0 = * * 8 q t z J J z z n n k n n n n n n n z z n z n n z k t e e ",
"k x x z n n n n z n n z n n n n k n n k n n n n n n e 7 = * = ; q t z n n z n z n n n l n n n n n z n n n z z z z t e e ",
"n l n l n n n n n n z b n n n n n n n n n n n n n n e 0 = * = ; q t z n n z J z n n n n n n n n n n n n z z J z k t e e ",
"x l n n n b n n n b n n n n n n n n n n n n n J J n t 7 ; * = ; q t J J n n n n n n n n n n n n n n n n n b J z z t e e ",
"l l l l n l z z z z z z n n z z n n n n n n n n n n r 7 = * = ; q t z n J n n n n n n n n n n n n n n z n z z z z t e w ",
"g g k k k k k t k k k k k k k k k t k k t k k k t t w 8 * % * = 7 e t l t k k k k k g k g k k k k k k k k k k k e e e r ",
"g f r t r e e e r e e e e e t e e e e e e e e e e e 7 ; $ $ $ % = q e e e e w e e e e e e e t e r e e e r e e w e q q q ",
"h f i q 7 7 7 7 7 7 7 7 7 7 7 8 7 7 7 7 7 7 7 7 7 7 = & $ # # $ % = 7 7 7 7 7 7 7 7 7 7 7 7 7 7 7 7 7 7 7 7 7 7 9 u u u ",
"$.$.p : & % & & & & & & % % % % & % & & & & & & & & $ $ O O O # $ % * * = = & & * & & * % % % * * & = = = * & = : y s +.",
"7.,.5 - # O O # # O # O o o o o o o o # $ # # # # O O + + + o o + # # # O $ O # # # o + o o + + O O # # O O @ # , 3 &.6.",
"N.7.5 > O o + + # o o o X .     . X o o o # o + o # + + + + + + # o + # o O # + o o X .     . X o @ + @ @ O o # > 4 5.7.",
"t.r.<.2 % $ $ $ % * % # + X X X o o # % % % $ % $ * % * * * * * % * $ % % % % % $ $ + X X X X # $ $ * * * $ % * 2 @.6.r.",
"x.d.;.h i q q i q q q ; % # # # $ * ; q i i i q u q q q p q q p i q p q i i q q q ; % # + # $ * 8 q u q q q q q f -.4.4.",
"| { { { x x x x x x x r ; * % * * 0 r l x x x x x x x x x x l l x x x x x x l n l w ; % $ * * : r x l x l l l l l m V y.",
"{ { { n n n n n n J n t q - * * ; 0 g n n J n n x J C n n n J n n n n n n x J J x r 0 * * * ; 0 g n n v n C n C x m m m ",
"{ x n n n n n n n n n t 7 ; * * ; q t n J n n n n n n n n n n n n n n n n n n n l t 8 = * * ; q t l n J z n n n z l t t ",
"l l l n n n n n n n n t 7 = = * ; 7 t n n n n n n x n l n n n n n n n n n n n n l t 7 * * * 8 q g l b z z n n n l e e e ",
"l l l l l n n n n n k t q ; * = ; q t n n n n k n n n n n n n n n n n n n n n n l r 8 * * * 8 q t n n n n n n z k k e e ",
"l l l l n n n x n n n t 0 ; * * ; q k k n n n n n n n n l n l n l n n n l n n n n r 7 * & = ; q g l n n z n n z l e e e ",
"l l l n n l n n n n n t 7 = * * ; q k l n n n n n n n n n l n n n n n n n n n n l r 7 * & * ; q t n n n n z n z l e e e ",
"l l l l n n n n n n n t q ; * ; ; q t n n n n n n l n n n n n n n n k n n n n n l r 7 * * = ; q t n n n z n n z l t e e ",
"x l l n l n l n n n l t q ; * = ; q t l n n l n n l l n n l l n n n n n n n n n l t 8 * % * = q t n n n n z z z l e e w ",
"x l l n n n n n n n l r q ; * ; ; 7 t n n n n n n n n n n n n n n k n n l n n n l r q = * = 6 q t n n n z n n z l t e e ",
"l l n n n n n n J n n t 7 ; = = ; i t n J n z n J z z b n n n n n n n n n n n n n e 8 = * = ; q e n n ^ n n n n l k e e ",
"x l x n n n J n n J n t q ; = = 6 i t n J J J J z J J z n n ^ n ^ n n ^ n n ^ ^ n t 0 = * = 8 q g n L n L n n n n e e e ",
"x x l n n n n n n n z e q = * = ; 7 t z z n z z z z z z n n n n z z n n z z z z l e 8 % * - 6 q e n n z n n n n l e e e ",
"g g t t t t e k k k e w ; * $ * * 6 w t t t t t t t t t t t k k t k t t k e k k t q = & $ % - 8 w e k k e t e k e w w w ",
"f h i q q 7 7 7 7 w 7 ; & $ $ * * * = q 7 w 7 q q q 7 7 w 7 7 7 7 7 7 7 7 7 7 q 7 = % $ O $ $ - 6 7 7 7 7 7 7 7 9 q u 0 ",
"d a u : = = 6 & = = = * $ O o o # * % & 6 = 6 = = 6 6 6 6 6 6 6 6 6 6 = 6 6 6 6 = % $ O O @ # $ & 6 6 6 6 = 6 = 6 y y y ",
"<.%.p ; % % $ % % % * O # # o o # O $ & % O $ % % % O O O O $ O O $ % % $ & $ & O % @ + + + O # % $ $ & % $ % % - 2 O.@.",
"r.6.5 > O O O O O O # # o + + # O O O O O O O # O O O O o o o o O O O O O O O O # O + + + + + O O O O O O O O # > 3 ,.5.",
"t.r.,., O O o O O O O # # * + # # # # # # # O # # # o o .     . + + @ @ @ @ # @ # # @ # # # # # O # # O # O o O , 5 5.7.",
"t.e.<.p - * * * * ; * * - - - , * * - * * * * * * * $ + o X X o + $ - - - - * * - - - - - - - < * * - - - * * * 2 <.8.9.",
"d.a.j h r r i r r r i r i i i r i r i w i i i r r q ; * * + # $ % 0 w w r w w w w w w w r f f w r i i r i i i i h j ;.1.",
"{ { { { n l z z z z z z z n z z n z z z n x n n n x r : * * * ; 0 g l C x x n n l n l C l l l l z z z z z n z z M M M j ",
"} ] ] z J J J J n J n J ] J J n n J J J J J J J J n r q ; * * ; q g n L ^ ^ ^ J ^ ^ ^ n b J J b J n J b J b J J z l g g ",
"n M n n n n n n n J n n n n J n n n n n n n n n J x t 0 ; = ; ; q g n ^ n n n n n n n n n n n n J n n n n n n n z g g g ",
"M l l n z n z n n n z n n n z z n n n n n n n n n l t 0 = * ; ; q t n n n z n n n n n n n n n n z n n z z n z n k t t e ",
"k k M l n z n n z n n n z z n n n n l n n n n n n n t q ; * = ; q t z n n l n n n n n l n n n n n z n n n z n n k t e e ",
"z k l z z z n z z n z n n z n z n n n n n n n n n z t 7 = * = ; q t z n z n n z z n n z n z z n z n n z n n z z k t e e ",
"l n k ] z z n n n z n z n n n z n z n n n k n n n z t 0 = = = ; q t z z n z n n n n z n z n n z n z n z z n n z z t e e ",
"M l z z n z z n z n z n z z n n n z n n k n n n n z t q ; * = ; q g n b n z z n n z n z z n z n z n z n z n n z z e e e ",
"k l l z n n z n n z n z n n z n z n n k n n n n n z t 8 = * ; ; q t l n n n n z n z n n n z n z n z n z n n z z k t e e ",
"l l l l z n n n z n z n z z z z n n n k n n n n J z r 7 = = = ; q t n n z z n n z z n z n n n n n n n n n n z z k t e e ",
"l l n n n n n n n n n n ^ z ^ n n n n n n n n n n z t 7 = * * 6 q t n n J z n n n n ^ z n n n n n n n n n n n n z t e e ",
"l l n n n n n n n n n n n n n n n J n J n n n n n z t 0 = * * = 7 t n n n n n n z n n z n n n n n n n n n n n n z t e t ",
"l l l l n l l n z z z z z z z z n k n n k n n k z z t 7 = * - ; q t z n n z z z z z z z z z n n n k k z z z n n k t e r ",
"g g g r t t e t e t e t t t t e e e e e e e e e e e e 7 2 2 2 p i w t e t t e t t t e t e e e e e k e k e e e k e q w q ",
"h i i q 7 7 7 7 7 7 7 7 7 7 7 7 7 7 7 7 7 7 7 7 7 7 q p 2 s ,.s p p 7 7 7 7 7 7 7 7 7 7 7 7 7 7 7 7 7 7 7 7 7 7 7 7 0 0 ",
"a u p 8 6 & = = & 6 6 = & & 6 6 6 & 7 6 6 6 & 6 = ; : s @.,.,.<.s y 6 = 6 & 6 = 6 6 6 & & 6 6 & 6 & & 6 6 & & 6 ; : : : ",
"a p 0 ; & & & & & & & = & & & & & & & & & & & & & * 2 s ,.6.,.<.@.: = & & & & = & & & & & & & & & & & & & & & & - - - : "
};
