/* XPM */
static char *_775f65fd5d741bf93b15ee6da0822986Tc8c7NBXnDNsYxt[] = {
/* columns rows colors chars-per-pixel */
"60 60 141 2 ",
"   c #262626",
".  c #26272B",
"X  c #27282A",
"o  c #292A2A",
"O  c #302F29",
"+  c #393727",
"@  c #3E3B26",
"#  c #363428",
"$  c #343434",
"%  c #3C3C3C",
"&  c #433F25",
"*  c #675E1D",
"=  c #6C611E",
"-  c #7B6E1A",
";  c #444025",
":  c #484325",
">  c #45412B",
",  c #524C22",
"<  c #575022",
"1  c #5C5421",
"2  c #5B573E",
"3  c #7C7231",
"4  c #3F3F40",
"5  c #444444",
"6  c #4D4D4D",
"7  c #535353",
"8  c #5E5D5D",
"9  c gray39",
"0  c #6C6C68",
"q  c #757575",
"w  c #7C7C7C",
"e  c #938217",
"r  c #A08D14",
"t  c #AB9512",
"y  c #BCA30F",
"u  c #AC9820",
"i  c #BCA628",
"p  c #C3A90E",
"a  c #CEB30C",
"s  c #D3B60B",
"d  c #D7BA0A",
"f  c #D9BC0A",
"g  c #E6C507",
"h  c #E9C707",
"j  c #EAC907",
"k  c #E3C408",
"l  c #F0CE05",
"z  c #F4D104",
"x  c #FCD702",
"c  c #FED803",
"v  c #FCD709",
"b  c #FCD80A",
"n  c #FCD914",
"m  c #E4C828",
"M  c #FCDC25",
"N  c #FCDC29",
"B  c #E4CB3B",
"V  c #FCDE36",
"C  c #FCDF3C",
"Z  c #FEE13D",
"A  c #F9DE42",
"S  c #F7DE53",
"D  c #FDE457",
"F  c #FCE358",
"G  c #F3DE69",
"H  c #FDE568",
"J  c #FCE876",
"K  c #F1E07F",
"L  c #858585",
"P  c #8A8A8A",
"I  c #969696",
"U  c #989898",
"Y  c #ADAB9F",
"T  c #A2A2A2",
"R  c #ADADAD",
"E  c #BCB9AA",
"W  c #B1B1B1",
"Q  c #BCBCBC",
"!  c #C4C1B2",
"~  c #ECE0A2",
"^  c #FDEFAC",
"/  c #FCF0B3",
"(  c #FCF1B9",
")  c #C3C3C3",
"_  c #CBCCCC",
"`  c #D7D4C3",
"'  c #D6D6D6",
"]  c #DADADA",
"[  c #E9E2C1",
"{  c #E6E1CD",
"}  c #FDF4CB",
"|  c #E7E3D0",
" . c #E5E3DA",
".. c #F2EEDA",
"X. c #FDF6D0",
"o. c #FCF6D8",
"O. c #E4E4E4",
"+. c #E3E4E8",
"@. c #EEEEEE",
"#. c #FCF7E1",
"$. c #FDF8E2",
"%. c #FCF8E3",
"&. c #FDF9E3",
"*. c #FCF8E2",
"=. c #FCF8E4",
"-. c #FEF9E4",
";. c #FFFAE4",
":. c #FFFBE4",
">. c #FCF8E7",
",. c #FDF9E3",
"<. c gray94",
"1. c #F1F1F1",
"2. c gray95",
"3. c #F3F3F3",
"4. c #F2F2F4",
"5. c #F4F4F4",
"6. c gray96",
"7. c #F6F6F6",
"8. c gray97",
"9. c #F2F2F2",
"0. c #FCFAF0",
"q. c #FCFAF1",
"w. c #FEFCF1",
"e. c #FDFBF3",
"r. c #F8F8F8",
"t. c #FCFBF9",
"y. c #FCFBFA",
"u. c #FCFCFB",
"i. c #FDFDFB",
"p. c #FBFCFD",
"a. c #FBFCFF",
"s. c #FDFDFD",
"d. c #FCFCFE",
"f. c #FDFDFE",
"g. c #FCFCFF",
"h. c #FDFDFF",
"j. c #FDFEFF",
"k. c #FEFEFE",
"l. c #FEFEFF",
"z. c white",
"x. c #FDFDFE",
/* pixels */
"r.@.5.1.5.1.5.@.5.1.5.1.5.1.5.1.5.1.3.1.5.1.2.2.2.5.1.5.1.5.1.5.<.7.<.7.<.5.<.5.<.7.<.7.<.7.<.7.<.5.<.5.<.7.<.5.<.7.<.7.",
"@.5.1.5.1.5.1.5.1.5.1.5.1.1.1.3.1.3.1.5.2.2.2.2.5.1.2.1.2.1.5.1.3.1.3.<.5.<.5.<.5.<.3.<.5.<.3.<.5.<.5.1.5.<.5.<.5.1.5.<.",
"5.1.5.1.5.1.5.1.5.1.5.1.5.1.3.1.5.1.5.1.2.2.2.2.1.2.2.5.1.5.1.5.1.5.1.5.1.5.<.5.<.5.<.5.<.5.<.5.<.5.<.5.<.5.1.5.1.5.1.5.",
"1.5.1.1.1.5.1.1.1.3.1.3.1.3.1.3.1.1.1.5.2.2.2.2.5.1.5.1.5.1.5.1.3.1.3.1.5.1.5.1.5.1.5.<.3.1.5.1.5.<.5.1.3.1.3.1.3.1.3.1.",
"5.1.5.1.5.1.1.1.5.1.5.1.5.1.5.1.5.1.5.1.5.5.5.8.7.5.7.7.5.r.5.r.7.r.7.7.5.7.5.4.1.3.1.5.1.5.<.3.<.5.<.5.1.3.<.3.<.3.3.3.",
"1.5.1.5.1.5.1.5.1.5.1.5.1.1.1.5.1.5.1.5.@.Q W W W W W R W R W R W R W R W R Q @.3.3.3.1.3.3.3.3.3.3.3.3.3.3.3.3.3.3.3.1.",
"1.1.1.5.1.1.1.5.1.1.5.1.4.1.4.1.1.5.1.5.' 5   X   o o o o X   o o o o o     4 ] 3.3.1.3.1.1.3.1.3.1.3.1.1.3.1.3.3.1.3.3.",
"5.1.5.1.5.5.1.1.5.1.3.1.3.5.5.5.r.5.5.r.] 5   X                   o o o o X 5 O.7.7.7.7.7.3.1.3.3.3.1.3.3.3.1.3.1.3.1.3.",
"1.5.1.5.1.5.1.1.1.5.1.1.4.4.+.T I I U U P $ X $ w L L L L L L L w $ o o o o $ P I U U U T +.5.1.3.1.3.1.3.1.3.1.3.3.3.<.",
"5.1.1.1.1.1.5.1.5.1.5.1.4.4.] 4         X X X 4 O.k.k.k.k.p.k.k.+.5   o o o o X     X . % ] 4.4.<.3.1.3.1.3.1.3.1.3.3.3.",
"1.5.1.5.1.5.1.1.1.5.1.5.8.r.] >   o X o X     4 O.k.k.k.d.p.d.k.+.4     o o o o X X o X % ] 8.@.5.1.5.1.5.1.5.1.5.1.3.<.",
"5.1.5.1.5.1.5.1.5.1.5.O.P w q $   % I T T T Y R K J J J J J J J H u r r r r e + o X X . > ] 4.8.<.5.<.5.1.5.1.5.1.5.1.3.",
"@.5.1.5.1.5.1.5.1.5.1.] %     o   5 +.k.k.k.k.;.M x x x x x x x x x c c c c j : X o o o 4 ' 4.@.5.<.5.<.5.<.5.<.5.<.3.<.",
"5.1.5.1.5.1.5.1.1.1.5.] %   o o o 6 O.i.t.t.k.o.N v v b v v v v v z x x x x k : o O o X 4 ] @.4.<.5.<.5.<.5.<.5.1.5.1.5.",
"1.5.1.1.1.5.1.1.1.5.1.] % X % R Q ! H F S F F H ^ / / / / / / / ~ 3 = - j x z p y t & X $ 9 9 q O.3.5.1.5.<.5.1.5.1.5.<.",
"5.1.5.1.1.1.5.1.5.1.5.] %   5 +.k.$.M x x x x M =.p.p.p.p.p.p.k.+.5 . @ g c x x x h & X X . . 4 ' 7.<.5.<.5.<.5.1.5.1.7.",
"1.5.1.5.1.5.1.5.@.@.+.' %   5 O.k.*.M x x x x N *.p.p.q.q.q.0.0.] 4 . & k v x v x g & X o o o & ] 5.5.1.5.1.5.1.3.1.5.1.",
"5.1.5.1.5.1.5.5.] 9 7 6 o   5 O.k.$.M x x x x N $.p.;.F C C C Z A > . & k x x x x g ; X X X o % ] 5.1.5.1.5.1.5.1.3.1.5.",
"1.1.1.5.1.1.1.5.' %     o   5 O.k.*.M x x x x N *.p.#.M x x x x g ; . & k x x x x k & X X X o % ] 5.5.5.3.1.5.1.3.1.5.1.",
"5.1.5.1.5.1.1.5.' %   $ 5 5 8 | $.} M x x x x N *.p.#.N x x x x k ; . & k x x x x h 1 & & # X % ) ] ] 1.1.1.1.1.3.1.1.1.",
"1.1.1.5.1.1.5.5.] 4 . 5 _ +.| A M M b x x x x N #.p.$.N x x x x k ; X ; k x x x x x j g a ; o o 5 5 7 ] 5.3.1.3.1.3.1.3.",
"1.5.1.5.1.5.1.5.' > X 5 O.k.:.M x x x x x x x N #.k.$.N x x x x k ; X & k x x x x v x x g ; o o     % ] 5.1.5.1.5.1.5.1.",
"5.1.5.1.4.1.5.4.' % X 5 O.p.*.M x x x x x x x N #.p.$.N x x x x k ; . ; k x x x x x x x k ; X o o X % ] 5.3.1.3.1.3.1.5.",
"1.5.1.5.1.5.1.5.' % X 5 O.k.*.M x x x x x x x N #.p.$.M x x x x k ; . ; k x x x x x x x k ; X X o X % ' 5.1.3.1.5.1.5.1.",
"5.1.5.1.5.1.5.1.] %   5 O.k.*.M x v x x x x x N #.d.#.N x x x x k ; . ; k b x x x x v c k ; o o o o % ] 4.4.4.5.1.5.1.5.",
"@.5.1.1.1.5.1.5.' %   5 O.k.*.M x x x x x x x N #.d.#.N x x x x k ; . ; k x x x x x x c k ; o o o o 4 ] 4.@.5.<.5.1.3.1.",
"5.1.5.1.5.1.5.1.] % X 5 O.k.%.M x x x x x v x M #.d.#.N x x x x k ; . ; k x x x x x x x k ; o o o o > ] 4.5.<.5.1.5.1.5.",
"1.5.1.5.1.5.1.5.' % X 5 O.k.%.M x x x x x x x N #.p.#.N x x x x k ; . ; k v x x x x x v k ; o o o o 4 ] 5.<.5.1.5.1.5.1.",
"5.1.5.1.5.1.5.1.] %   5 O.k.*.M x x x x x x x N *.p.$.N x x x x k ; . ; k c x x x x x c k ; X o o X % ] 4.5.1.5.1.5.1.5.",
"1.5.1.5.1.5.1.5.' %   5 O.k.*.M x x x x v x x M %.k.$.N x x x x k ; . ; k c x x v x x c k ; X o o X % ] 5.1.5.1.3.1.3.1.",
"5.1.5.1.5.1.5.1.] %   5 O.p.$.M x x x x x x x N %.p.$.N x x x c k ; X ; k x x x x x x x g ; o o o o % ] 1.5.1.5.1.5.1.5.",
"1.1.1.5.1.5.1.5.] %   5 O.p.$.M x x x x x x x N #.d.$.N x x x x k ; . ; k x x x x x x c g ; o o o o % ] 5.1.1.1.3.1.3.1.",
"5.1.5.1.5.1.5.5.] %   5 O.k.$.M x x x x x x x N %.p.=.N x x x c g ; X ; k x x x x x x x g ; X o o o & ] 4.4.1.5.1.5.1.5.",
"1.5.1.1.1.1.1.5.] %   5 O.k.$.M x x x x x x x N o.p.%.N x x x x g ; . ; g x x x x x x x g ; o o o X 4 ] 7.4.1.4.1.3.5.1.",
"1.5.1.5.1.5.1.5.' %   5 O.k.*.M x x x x x x x N #.p.%.M x x x x k ; . ; k b x x x x x x g ; X o X o % ] 4.4.4.1.5.1.3.1.",
"5.1.5.1.5.1.5.5.] %   5 O.k.$.M x x x x x x x N #.p.%.N x x x x k ; . & k x x x b v x x g ; o o X   % ] 4.4.1.5.1.5.1.5.",
"1.1.1.5.1.1.1.5.' % . 5 ] 4...V n n x x x x x N #.d.#.N x x x x k ; X & k x x x v x l z f ; X o $ $ 6 ] 5.1.5.1.5.1.5.1.",
"5.1.5.1.5.1.5.1.] % X # 7 7 0 [ X.( M x x x x N #.d.#.N x x x x k ; . & k x x x x j = < , O X % W _ _ @.1.5.1.1.1.5.1.5.",
"1.5.1.1.1.5.1.5.' %         5 O.k.=.M x x x x N =.k.$.N x x x x g ; X & k b x x x g ; . X o   4 ] 5.7.1.5.1.3.1.3.1.3.1.",
"5.1.5.1.5.1.5.1.] 7 5 4 X X 5 O.p.*.N x x x x M { +.{ m g g g g a @ X ; k x x x x k ; X o X X % ] 5.1.5.1.5.1.5.1.5.1.5.",
"@.5.1.5.1.5.1.1.@.O.] _ %   5 O.k.*.N x x x x h 2 5 5 > ; ; ; ; ; o X ; g x x x x g ; o o o o 4 ] 1.5.1.5.1.3.1.5.1.5.1.",
"5.1.5.1.5.1.5.1.4.1.5.] %   5 O.k.:.M x x x x k @ X X X . . . . . . . & k c x x c g ; X o     % ' 5.1.5.1.5.1.5.1.5.1.5.",
"1.5.1.1.1.1.1.5.1.5.1.] % X 4 Q ' ` D Z V b x j = , , , , , , , , , , * j x z f s y ; o o 6 6 9 O.1.5.1.5.1.3.1.1.1.5.1.",
"5.1.5.1.5.1.5.1.5.1.5.] % X O $ $ 6  .w.o.M x x l j l l l l l l l l l l x x k , # # o X 4 ' O.@.<.5.1.5.1.3.1.5.1.5.1.5.",
"1.5.1.5.1.5.1.5.1.5.1.] %   X X X 5 O.k.:.N c c c c c x c c c c x c c c c c j ; X o o X 4 ] 7.1.5.1.5.1.5.1.3.1.5.1.3.1.",
"3.1.1.1.5.1.1.1.1.1.4.O.q 9 8 # X % R Q E i y p z x x x x x x x z p y y y y t @ o o o   4 ] 3.3.1.5.1.3.1.3.1.5.1.3.1.3.",
"1.5.1.5.1.5.1.5.1.5.1.4.@.4.] 4 X o o o O O o : g c x x c c x x g > o # # o o o o o   X % ] 3.1.5.1.5.3.3.1.5.1.5.3.5.1.",
"1.1.5.1.5.1.1.1.5.1.4.1.4.4.] %     X   X o X ; g c c c c c c c g ; X X o o o           % ] 3.3.3.1.1.1.3.1.3.1.1.1.3.1.",
"5.1.5.1.5.1.1.1.1.1.1.1.5.5.O.P w w w w q $ X + e r r r r r r r e @ X o o o $ q w w w w P O.3.1.1.5.1.1.3.3.1.1.1.5.1.1.",
"1.5.1.1.1.5.1.5.1.5.1.5.1.1.5.5.5.5.5.5.] 5 X o X X X X o X X X X o X   o X 5 ] 7.3.5.5.5.1.3.1.5.1.3.1.5.1.5.1.5.1.5.1.",
"5.1.5.1.5.1.5.1.5.1.1.1.5.1.5.1.5.1.5.5.] %                       X     . . > ] 1.5.1.5.1.5.1.5.1.3.1.3.1.3.1.5.1.3.1.3.",
"1.5.1.3.1.5.1.5.1.5.1.5.1.5.1.1.1.5.1.5.@.T I I U I I I U I U I U I U I U I T @.5.<.5.<.5.1.5.1.5.1.5.1.5.1.5.1.3.1.3.1.",
"5.1.3.1.3.1.3.1.5.1.1.1.1.1.5.1.5.1.5.1.1.5.8.5.5.8.5.8.5.8.5.8.5.8.5.8.4.r.4.5.<.5.<.5.<.5.<.5.1.3.1.5.1.3.1.3.1.5.1.5.",
"@.3.1.3.1.3.1.3.1.5.1.5.1.5.1.1.1.5.1.5.1.1.2.2.5.1.5.1.5.1.5.1.5.1.5.1.4.@.5.1.5.1.5.<.5.<.5.1.3.1.3.1.5.1.5.1.5.1.5.1.",
"5.1.5.1.5.1.3.1.5.1.5.1.5.1.5.1.2.1.5.1.2.2.2.2.1.5.1.5.1.5.1.5.1.5.<.5.<.5.1.5.<.5.1.5.<.5.<.5.1.5.1.3.1.3.1.3.1.5.1.5.",
"1.5.1.3.1.3.1.3.1.5.1.5.1.5.1.5.1.5.1.5.2.2.2.2.5.1.5.1.2.1.5.1.4.1.5.1.5.1.5.<.5.<.5.<.5.1.5.1.3.1.5.1.3.1.5.1.5.1.3.1.",
"5.1.1.1.5.1.5.1.1.1.5.1.5.1.5.1.2.1.2.2.2.2.2.2.2.5.1.5.2.5.1.5.1.5.1.5.1.5.1.5.1.5.<.5.1.5.1.5.1.5.1.3.1.5.1.5.1.5.1.5.",
"1.5.1.5.1.5.1.5.1.5.1.5.1.1.1.5.2.5.1.5.2.2.2.2.5.1.2.1.2.1.2.1.1.1.5.1.5.1.5.1.5.<.5.1.5.1.5.1.3.1.5.1.5.1.1.1.3.1.5.1.",
"5.1.5.1.5.1.1.1.5.1.1.1.5.1.1.1.5.1.5.1.2.2.2.2.2.2.2.2.1.5.1.2.1.1.1.5.1.5.1.1.1.1.1.5.1.5.1.1.1.3.1.1.1.5.1.1.1.5.1.5.",
"@.5.1.5.1.5.1.5.1.5.1.5.1.5.1.5.1.5.1.5.1.5.2.1.5.1.5.1.2.1.5.1.5.1.5.1.5.1.5.1.5.<.5.<.5.1.5.1.5.1.5.1.5.1.5.1.5.1.1.1."
};
