/* XPM */
static char *_c4ee1c7f5e64fecd120c763038ddaf12NESRNX7VDWTJQtb[] = {
/* columns rows colors chars-per-pixel */
"60 60 249 2 ",
"   c #020101",
".  c #0B0201",
"X  c #0C0A02",
"o  c #00030A",
"O  c #090607",
"+  c #130300",
"@  c #1B0300",
"#  c #140B01",
"$  c #1B0B01",
"%  c #150A0A",
"&  c #151304",
"*  c #1C1402",
"=  c #1E1A02",
"-  c #18130B",
";  c #230400",
":  c #230A01",
">  c #2A0B00",
",  c #260905",
"<  c #370800",
"1  c #231301",
"2  c #2B1301",
"3  c #221B03",
"4  c #2B1A01",
"5  c #25190B",
"6  c #331300",
"7  c #331C02",
"8  c #3A1D01",
"9  c #381505",
"0  c #1F2000",
"q  c #2A230B",
"w  c #292606",
"e  c #3B2403",
"r  c #3D290B",
"t  c #36250A",
"y  c #2D2714",
"u  c #342813",
"i  c #3D3A1B",
"p  c #3A3617",
"a  c #30310E",
"s  c #3C3821",
"d  c #450B00",
"f  c #590B00",
"g  c #421400",
"h  c #4C1400",
"j  c #451B03",
"k  c #591700",
"l  c #4C1D11",
"z  c #671A01",
"x  c #721D00",
"c  c #452303",
"v  c #472808",
"b  c #562A07",
"n  c #4B380A",
"m  c #57360A",
"M  c #482C13",
"N  c #592C11",
"B  c #473615",
"V  c #573A17",
"C  c #682804",
"Z  c #772A02",
"A  c #64360C",
"S  c #683A1A",
"D  c #7A380B",
"F  c #4B3D23",
"G  c #6F3C21",
"H  c #3E4019",
"J  c #45421B",
"K  c #5A4518",
"L  c #654618",
"P  c #764515",
"I  c #4B4829",
"U  c #55472C",
"Y  c #57542D",
"T  c #555036",
"R  c #684825",
"E  c #734928",
"W  c #775429",
"Q  c #655838",
"!  c #705432",
"~  c #5C603B",
"^  c #78673C",
"/  c #63603D",
"(  c #625D44",
")  c #696648",
"_  c #746C4B",
"`  c #6F6E52",
"'  c #78765A",
"]  c #777050",
"[  c #7D7961",
"{  c #595240",
"}  c #8C3C13",
"|  c #8B3410",
" . c #8B4617",
".. c #934519",
"X. c #A04016",
"o. c #8B4D23",
"O. c #89572A",
"+. c #995528",
"@. c #8E5B34",
"#. c #A65D2D",
"$. c #A6502C",
"%. c #88673A",
"&. c #976538",
"*. c #80602F",
"=. c #B86C3B",
"-. c #AF6936",
";. c #C5542C",
":. c #866947",
">. c #9B6A41",
",. c #897749",
"<. c #98784B",
"1. c #827B5E",
"2. c #957B55",
"3. c #866E52",
"4. c #A67448",
"5. c #B67648",
"6. c #B67A53",
"7. c #AC6F4A",
"8. c #837C6A",
"9. c #C96C43",
"0. c #7E825F",
"q. c #9C8559",
"w. c #A58659",
"e. c #BC8458",
"r. c #BA905E",
"t. c #868465",
"y. c #998565",
"u. c #979576",
"i. c #958E6F",
"p. c #A38564",
"a. c #B78A67",
"s. c #AC9769",
"d. c #B99569",
"f. c #A89C72",
"g. c #B89877",
"h. c #A68B70",
"j. c #B7A47A",
"k. c #ACA376",
"l. c #C6885C",
"z. c #D89666",
"x. c #C89977",
"c. c #DB9D73",
"v. c #CD9065",
"b. c #C6A47B",
"n. c #D8A277",
"m. c #E3AC7B",
"M. c #9B9980",
"N. c #A69D87",
"B. c #B19E80",
"V. c #A7A58B",
"C. c #B7A788",
"Z. c #BBB289",
"A. c #ADAB95",
"S. c #AEB696",
"D. c #BDAE97",
"F. c #BAB8A2",
"G. c #C7AA89",
"H. c #C7B48A",
"J. c #DCB689",
"K. c #C9B998",
"L. c #D7B898",
"P. c #D2AA8C",
"I. c #E2BA99",
"U. c #E8B187",
"Y. c #C3BEA6",
"T. c #D7BEA4",
"R. c #E1BFA6",
"E. c #CCC49C",
"W. c #D8C49D",
"Q. c #EAC29C",
"!. c #F1C097",
"~. c #C8C5A8",
"^. c #D7C8A7",
"/. c #DBD1AD",
"(. c #CCCBB6",
"). c #CAC7B7",
"_. c #D7CCB6",
"`. c #D9D6B7",
"'. c #CDD3B5",
"]. c #E6C9A7",
"[. c #F3C9A7",
"{. c #F6D4AA",
"}. c #E3CBB4",
"|. c #E7D6B9",
" X c #F7D7BA",
".X c #F1CDB5",
"XX c #E6E3BE",
"oX c #DCDAC4",
"OX c #DAD8C9",
"+X c #DFDBD1",
"@X c #CED5C3",
"#X c #E3DAC5",
"$X c #E5DCCB",
"%X c #ECDCCC",
"&X c #EBD8C4",
"*X c #F5DDC6",
"=X c #EADDD2",
"-X c #F4DED1",
";X c #DEE3C7",
":X c #DDE5D0",
">X c #E9E5C9",
",X c #F7E4C9",
"<X c #E4E4D4",
"1X c #ECECD5",
"2X c #ECEBDB",
"3X c #E8E7D6",
"4X c #F1E9D5",
"5X c #F2ECDB",
"6X c #F6E8D6",
"7X c #EBF3DB",
"8X c #E7F1D5",
"9X c #F6F3DC",
"0X c #FAF2CD",
"qX c #ECEBE3",
"wX c #EDECEA",
"eX c #E6EBE4",
"rX c #F4EDE3",
"tX c #F7EDE8",
"yX c #ECFBE4",
"uX c #EBF7E7",
"iX c #F4F4E4",
"pX c #FCF4E5",
"aX c #F4FBE4",
"sX c #F5F5EB",
"dX c #FBF6EB",
"fX c #F5FAEC",
"gX c #FCFAED",
"hX c #FAF9E5",
"jX c #EDFEFB",
"kX c #EBF9F5",
"lX c #F5F6F2",
"zX c #F5FCF4",
"xX c #FDFCF4",
"cX c #F5FEFD",
"vX c #FFFEFA",
"bX c #FBFFFF",
"nX c #FBFEFF",
"mX c #F9FEFF",
"MX c #FFFFFD",
"NX c #FEFEFD",
"BX c #FCFFFF",
"VX c #FDFFFF",
"CX c #FFFEFF",
"ZX c #FEFFFF",
"AX c #FFFFFF",
"SX c #FDFDFF",
"DX c #FEFEFD",
"FX c #FAF6F5",
"GX c #EFEAF1",
/* pixels */
"vXvXNXNXNXmXmXmXmXmXmXmXNXNXNXNXNXNXNXNXSXSXSXNXvXFXlXsXfXfXhXfXjXjXjXcXvXgXfXxXxXxXxXvXvXmXNXmXNXNXNXvXNXNXvXvXvXNXNXNX",
"vXvXNXNXNXNXNXmXmXmXmXNXNXNXNXNXFXFXSXNXSXFXlXlXwXqXeX<X<X<X<X3XeXkXeXkXfXfXgXxXxXxXxXvXNXNXmXmXNXNXNXNXvXvXvXvXNXNXNXNX",
"vXvXNXNXNXmXmXNXNXmXmXSXNXNXNXvXvXvXFXFXGXqX3X+XOXOX@X).).).(.@X@X@X;X:X3X3X7XgXgXxXvXvXNXNXNXmXNXNXNXNXNXNXNXNXNXNXNXNX",
"NXNXSXNXNXNXNXmXmXNXmXSXNXvXxXFXxXdX2X<XOX@X).).F.F.A.A.V.V.V.V.S.S.S.Y.(.'.oX<X5XiXdXvXNXNXNXmXNXmXNXNXNXNXNXNXNXNXNXNX",
"NXNXNXNXNXNXNXNXSXSXmXvXvXvXFXtX4X>X`.~.F.A.N.M.t.t.[ ' ` ` ` ` ' 0.t.u.N.V.Y.).oX<XeXGXFXSXSXNXmXNXNXNXNXmXNXNXNXNXNXNX",
"NXNXNXNXNXNXNXNXSXFXvXvXvXFXtXGX`.(.~.V.u.t.) ~ T I I s s p i i J J Y ) _ 1.u.V.Y.).OXGXGXGXSXSXNXmXmXmXmXNXNXmXmXNXNXNX",
"NXNXNXNXNXNXNXNXvXxXFXxXdXqX+X).Y.A.u.' ) I i a y w w = = = - 0 w w t a i I ( ' u.N.F.).=XqXlXvXNXmXmXNXmXmXmXNXmXNXNXmX",
"NXNXNXNXNXNXNXNXvXxXxXtX2X$X).F.u.1.Q I a 5 w = = & * & = = - = * * = 3 = 3 y F ( [ M.A.Y.OX<XrXvXNXNXNXNXNXmXmXmXNXmXNX",
"NXNXNXNXSXvXxXFXxXgXpX2X$XY.A.8.) U y 3 3 5 = $ & # # # + # # X # $ # $ - 3 q q y i ) ' M.E.~.8XiXFXxXSXvXmXcXcXmXmXNXNX",
"SXNXSXNXSXvXvXxXdXpX5X#XY.N.[ { s y 3 * - & # . X . + X . . . . . . . + # # & = 3 w i I ] k.Z./.4XrXFXxXvXvXSXmXNXmXNXmX",
"NXNXSXNXvXvXxXFXrX6X#XY.N.' U y % - - - & X .   . . .   .   .   O         . X X & = w 0 J ^ y.Z.|.%XpXgXvXvXNXNXmXNXmXNX",
"NXNXSXNXvXvXFXtX%X$XY.N.' U y * - - % X .   . X       . O   O O O O O O O   . . X X 0 w a J ^ f.L.}.-XpXgXvXFXNXNXmXNXmX",
"NXNXSXNXNXxXtX6X$X_.A.1.U t 3 3 - &               .           O o O       o     X   & = 4 w B y.C.L..X6XpXFXvXNXNXmXNXmX",
"mXSXSXNXSXdX2X$X_.D.8.Q u 1 * 3         O X                           o         &   X & * 1 M 3.h.G.R.-X6XgXxXvXNXNXmXNX",
"NXSXSXNXvXtX%X_.K.8.( M 4 * $ & X         X                                     O   X . @ , 9 U 6.a.P.R.6XpXgXxXNXNXmXmX",
"mXmXSXNXFX5X&XT.N._ N 6 4 = #                               .       X   X           . . O 5 , 9 2.6.x.I.*X9XgXFXNXNXNXNX",
"mXmXvXvXtXOXR.K.2.U t q = X X                                                   X     . . + , l X.9.v.b.^.>XfXzXSXSXFXSX",
"cXmXFXxXrXR.T.B.:.B 4 1 &     o                                 o                     . . + 5 l X.;.9.l.H.;X7XfXNXSXSXFX",
"mXmXlXrX-XR.P.6.R v 2 * .                                                             . . . % l | X.+.&.j.XX8XyXvXNXNXSX",
"mXmXtX=X&XL.B.>.M 9 4 $     O O                                   o                   . . O @ 6 z Z P O.s.E.XX8XfXvXNXmX",
"mXNXrX%XR.P.a.( v 9 2 $     O                                                         . . . + > g b b A q.b.XX0XaXzXmXcX",
"mXNXqX&XR.B.6.E v 6 : + .                                                           .   .   . + , 9 j m &.j.W.XX9XyXcXjX",
"SXFX=X&XI.a.>.G N 6 @ +     .                                                       . .   .   . # 2 e m &.r.J.XX0XaXzXjX",
"SXFX-X&XP.6.@.S N 6 + X X   .                                                             . .   X 3 c m O.r.m. X0XaXkXjX",
"NXwX-X.XP.6.o.C j 6 +       . .                                                         O         * 8 m  .5.U.{.,X9XzXcX",
"NXwX-X.Xc.5.o.C g > +                                                               O O     o     * 8 A o.5.m.[.,XpXcXcX",
"cXwX-X.Xc.7...C g > . O O                                                     O   . o     o       # 9 b o.=.c.!.*XpXmXSX",
"cXeX&X[.c.5.} k < ;                                               X               O     o   o   . $ 6 b P &.v.Q.*XpXSXSX",
"jXqX&X[.z.=. .k < :   o o                                                   O   O o O   o o     O @ 2 c L O.r.Q.%XGXSXSX",
"jXeX*XQ.z.9.} k < @   o o o                                                           o   o o o O @ : 6 v L w.E.=XGXFXFX",
"jXwX,X!.z.=. .z 9 ; o o o X                                                 . O O o o   o o o o + @ > > e J q.Z.$XGXcXSX",
"kXwX0X!.l.-. .C 9 1 O o o o                                               .           o   o o o O @ 1 7 w r q.K.$XGXcXSX",
"jXkX<X[.n.#.Z C j : . O                                                                     .   O - > V m L ,.K.&XsXSXmX",
"jXGX-X.Xn.#.Z Z b > . O o   o                                                               . .   # : B L ^ q.J.>XrXmXmX",
"cXkX4X.Xm.-.} P N 6 + O   o o X                                                                 O . 1 e K q.w.K.4XtXNXmX",
"cXlX6X XU.5. .o.S 6 +       o                                   .   .                         . . . * 3 m s.s.E.4XsXNXmX",
"mXlX6X X!.l.+.@.S 6 + .   o o                                                                   X X 0 = n s.k.~.2XsXSXmX",
"cXsX6X*X!.v.&.O.V 6 + .                                           . .                     O O   X & & 0 J f.Z./.iXFXSXmX",
"cXzX5X,X{.b.>.W N 2 @ # .                                                     o o     o         & q 0 a Q k.~.>XpXFXNXSX",
"mXvX9X,X XJ.4.W v 2 $ $ X . . .                                   .         o   o               0 a 0 H _ S.`.>XhXFXNXNX",
"zXvXgX6X X].g.%.v r 1 @ # .   %                                                 o     O       # 0 H a H i.~.'.aXvXvXNXSX",
"SXvXgX9X0X|.G.2.V e 4 1 + + +                                               o o         . . X * w J H ~ S.'.:XaXvXNXSXSX",
"SXSXvXhX9X,XW.f.^ e 7 r $ @ : .                                         o   o         . . + : 4 a J Y t.~.:X8XyXvXvXSXSX",
"FXNXvXdXpX9X`.Z.s.B 4 r 7 $ # .                                                   . . . @ 1 t 7 J K ^ V.'.8XyXkXvXvXNXSX",
"SXSXSXFXfX9X>XW.Z.,.c w r 7 $ #           O                                       O . @ 2 t v 8 R ! i.E.;X8XzXNXvXvXSXFX",
"SXSXNXNXvXaX1X`.Z.k.W w e M t $ X                                             O . . + , r v M m W <.Z.XX2XuXvXNXvXSXFXSX",
"SXSXNXNXvXfX9XXXE.E.w.R c M M 3 % O                                       O   . + + 2 M B v N E <.d.^.>X7XfXzXNXSXSXSXFX",
"SXFXSXNXvXzX9X0XXXE.Z.q.K e M t 5 - X     . .             o o o             . . : > u S V b K %.j.W. X1XaXxXvXNXSXSXSXSX",
"FXSXNXNXNXNXvXxXhX#X~.Z.y.U c e u y 5 $ @ + . + . .     o o o o o   . . . + @ > 9 N G R N K ,.f.'.XX2XhXzXvXvXvXNXNXNXNX",
"vXNXvXNXNXmXvXvXsX2X#XT.C.<.R n r 8 6 2 > > ; @ + + + .     o o   X + + + @ < b G G G S R %.f.E.oX<XiXgXvXxXvXvXNXNXNXNX",
"vXvXNXvXNXmXmXvXfXfX2X|.^.H.q.R v r M r 9 > < < < < ; ; ; ; @ ; > ; ; > ; < 8 N E G G E _ f.E.XX8XiXfXxXvXxXvXvXNXNXNXNX",
"vXvXvXvXNXNXmXmXxXvXhX$X|./.D.y.! ! V N b b h h h h d d < < < < h g g j c c c c S E ! 3.j.~.`.>XfXzXvXvXxXvXvXvXNXNXNXNX",
"vXvXNXNXNXmXmXNXmXxXsX9X4X#X/.K.H.q.W W &.&.o.C C z f f f f k x C C A A A m m A ! :.h.K._.$X3X7XgXxXxXvXvXvXvXvXNXNXNXNX",
"vXvXvXNXNXNXNXmXvXzXzXvXgX1X$X&XW.b.d.w.<.4.&.+.$.} | x z z x } } +.+.O.P L W ,.y.g.T.`.$X2XsXvXzXvXzXvXvXvXvXvXNXNXNXNX",
"vXvXNXNXNXNXmXmXmXcXvXvXvXdXqX5X/.].^.P.d.6.6.e.6.7.#.+.} } ..#.=.5.5.4.%.^ q.k.T._.$X4XqXwXFXmXvXvXvXvXvXvXvXNXNXNXNXNX",
"vXvXNXNXNXNXmXNXmXmXcXzXFXzXlXhX9X0X|.}.].L.G.v.l.6.a.v.9.5.e.l.5.7.4.r.s.j.E.^.`.$X5XdXvXNXSXSXvXvXvXvXNXNXvXvXNXNXNXNX",
"vXvXNXNXNXmXNXmXNXmXmXNXNXNXNXNXgXpXpX4X,X|.|.].].Q.L.H.b.j.b.b.P.I.I.^.^.`.;X:XyXsXgXvXvXSXvXvXvXNXNXNXNXNXNXNXNXNXNXNX",
"NXSXNXNXNXNXNXmXmXNXNXmXmXmXmXNXvXxXFXpX5X5X>X,X#X|.|././././.`..X.X%X,X8X8X8XyXfXzXxXvXvXNXSXvXvXNXNXNXNXNXNXNXNXNXNXNX",
"NXNXNXNXNXNXNXNXNXmXmXNXmXNXNXmXNXNXNXvXxXzXfXaX7X7X8X8X8X8X8X7X5XpXgXfXfXkXkXcXcXvXNXvXvXvXvXvXNXNXNXNXNXNXNXNXNXNXNXNX",
"NXNXNXNXNXNXNXNXNXNXNXmXNXmXNXNXmXmXmXmXmXcXvXzXfXyXyX7X7XyX7XyXsXFXxXzXkXjXjXcXmXNXNXNXvXvXvXvXNXNXNXNXNXNXNXNXNXNXNXNX"
};
