/* XPM */
static char *_6ece7e35c5849a8ed75e0f5e8bf841dmueHkxcxLjEWaoJB[] = {
/* columns rows colors chars-per-pixel */
"60 60 186 2 ",
"   c #010000",
".  c #0E0A08",
"X  c #0A0706",
"o  c #140F0B",
"O  c #261E17",
"+  c #2B211A",
"@  c #2E2C2B",
"#  c #3A2E23",
"$  c #3D3025",
"%  c #7F3D19",
"&  c #47382A",
"*  c #5F4C39",
"=  c #5B4837",
"-  c #604D3A",
";  c #724948",
":  c #714846",
">  c #775F47",
",  c #7F6C7E",
"<  c #941A1B",
"1  c #813F1C",
"2  c #BF2A23",
"3  c #A02221",
"4  c #DD181E",
"5  c #DD1E25",
"6  c #D91F28",
"7  c #E01E25",
"8  c #DD2127",
"9  c #D2232E",
"0  c #DF262B",
"q  c #DF282C",
"w  c #CE2838",
"e  c #D82933",
"r  c #C5322A",
"t  c #E2393F",
"y  c #E0262B",
"u  c #82411F",
"i  c #854422",
"p  c #884A28",
"a  c #975834",
"s  c #965A38",
"d  c #91532F",
"f  c #9C603C",
"g  c #A3663F",
"h  c #D1443D",
"j  c #BC2D44",
"k  c #B42E48",
"l  c #B4314A",
"z  c #AF304B",
"x  c #983B62",
"c  c #E23941",
"v  c #945D40",
"b  c #9C694E",
"n  c #956E59",
"m  c #AB714A",
"M  c #AB7655",
"N  c #B55C69",
"B  c #836469",
"V  c #A97C63",
"C  c #D1474D",
"Z  c #E24548",
"A  c #E24846",
"S  c #E65F4D",
"D  c #E45248",
"F  c #E65E5D",
"G  c #DF6557",
"H  c #E56252",
"J  c #E86E5A",
"K  c #E65E62",
"L  c #E76266",
"P  c #E86367",
"I  c #E97967",
"U  c #E77379",
"Y  c #D26B63",
"T  c #FFEE1C",
"R  c #DFD139",
"E  c #DFD136",
"W  c #D7C93F",
"Q  c #F7E424",
"!  c #BD855B",
"~  c #BCB350",
"^  c #B5AD56",
"/  c #AD8966",
"(  c #BC936D",
")  c #B48C71",
"_  c #A6A161",
"`  c #C2B94F",
"'  c #C89066",
"]  c #CB9469",
"[  c #D29B6E",
"{  c #D49E71",
"}  c #EA8B70",
"|  c #D9A476",
" . c #EEA17A",
".. c #59549B",
"X. c #674F8E",
"o. c #624D91",
"O. c #635091",
"+. c #734A85",
"@. c #5A629D",
"#. c #57639F",
"$. c #747A8A",
"%. c #656D95",
"&. c #4A57A6",
"*. c #4C59A7",
"=. c #4B59A9",
"-. c #4857A9",
";. c #5257A2",
":. c #535FA1",
">. c #5561A0",
",. c #5561AC",
"<. c #7673A1",
"1. c #6C76B5",
"2. c #686AA2",
"3. c #9F7F8D",
"4. c #7A84BF",
"5. c #7D87C0",
"6. c #928C94",
"7. c #B89486",
"8. c #AF9493",
"9. c #BC9D93",
"0. c #BFA192",
"q. c #B5A290",
"w. c #B2A0A7",
"e. c #E88685",
"r. c #E99193",
"t. c #EB9798",
"y. c #EA9C9D",
"u. c #DDAE81",
"i. c #C1A596",
"p. c #C9AC9F",
"a. c #DFAA91",
"s. c #E3B385",
"d. c #EDBB8A",
"f. c #E9B584",
"g. c #F0BD8B",
"h. c #CCB7AB",
"j. c #D1BDB3",
"k. c #EBA6A7",
"l. c #EAB0AF",
"z. c #ECBDBD",
"x. c #ECB4B5",
"c. c #F3C18E",
"v. c #D6C6BD",
"b. c #F3CDA9",
"n. c #F2C5A5",
"m. c #F1D6BC",
"M. c #F3D4B6",
"N. c #EBCAB6",
"B. c #B5B9D4",
"V. c #ECBFC0",
"C. c #D8CAC1",
"Z. c #DCD9D7",
"A. c #C3C6DB",
"S. c #F3DCC6",
"D. c #ECD5D5",
"F. c #E4DCDA",
"G. c #EBDEDD",
"H. c #E8DAD5",
"J. c #EEDCCC",
"K. c #E4E0DE",
"L. c #ECE2DB",
"P. c #F2E4D6",
"I. c #F4E0CE",
"U. c #DDDFE6",
"Y. c #E5E4E5",
"T. c #E8E6E5",
"R. c #EBE8E7",
"E. c #E5E6E8",
"W. c #E6E9E9",
"Q. c #EFEFEF",
"!. c #EEEEEE",
"~. c #EDEDEE",
"^. c #EDEDED",
"/. c #EEF0F0",
"(. c gray94",
"). c #F1F1F1",
"_. c #F0F1F1",
"`. c gray95",
"'. c #F3F3F3",
"]. c #F2F3F3",
"[. c #F1F2F2",
"{. c #F4F4F4",
"}. c gray96",
"|. c #F6F6F6",
" X c #F3F3F3",
".X c #F8F8F8",
/* pixels */
".X!.}.!.}.!.}.!.}.(.}.(.}.(.}.(.}.(.{.^.T.W.W.^.W.W.W.W.W.^.W.W.E.^.E.^.E.{.!.|.!.}.!.|.~.|.~.}.~.|.~.|.~.}.~.|.!.|.!.|.",
"!.}.!.}.).}.).}.(.{.(.{.(.{.(.{.).{.).!.D.y.t.t.t.t.t.t.t.t.t.t.t.t.t.y.G.^.|./.}./.}./.}.!.}.`.}.`.}.(.}.`.}.(.|.(. X!.",
"}.).}.).}.).}.).}.).{.).{.(.{.).].].{.!.l.8 5 5 5 5 5 5 5 5 5 5 5 5 5 0 z./.).{.).}.!.}.!.}.(.}.(.}.(.}.(.{.(.{.!.{. X{.",
").).).}.).).).).).{.).{.).{.).{.)./.].~.l.0 5 5 8 5 5 5 5 8 5 5 5 5 5 q z.^.{./.).).).).`.`. X`.`.`.`.`. X`. X`. X X X(.",
").).).).).).).).).).).).].).].].!.T.G.G.k.0 8 5 8 5 5 5 5 5 8 5 5 8 5 0 x.F.G.H.L.H.G.F.G.F.W. X`.`. X X`.`.`.`. X X X X",
"}.).}.).}.).}.).{.).{.).{.).].).!.l.Z Z c 5 5 8 5 5 5 5 5 6 8 5 8 5 8 8 c Z Z Z Z Z Z Z Z k.^.}.`. X`. X`. X`. X(. X(. X",
").{.(.{.).}.).}.).{.(.{.).{.).{.!.y.5 5 5 5 8 5 8 6 5 5 5 5 5 8 5 5 5 5 5 5 5 4 6 5 5 4 5 r.~.`.{.`.{.(.{.(. X(.{. X}.!.",
"}.!.}.!.}.!.}.!.}.(.{.(.{.(.{.)./.y.5 5 5 5 5 7 5 7 5 5 5 5 5 5 7 7 8 7 5 5 5 5 5 5 4 5 4 r.W.}.!.{.(.}.!.{.!.{.(.{.(.{.",
"!.}.(.}.).}.!.}.(.}.(.}.(.{.(.{.~.y.2 2 r 2 2 2 r 2 r A D D D D D 3 < < h S D F L L L L L x.).!.|.(.}.!.|.!.|.!.|.(.|.!.",
".X(.}.!.}.!.}.(.}.(.}.(.{.(.{.).[.p.u u 1 u u u u % a f.g.g.g.g.| +   . ( g.d.P.T.R.T.T.T.R.W..X!.|.(.}.!.}.!.}.!.|.!.|.",
"!.}.).}.!.}.!.}.(.}.(.{./.{.~./.~.p.1 u 1 u u u u % s f.g.g.g.g.u.+   . ( c.g.J.!.W.{.^.{.^.}.!.}.(.}.!.}.(.|.!.{.(.{.!.",
"}.(.}.).}.(.}.).{.(.{.).{.E.E.Y.E.p.i i i u u i i i s f.g.g.g.g.u.+   . ( c.g.P.^.T.R.T.T.Y.W.}.(.}.(.{.(.{.(. X(. X`.|.",
"(.{.).{.).).).{.).).).{.).!.j.M V / [ { ! i 1 a { { | g.g.d.g.g.u.+   . ( c.c.n.b.b.b.b.b.I.^.).{.`. X`. X`. X`. X X X`.",
").).).).{.).).).{.).).).).^.0.% % m g.g.{ i 1 f d.g.g.g.g.g.g.g.u.+   . ( c.d.c.g.d.g.d.d.m.W.'.`.`. X X`.`. X X X X X X",
"}.).}.).}.).).).{.).).).).^.0.1 1 m g.g.{ i i s d.g.g.g.g.g.g.g.| +   . ( c.c.c.g.g.d.g.g.S.W./.W. X X X(. X X X!. X(. X",
"!.}.).{.).{.).}.(.{.).}.).).0.1 1 M g.g.{ i 1 a [ { | d.g.g.g.g.s.* # & n / /  .g.g.g.g.d.M.P.J.L.W.}.(. X(. X(.{. X{.(.",
"|.(.}.(.{.(.{.(.}.(.}.(.}.W.i.1 1 m g.c.{ p 1 u p u a f.g.g.g.g.g.d.f.s.$   X / g.g.g.g.d.c.c.c.m.(.(.{.(.{.(.{.(.{.(.}.",
"!.}.(.}.(.{.(.{.(.}.(.}.).!.0.1 1 m g.g.{ u u u u 1 a f.g.g.g.g.g.g.g.s.#   X / c.g.g.d.c.d.d.d.m.W.|.(.}.(.{.(.}.(.{.(.",
"|.(.}.(.{.(.}.(.}.(.}.(.}.W.i.1 u m g.c.{ p u 1 u 1 a f.g.g.g.g.g.g.g.f.#   X / c.g.g.g.c.d.c.d.m.~.(.{.(.{.(.{.(.{.(.}.",
"!.{.(.}.(.{.(.}.(.}.(.{.).(.0.1 u d m m M ' ' ' ' ' [ g.g.g.g.g.s.> - = o     & - * - * * q.I.I.L.R.}.(.}.(.{.(.{.(.{.(.",
"}.(.}.(.{.(.{.(.{.(.{.(.].^.9.1 u % u % b d.g.g.g.g.g.g.g.g.d.g.u.O                       6.W./.R.!.`.].(.{.(.{.(.{.).{.",
"(.{.(.{.).{.).{.).{.(.{.`.!.0.1 u u % % g d.g.g.g.g.g.g.g.g.g.g.u.O                       6././.|._.].].{.(.{.(.{.(.{.).",
"{.).{.).).).{.).{.).).).].~.p.v v v v v M d.g.g.g.g.g.g.g.g.g.g.u.& O + + + + + + + @ @ @ w.W.[.(.].].].).{.{.).).).{.).",
"{.(.{.).{.(.{.).{.).{.).].E.K.F.Z.F.Z.F.S.g.g.g.g.g.g.g.g.g.g.g.g.s.s.u.u.s.u.u.u.u.C.Z.Z.Z.W.[.(.{.(.{.(.{.(.{.).{.).{.",
"(.{.(.{.(.{.(.{.`.{.(.{.`.{.(.`.(.].(.^.G.g.g.g.g.g.d.g.g.g.g.g.g.g.g.g.g.g.g.g.g.g.J.^.].!.}.!.}.(.{.(.{.(.{.(.{.).{.(.",
"|.!.}.(.}.(.}.!.{.(.{.(.{.(.{.`.(.Y.W.Y.P.c.g.g.g.g.d.d.g.g.d.c.g.g.g.g.g.g.g.g.g.g.J.].!.|.!.}.(.}.(.{.(.{.(.}.(.{.(.}.",
"!.}.(.}.(.{.(.{.(.{.(.{.(.{.(.{.^.V.U U U H H Y 6.3.3.F H H H H H H H H x.S.S.S.S.S.L.^.|.!.|._.|.(.{.(.{.(.}.(.{.(.{.(.",
"|.(.}.!.}.(.{.(.{.(.{.(.{.(.{.(.].y.4 4 5 5 6 2 ;.&...9 5 5 5 5 6 7 6 y N.(.R.~.T.(.E.{.!.|.!.|.!.|.(.{.(.{.(.{.(.{.(.}.",
"!.{.(.}.(.{.(.{.(.{.(.{.(.(.^.!.W.y.5 5 5 5 5 j *.=.O.9 5 5 5 5 7 7 5 q V.W.(.R.(.W.).^./.^.{.!.{.(.{.(.{.(.{.(.}.(.{.(.",
"}.(.{.(.{.(.{.(.{.(.{.(.{.E.G.D.G.r.5 5 8 5 7 j ;.=.O.9 5 5 5 8 6 w w w x.D.D.D.D.D.D.D.D.G.E.|.(.{.(.{.(.{.(.{.(.{.).{.",
").{.).{.).).).{.`.{.(.]. X~.k.t c e 5 5 5 8 8 j ;.=.O.9 5 8 8 5 9 +...o.C c t t c c c c c y.~.`.{.(.{.(.{.(.{.(.{.(.{.(.",
").).).).{.{.).).`.`.`.].`.^.r.7 8 5 8 5 8 8 7 j ;.=.O.9 8 5 8 5 9 o.-.;.k 6 5 5 5 5 5 5 5 r.^.(.{.{.(.{.(.{.(.{.).].).].",
"{.).{.).{.(.{.).{.).^.E.~.E.t.6 5 8 8 8 8 8 6 j ;.=.O.e 7 7 5 7 9 O.=.;.j 7 7 6 7 6 5 5 6 t.E.(.Y.!.).{.).{.).{.(.{.).{.",
"(.{.(.{.(.{.(.{.(.{.E.V.e.r.K 6 8 5 4 8 8 5 7 j ;.=...x x x x x x ..*.;.j 7 6 7 5 7 5 5 6 K r.r.z.^.{.(.{.(.{.(.{.(.{.(.",
"}.(.}.(.{.(.{.(.}.(.).} 4 7 7 6 5 8 8 5 5 8 5 l ;.*.&.=.=.=.=.=.=.*.*.;.j 7 7 6 6 6 7 7 5 5 4 4 U !.).}.(.}.(.{.(.{.(.{.",
"!.}.(.{.(.{.(.{.(.}.E.e.5 7 6 7 8 8 5 8 8 5 5 2 ;.-.*.=.*.*.=.*.*.&.=.;.j 7 6 7 7 7 0 6 5 5 5 5 e.^.}.).{.(.}.(.}.(.{.(.",
"|.(.}.(.}.(.{.(.{.(.(.e.7 0 0 y q 0 8 5 4 9 9 z @.>.>.*.*.*.*.*.*.>.#.@.l 9 9 6 5 8 8 0 y y 0 8 e.!.!.}.!.|.!.|.(.{.(.}.",
"!.}.(.{.(.{.(.{.(.{.R.N. . . . . .H 5 5 k o.o.3.W R ` >.=.*.*.*.>.` R W B X.O.j 4 8 J  . . . . .N.E.|.!.}.(.|.!.{.(.{.(.",
"}.(.}.(.{.(.{.(.{.].(.m.g.g.g.g.c.} 5 5 z &.-.$.Q T R @.=.*.*.=.@.R T Q $.-.=.z 7 8 } g.c.g.g.g.m.^.(.|.(.{.!.{.(.{.).}.",
"(.{.).{.).{.).{.(.{.W.m.g.g.d.g.c.I 4 4 z &.*.$.Q T R @.=.*.*.&.#.E T Q $.-.=.l 4 5 I c.d.g.g.g.m.^.{.(. X`. X(.{.(.{.(.",
"{.).).{.{.].).].{.(.^.m.d.g.g.d.g. .D S N *.*.%.^ ~ _ :.*.*.*.*.#._ ~ ^ %.=.;.N S S } c.c.c.d.d.m.^.`. X X`. X`. X X X X",
"{.(.{.).{.(.{.).{.(.!.m.g.g.g.g.g.g.g.g.9.*.*.*.*.*.*.*.*.=.*.*.=.*.*.=.*.*.*.9.c.g.g.g.c.d.g.g.m.~.(. X(. X X X). X). X",
"!.{.(.{.(.{.(.{.(.{.R.m.g.g.g.g.g.g.g.g.9.*.*.*.*.*.=.*.*.*.*.*.=.=.*.*.*.*.*.9.g.g.g.g.g.g.g.g.M.E.|.!. X(.{.(. X).}.!.",
"|.(.{.(.{.!.{.(.{.(.(.m.d.g.g.g.g.g.g.g.9.*.*.*.&.*.*.*.*.*.*.*.*.*.*.*.*.*.*.9.g.d.d.g.g.g.d.g.S.!.!.|.!.|.!.|.). X!.}.",
"^.|.(.}.(.{.(.{.(.}.T.m.g.g.g.g.g.i.<.<.2.*.*.*.*.*.*.*.*.*.*.*.*.*.*.*.*.*.*.2.<.<.0.c.g.g.g.d.m.E.|.!.|.!.}.!.}.).}.!.",
"|.(.}.(.}.(.{.(.}.(.(.m.d.g.g.g.c.8.&.&.*.=.*.*.*.*.*.*.&.&.*.=.*.*.*.=.=.*.*.*.&.&.8.c.g.g.g.g.m.^.!.|.!.|.!.|.!.|.!.|.",
"(.{.(.{.(.{.(.{.(.}.T.m.d.g.d.d.g.8.*.=.*.*.*.*.*.*.=.&.&.&.&.-.&.*.*.*.*.*.*.=.=.=.8.c.c.c.g. .m.^.}.!.|.).}.!.}.).}.!.",
"}.(.{.(.{.(.{.(.{.(.(.S.n.b.b.b.b.w.*.*.*.*.=.*.*.=.=.5.5.5.5.5.4.,.=.*.*.*.*.*.=.=.q.b.b.b.b.b.S.^.).}.). X).}.!. X).}.",
"(.{.(.{.(.{.(.{.(.{.^.R.R.R.R.R.R.B.*.*.*.*.*.*.*.*.1.U.E.E.R.Y.U.1.&.*.*.*.*.*.=.*.B.R.^.T.^.T.R.R. X`. X`. X`. X). X).",
"{.).{.).).{.).(.].].(.(.`.!.~.~.^.B.*.*.*.*.*.*.*.*.1.Y.!.!.(.(.U.1.&.*.*.*.*.*.=.;.B.!.!.!.(.(.(.`.`.`.`.`.`.`. X X X X",
"{.(.{.(.{.).{.(.{.(.].].].^.R.E.W.B.&.&.*.&.&.;.*.*.1.E.).{.).).Y.1.=.:.;.*.*.*.;.;.B.(.T.R.^. X`.{.`. X`. X(. X X X X X",
"(.{.(.{.(.{.(.{.(.{.`.{.`.~.j.V V n ; ; ; ; ; B B.B.A.Y.).).}.!.Y.A.B.B.B : : : ; ; b V V j.~.(. X`. X`. X`.{.(. X).}.!.",
"|.(.{.(.}.(.{.(.}.(.}.!.].^.9.% 1 1 u u u u 1 b F.!.R.W.(.{.(.{.R.^.R.K.b 1 u u 1 1 1 1 % 9.^.|.!.}.(.}.!.}.!.}.!.}.).}.",
"^.}.(.}.(.{.(.{.!.|.~.`.^.].i.u u u u u u u 1 b Y.(.{.).{.).{.(.|.!.|.K.b u u u - i 1 1 1 0.!.!. X~.|.!.}.!.|.!.}.).}.!.",
"|.(.}.(.}.(.{.(.|.!.(.Z.C.C.) u u u u u u u 1 b F.].(.{.).{.(.{.!.|.!.K.b 1 u u i % i i u ) C.v.F.W.!.|.(.}.!.}.!.|.!.|.",
"^.{.(.{.(.{.(.{.!.{.R.7.i p i u u u u u u 1 1 b T.(.{.(.{.).{.(.|.!.'.K.b 1 u u % i % % i p p i 7.^.|.!.}.!.}.(.|.!.}.!.",
"|.(.{.(.{.(.{.(.{.(.(.7.1 1 u u u u u u 1 i 1 b F.(.(.{.).{.(.{.`.'.!.K.b 1 u u u u u u i 1 i 1 7.^.!. X!.}.). X!.}.). X",
"(.{.(.{.(.{.(.{.(.{.W.7.1 1 1 1 1 1 u 1 1 1 % b Y.(.{.).).].{.).'.'.'.K.b 1 1 1 1 1 1 u 1 1 1 % 7.^. X X X). X X X X X X",
"{.(.).{.{.(.(.{.(.{.^.C.i.i.i.i.i.i.i.i.i.i.i.h.T.(.).).].).).].'.'.'.R.h.i.i.i.i.i.i.i.i.i.i.i.C.^. X X X X X X X X X X",
"{.(.{.(.{.(.{.(.{.(.(.Y.^.W.^.W.^.W.^.R.^.W.^.W.R.{.(.{.).].).].!.}.!.W.W.W.^.^.W.!.W.W.W.^.W.^.E.!.(.{.). X!. X). X). X"
};
