<?xml version="1.0" encoding="UTF-8"?><svg id="Calque_1" xmlns="http://www.w3.org/2000/svg" viewBox="0 0 778.992 204.161"><path d="M106.294,11.059l-5.603,25.94h-53.432l-2.522,11.361h45.855l-5.193,24.542h-45.855l-2.385,11.361h54.973l-5.752,26.642H0L21.307,11.059h84.987Z" fill="#fff"/><path d="M172.908,64.628l11.355-53.569h30.847l-21.318,99.846h-29.718l-20.759-53.01-11.355,53.01h-30.859L122.42,11.059h29.033l21.455,53.569Z" fill="#fff"/><path d="M227.025,11.059h89.062l-5.752,26.922h-28.759l-15.555,72.925h-31.418l15.566-72.925h-28.885l5.74-26.922Z" fill="#fff"/><path d="M413.547,36.303c0,14.3-7.623,23.886-22.859,28.748,7.019,3.27,10.511,9.301,10.511,18.088,0,1.027-.091,2.756-.274,5.187l-2.237,22.579h-30.859l2.237-19.635c.194-2.054.285-3.504.285-4.342,0-7.292-3.686-10.939-11.081-10.939h-13.74l-7.429,34.916h-31.418l21.318-99.846h55.395c9.541,0,16.936,2.265,22.231,6.802,5.272,4.536,7.92,10.682,7.92,18.442ZM350.3,53.832h17.803c3.743,0,6.802-1.101,9.198-3.298,2.374-2.197,3.561-4.93,3.561-8.205,0-4.953-2.899-7.429-8.685-7.429h-17.815l-4.063,18.933Z" fill="#fff"/><path d="M550.837,11.059h48.799c10.476,0,18.534,2.665,24.194,7.994,5.66,5.33,8.491,12.434,8.491,21.312,0,12.622-4.074,22.488-12.211,29.592-8.32,7.201-19.31,10.796-32.959,10.796h-19.766l-6.448,30.151h-31.418l21.318-99.846ZM572.429,56.914h13.74c9.723,0,14.585-4.439,14.585-13.318,0-5.141-3.355-7.715-10.088-7.715h-13.74l-4.496,21.033Z" fill="#fff"/><path d="M663.168,110.905h-31.418l21.318-99.846h31.407l-21.307,99.846Z" fill="#fff"/><path d="M778.992,110.905h-31.817l-1.552-13.603h-31.407l-7.304,13.603h-33.929l58.625-99.846h30.984l16.399,99.846ZM733.845,61.125l-8.126,15.001h17.381l-1.678-15.001-.981-13.467-6.596,13.467Z" fill="#fff"/><path d="M450.122,114.867c-3.009-2.087-5.901-4.626-8.668-7.616-2.717-2.935-5.648-6.908-8.71-11.811-8.563-14.314-11.971-28.812-10.134-43.094,1.775-14.344,8.564-27.1,20.181-37.914C453.039,4.892,464.079.037,475.607,0c11.398-.046,21.824,4.955,31,14.868,2.722,2.94,5.652,6.913,8.71,11.811,8.424,14.327,11.87,28.792,10.245,42.998-1.639,14.213-8.466,27-20.291,38.01-10.182,9.48-21.188,14.301-32.71,14.332-8.028.032-15.54-2.368-22.439-7.153ZM497.63,7.37c-6.82-4.729-14.191-7.101-22.022-7.071-11.45.036-22.422,4.865-32.614,14.352-11.563,10.765-18.32,23.46-20.087,37.732-1.829,14.214,1.567,28.649,10.092,42.902,3.051,4.883,5.969,8.842,8.673,11.763,9.052,9.779,19.442,14.718,30.887,14.673,11.445-.031,22.382-4.826,32.508-14.252,11.771-10.96,18.565-23.686,20.196-37.825,1.618-14.14-1.815-28.544-10.203-42.81-3.045-4.877-5.963-8.836-8.672-11.763-2.805-3.03-5.728-5.599-8.759-7.701ZM469.687,88.154c-1.626-1.127-3.241-2.556-4.839-4.283-1.797-1.941-3.928-4.836-6.333-8.603-5.006-8.152-7.546-15.719-7.551-22.49.004-6.776,2.541-12.572,7.543-17.228,3.772-3.512,7.82-5.097,12.03-4.71,4.216.382,8.446,2.839,12.579,7.303,1.731,1.87,3.827,4.728,6.231,8.493,10.426,16.926,10.497,30.362.211,39.937-3.775,3.515-7.841,5.08-12.085,4.653-2.603-.254-5.208-1.283-7.787-3.072ZM478.135,34.127c-2.534-1.758-5.084-2.759-7.624-2.989-4.123-.378-8.092,1.18-11.8,4.631-4.938,4.597-7.444,10.32-7.447,17.009.004,6.716,2.53,14.23,7.505,22.332,2.394,3.751,4.514,6.632,6.298,8.559,4.083,4.41,8.269,6.853,12.436,7.26,4.156.418,8.143-1.121,11.853-4.574,5.082-4.731,7.638-10.45,7.6-16.999-.039-6.565-2.684-14.155-7.861-22.56-2.392-3.749-4.478-6.592-6.196-8.449-1.577-1.703-3.168-3.111-4.764-4.218Z" fill="#fff"/><path d="M448.361,114.104c-2.804-1.945-5.511-4.285-8.115-7.018-3.133-3.287-6.096-7.583-8.808-12.768-7.612-13.553-10.36-27.652-8.164-41.9,2.131-13.832,8.451-25.471,19.32-35.582,10.381-9.608,21.477-14.588,32.98-14.801,11.273-.215,21.651,4.573,30.856,14.231,3.133,3.287,6.094,7.581,8.802,12.763,7.512,13.62,10.295,27.691,8.271,41.818-1.93,13.477-8.464,25.478-19.42,35.67h0c-10.323,9.562-21.388,14.509-32.89,14.704-8.15.151-15.797-2.238-22.832-7.116ZM497.885,9.216c-6.908-4.791-14.276-7.062-22.307-6.907-11.434.211-22.469,5.166-32.799,14.727-10.822,10.067-17.115,21.653-19.236,35.423-2.186,14.187.551,28.226,8.135,41.729,2.701,5.166,5.65,9.44,8.765,12.709,9.083,9.536,19.425,14.259,30.743,14.049,11.433-.193,22.437-5.116,32.708-14.63,10.909-10.148,17.415-22.095,19.336-35.508,2.016-14.067-.758-28.081-8.242-41.651-2.698-5.161-5.644-9.433-8.759-12.703-2.713-2.848-5.49-5.258-8.345-7.238ZM467.538,87.978c-1.476-1.023-2.935-2.299-4.374-3.823-1.867-1.976-3.851-4.792-6.07-8.608-4.462-7.679-6.609-14.951-6.381-21.613.224-6.534,2.679-11.893,7.505-16.382,4.566-4.215,9.042-5.897,13.684-5.144h0c4.419.717,8.383,3.213,11.784,7.419,1.468,1.816,3.064,4.528,5.173,8.793,9.413,15.666,9.276,28.184-.413,37.201-4.022,3.725-8.26,5.486-12.596,5.234-2.804-.155-5.585-1.187-8.312-3.078ZM471.859,32.678h0c-4.555-.738-8.956.921-13.455,5.075-4.769,4.436-7.196,9.733-7.418,16.191-.225,6.609,1.909,13.831,6.344,21.465,2.177,3.745,4.206,6.624,6.031,8.557,4.049,4.287,8.254,6.579,12.502,6.816,4.26.247,8.43-1.489,12.395-5.161,4.79-4.457,7.251-9.813,7.313-15.918.063-6.117-2.276-13.167-6.954-20.951-2.104-4.257-3.691-6.953-5.147-8.753-3.355-4.152-7.264-6.612-11.613-7.321Z" fill="#fff"/><path d="M446.734,113.498c-2.633-1.826-5.194-4.017-7.696-6.576-3.51-3.591-6.505-8.208-8.905-13.723-6.811-13.029-8.84-26.347-6.197-40.709,2.404-13.064,8.442-23.941,18.46-33.251,10.513-9.676,21.663-14.779,33.143-15.169,11.344-.393,21.387,4.056,30.711,13.592,3.505,3.586,6.497,8.2,8.893,13.714,6.716,13.089,8.777,26.384,6.301,40.639-2.242,12.911-8.31,23.814-18.551,33.331h0c-10.459,9.645-21.583,14.717-33.066,15.075-8.365.278-15.989-1.997-23.091-6.922ZM498.279,11.175c-7.046-4.887-14.551-7.14-22.732-6.856-11.418.387-22.515,5.469-32.983,15.101-9.976,9.273-15.99,20.105-18.383,33.114-2.632,14.305-.612,27.571,6.177,40.557,2.39,5.495,5.369,10.088,8.857,13.656,9.196,9.413,19.207,13.802,30.602,13.424,11.42-.357,22.492-5.408,32.905-15.008h0c10.2-9.48,16.243-20.337,18.476-33.192,2.467-14.2.412-27.444-6.281-40.49-2.388-5.493-5.362-10.081-8.846-13.646-2.539-2.599-5.133-4.817-7.792-6.661ZM465.413,87.832c-1.332-.924-2.645-2.056-3.935-3.394-1.844-1.913-3.688-4.65-5.805-8.61-3.973-7.438-5.678-14.222-5.212-20.736.442-6.196,2.884-11.278,7.465-15.538,5.331-4.894,10.348-6.718,15.336-5.577l-.028.121.028-.121c4.515,1.031,8.212,3.565,10.988,7.535,1.584,2.262,2.914,5.708,4.115,9.093,8.417,14.428,8.071,26.03-1.034,34.465-4.25,3.936-8.66,5.894-13.108,5.816-3.002-.046-5.951-1.071-8.811-3.054ZM479.342,36.9c-1.829-1.269-3.878-2.165-6.134-2.68-4.903-1.121-9.846.684-15.112,5.516-4.532,4.215-6.948,9.244-7.387,15.374-.461,6.466,1.234,13.205,5.185,20.602,2.105,3.94,3.937,6.658,5.764,8.554,4.007,4.162,8.239,6.307,12.571,6.372,4.382.077,8.734-1.857,12.936-5.749,9.007-8.344,9.336-19.844.978-34.178-1.205-3.39-2.527-6.816-4.093-9.055-1.353-1.932-2.925-3.519-4.706-4.755Z" fill="#fff"/><path d="M444.971,112.78c-2.439-1.692-4.817-3.699-7.143-6.024-3.872-3.873-6.9-8.81-8.998-14.675-5.933-12.321-7.318-25.251-4.232-39.518,2.656-12.277,8.413-22.391,17.6-30.921,10.647-9.743,21.853-14.971,33.308-15.536,11.285-.566,21.279,3.671,30.566,12.955,3.864,3.864,6.885,8.796,8.981,14.66,5.842,12.379,7.261,25.29,4.332,39.462-2.507,12.134-8.291,22.272-17.682,30.993h0c-10.599,9.726-21.784,14.923-33.245,15.446-8.524.408-16.273-1.839-23.485-6.841ZM498.671,13.108c-7.168-4.971-14.809-7.197-23.155-6.78-11.401.564-22.559,5.771-33.166,15.479-9.152,8.497-14.887,18.573-17.533,30.804-3.075,14.216-1.696,27.098,4.219,39.384,2.092,5.844,5.102,10.754,8.952,14.603,9.151,9.154,19.117,13.341,30.458,12.799,11.407-.521,22.545-5.697,33.103-15.387,9.356-8.687,15.118-18.786,17.616-30.873,2.917-14.123,1.505-26.988-4.32-39.331-2.088-5.842-5.092-10.746-8.934-14.587-2.364-2.365-4.774-4.4-7.24-6.111ZM463.373,87.778c-1.208-.838-2.398-1.855-3.58-3.058-1.834-1.865-3.594-4.601-5.539-8.61-3.426-7.067-4.749-13.563-4.046-19.86.654-5.851,3.084-10.658,7.428-14.695,6.122-5.594,11.677-7.559,16.986-6.01l-.031.108.031-.108c4.58,1.337,7.914,3.839,10.195,7.65,1.302,2.175,2.161,5.321,3.05,9.376,7.415,13.201,6.86,23.881-1.649,31.747-4.488,4.148-9.072,6.301-13.622,6.398-3.228.074-6.275-.892-9.225-2.937ZM474.56,35.76c-5.226-1.526-10.713.423-16.771,5.96-4.303,3.998-6.709,8.759-7.357,14.555-.699,6.253.617,12.709,4.025,19.737,1.933,3.987,3.68,6.705,5.496,8.552,4.02,4.086,8.154,6.03,12.639,5.927,4.495-.096,9.028-2.228,13.475-6.339,8.426-7.788,8.964-18.382,1.598-31.487l-.013-.031c-.885-4.041-1.739-7.173-3.027-9.326-2.251-3.759-5.543-6.232-10.065-7.548h0Z" fill="#fff"/><path d="M442.93,111.842c-2.17-1.505-4.27-3.253-6.31-5.251-4.229-4.139-7.288-9.397-9.094-15.626-5.156-11.786-5.877-23.969-2.266-38.328,2.881-11.465,8.357-20.817,16.739-28.591,10.781-9.812,22.043-15.163,33.471-15.905,11.252-.738,21.201,3.291,30.421,12.318,4.216,4.128,7.268,9.378,9.069,15.604,5.073,11.843,5.825,24.012,2.365,38.286-2.747,11.336-8.247,20.709-16.814,28.655h0c-11.062,10.105-22.309,15.427-33.426,15.817-8.975.316-16.943-1.976-24.155-6.978ZM499.056,15.017c-7.276-5.046-15.05-7.238-23.572-6.679-11.383.74-22.603,6.073-33.35,15.853-8.352,7.747-13.808,17.067-16.68,28.493-3.6,14.314-2.881,26.456,2.26,38.212,1.801,6.208,4.843,11.437,9.045,15.551,8.78,8.595,18.7,12.582,30.319,12.173,11.068-.388,22.272-5.693,33.298-15.764h0c8.537-7.918,14.017-17.259,16.755-28.556,3.45-14.229,2.7-26.359-2.359-38.172-1.795-6.204-4.829-11.426-9.02-15.529-2.188-2.142-4.418-4.003-6.697-5.583ZM461.303,87.699c-1.081-.75-2.145-1.647-3.195-2.695-1.877-1.872-3.503-4.529-5.271-8.613-2.89-6.669-3.831-12.878-2.88-18.982.858-5.5,3.275-10.03,7.39-13.852,6.932-6.315,13.027-8.423,18.634-6.445,4.555,1.609,7.542,4.074,9.401,7.765,1.151,2.284,1.629,5.518,1.991,9.669,6.41,11.957,5.647,21.719-2.266,29.02-4.725,4.359-9.482,6.707-14.137,6.979-3.425.205-6.615-.73-9.665-2.846ZM475.948,37.206l-.033.094c-5.531-1.951-11.56.144-18.433,6.403-4.08,3.79-6.478,8.283-7.328,13.736-.945,6.066-.007,12.239,2.866,18.873,1.758,4.061,3.371,6.697,5.229,8.551,3.972,3.967,8.13,5.758,12.709,5.484,4.607-.269,9.322-2.6,14.013-6.926,7.842-7.235,8.588-16.924,2.217-28.798l-.012-.038c-.36-4.139-.834-7.358-1.972-9.618-1.834-3.641-4.785-6.077-9.29-7.666l.033-.094Z" fill="#fff"/><path d="M441.08,111.085c-1.958-1.358-3.848-2.911-5.67-4.66-4.582-4.4-7.673-9.977-9.186-16.576-4.331-11.097-4.429-22.903-.303-37.14,3.123-10.775,8.169-19.119,15.88-26.262,10.915-9.88,22.231-15.355,33.636-16.272,11.236-.912,21.141,2.915,30.275,11.68,4.566,4.385,7.646,9.953,9.155,16.55,4.257,11.153,4.384,22.949.398,37.111-2.959,10.51-8.175,19.119-15.944,26.317h0c-11.167,10.156-22.474,15.602-33.606,16.188-9.049.476-17.308-1.854-24.636-6.936ZM499.431,16.903c-7.369-5.111-15.272-7.261-23.979-6.555-11.367.915-22.648,6.374-33.532,16.228-7.687,7.12-12.717,15.439-15.831,26.181-4.115,14.198-4.018,25.969.302,37.041,1.508,6.577,4.582,12.125,9.14,16.501,8.61,8.26,18.76,12.148,30.176,11.548,11.091-.584,22.361-6.016,33.496-16.142h0c7.746-7.176,12.944-15.757,15.895-26.237,3.976-14.123,3.85-25.885-.397-37.013-1.503-6.575-4.567-12.114-9.109-16.473-2.014-1.933-4.066-3.625-6.161-5.078ZM459.257,87.649c-.962-.667-1.905-1.454-2.835-2.363-1.916-1.874-3.459-4.53-5.004-8.613-2.399-6.335-2.943-12.089-1.713-18.106,1.051-5.139,3.456-9.395,7.351-13.009,7.765-7.055,14.398-9.304,20.28-6.879h0c2.766,1.143,6.673,3.203,8.608,7.878,1.01,2.439,1.104,5.747.932,9.964,5.402,10.71,4.431,19.556-2.884,26.294-4.963,4.568-9.892,7.112-14.653,7.56-3.621.344-6.946-.55-10.082-2.725ZM477.27,38.841c-5.812-2.398-12.386-.159-20.095,6.846-3.868,3.588-6.256,7.813-7.299,12.916-1.224,5.983-.682,11.706,1.705,18.009,1.536,4.058,3.067,6.695,4.963,8.549,3.922,3.834,8.099,5.483,12.779,5.039,4.723-.444,9.618-2.972,14.551-7.515,7.257-6.682,8.21-15.466,2.836-26.106l-.01-.02v-.023c.173-4.203.082-7.498-.919-9.912-1.889-4.567-5.543-6.558-8.513-7.783h0Z" fill="#fff"/><path d="M439.378,110.47c-1.784-1.238-3.51-2.641-5.177-4.211-4.936-4.652-8.057-10.547-9.277-17.522-3.597-10.584-3.086-21.676,1.66-35.953,3.289-9.893,8.061-17.498,15.019-23.933,11.048-9.948,22.42-15.546,33.801-16.641,11.233-1.086,21.141,2.347,30.13,11.045,4.852,4.695,8.023,10.513,9.241,17.49,3.531,10.643,3.049,21.73-1.568,35.937-3.181,9.789-7.971,17.408-15.075,23.981h0c-11.287,10.219-22.653,15.79-33.785,16.558-9.216.636-17.588-1.631-24.969-6.75ZM499.792,18.762c-7.446-5.164-15.476-7.264-24.373-6.404-11.349,1.091-22.692,6.677-33.715,16.603-6.938,6.416-11.697,14.002-14.977,23.869-4.735,14.244-5.247,25.307-1.657,35.87,1.217,6.954,4.322,12.821,9.234,17.45,8.527,8.029,18.632,11.708,30.034,10.921,11.097-.767,22.434-6.325,33.694-16.519,7.084-6.554,11.861-14.154,15.033-23.918,4.607-14.174,5.09-25.233,1.566-35.854-1.214-6.954-4.308-12.811-9.198-17.417-1.845-1.738-3.724-3.272-5.641-4.601ZM457.237,87.628c-.85-.59-1.683-1.276-2.5-2.06-1.972-1.891-3.433-4.547-4.738-8.612-1.889-5.888-2.062-11.361-.546-17.227,1.234-4.77,3.625-8.75,7.314-12.17,8.617-7.813,15.788-10.204,21.923-7.312l-.032.068.032-.068c2.861,1.348,6.334,3.475,7.816,7.99.865,2.635.513,6.086.054,9.115-.109.724-.006,1.507.292,2.204,3.829,8.99,2.492,16.562-3.974,22.505-5.197,4.778-10.3,7.517-15.169,8.142-3.816.493-7.267-.352-10.472-2.575ZM481.631,42.077c-1.004-.696-2.039-1.24-3.004-1.695-6.075-2.864-13.192-.481-21.759,7.286-3.666,3.399-6.044,7.356-7.27,12.096-1.509,5.838-1.336,11.286.544,17.145,1.296,4.04,2.746,6.677,4.698,8.55,3.868,3.71,8.071,5.211,12.85,4.594,4.838-.621,9.915-3.347,15.088-8.104,6.414-5.896,7.739-13.411,3.937-22.337-.309-.722-.416-1.533-.303-2.284.456-3.012.806-6.441-.048-9.047-.966-2.941-2.791-4.858-4.734-6.206Z" fill="#fff"/><path d="M437.561,109.768c-1.581-1.096-3.106-2.322-4.57-3.676-5.288-4.895-8.44-11.108-9.367-18.467-2.887-10.106-1.804-20.507,3.623-34.767,3.414-8.974,7.913-15.838,14.159-21.606,11.183-10.016,22.609-15.739,33.966-17.009,5.611-.63,10.986-.06,15.975,1.692,4.909,1.723,9.622,4.658,14.01,8.715,5.264,4.871,8.401,11.072,9.324,18.43,1.518,5.455,1.889,11.064,1.131,17.144-.658,5.269-2.14,10.867-4.665,17.62-3.321,8.884-7.835,15.762-14.205,21.646h-.001c-5.64,5.086-11.323,9.084-16.889,11.883-5.692,2.864-11.437,4.561-17.075,5.045-9.293.799-17.976-1.49-25.417-6.651ZM500.204,20.657c-2.87-1.99-5.847-3.531-8.899-4.604-4.971-1.746-10.327-2.314-15.92-1.687-11.33,1.267-22.734,6.98-33.897,16.978-6.231,5.753-10.72,12.604-14.127,21.558-5.415,14.233-6.496,24.61-3.616,34.697.925,7.339,4.064,13.526,9.33,18.4,8.325,7.703,18.659,11.259,29.89,10.295,5.622-.483,11.352-2.176,17.031-5.032,5.556-2.795,11.229-6.786,16.86-11.865h0c6.355-5.869,10.859-12.732,14.173-21.597,2.521-6.744,4.001-12.334,4.658-17.593.756-6.062.387-11.656-1.129-17.103-.921-7.337-4.045-13.512-9.288-18.362-1.646-1.523-3.337-2.886-5.067-4.086ZM455.181,87.583c-.73-.506-1.44-1.084-2.129-1.733-2.046-1.923-3.425-4.579-4.47-8.61-1.406-5.425-1.209-10.621.621-16.351,1.399-4.386,3.779-8.091,7.274-11.329,9.493-8.591,17.202-11.124,23.567-7.747h0c5.183,2.751,6.494,5.942,7.023,8.1.539,2.191.296,4.995-.784,9.095-.244.927-.195,1.919.14,2.87,2.676,7.602,1.11,14.14-4.655,19.431-5.434,4.986-10.712,7.921-15.689,8.722-3.973.642-7.627-.181-10.896-2.449ZM479.985,41.925c-6.312-3.352-13.975-.824-23.424,7.729-3.478,3.222-5.847,6.91-7.24,11.273-1.822,5.707-2.018,10.881-.618,16.282,1.038,4.007,2.406,6.644,4.433,8.551,3.813,3.582,8.034,4.939,12.922,4.15,4.952-.797,10.209-3.721,15.624-8.692,5.726-5.255,7.281-11.747,4.622-19.298-.343-.974-.392-1.991-.142-2.942,1.074-4.079,1.317-6.865.784-9.033-.525-2.136-1.824-5.296-6.961-8.019h0Z" fill="#fff"/><path d="M436.146,109.365c-1.479-1.026-2.932-2.172-4.364-3.44-5.631-4.988-8.812-11.518-9.458-19.409-1.183-5.204-1.212-10.589-.088-16.455.958-5.005,2.762-10.447,5.673-17.126,3.538-8.118,7.64-14.064,13.3-19.278,5.657-5.043,11.397-9.061,17.059-11.945,5.662-2.882,11.407-4.711,17.074-5.433,5.611-.718,10.971-.248,15.934,1.395,4.895,1.618,9.573,4.437,13.904,8.376,2.791,2.538,4.994,5.434,6.549,8.61,1.579,3.225,2.541,6.845,2.86,10.757,1.157,5.238,1.182,10.643.074,16.516-.945,5.01-2.716,10.436-5.573,17.075-4.487,10.427-9.759,16.014-13.336,19.31h0c-5.646,5.069-11.382,9.095-17.047,11.966-5.665,2.87-11.417,4.665-17.096,5.335-9.373,1.143-17.752-.907-25.462-6.255ZM500.535,22.469c-2.98-2.067-6.09-3.641-9.292-4.701-4.949-1.638-10.295-2.106-15.891-1.391-5.655.722-11.388,2.547-17.04,5.424-5.655,2.879-11.387,6.892-17.037,11.929-5.649,5.204-9.743,11.14-13.276,19.244-2.907,6.673-4.709,12.108-5.666,17.106-1.121,5.851-1.092,11.223.089,16.42.643,7.871,3.815,14.379,9.425,19.349,8.873,7.863,18.606,11.029,29.749,9.671,5.668-.669,11.409-2.461,17.063-5.326,5.658-2.866,11.386-6.887,17.026-11.95h0c7.453-6.868,11.166-14.291,13.313-19.276,2.853-6.632,4.622-12.051,5.566-17.054,1.106-5.86,1.081-11.251-.075-16.482-.318-3.908-1.276-7.515-2.85-10.729-1.549-3.164-3.746-6.051-6.527-8.58-1.486-1.351-3.014-2.571-4.576-3.654ZM453.212,87.617c-.633-.439-1.249-.933-1.847-1.485-2.135-1.967-3.43-4.622-4.2-8.607-.958-4.96-.391-9.877,1.785-15.473,1.55-3.986,3.917-7.418,7.237-10.489,10.39-9.39,18.636-12.066,25.209-8.183,3.692,2.182,5.669,4.788,6.232,8.21.381,2.324-.139,5.273-1.637,9.281-.365.98-.408,2.079-.124,3.178,1.628,6.292-.127,11.846-5.214,16.508-5.67,5.194-11.122,8.324-16.207,9.304-4.162.802-7.931.046-11.234-2.244ZM481.371,43.423l-.025.043c-6.531-3.858-14.738-1.186-25.092,8.171-3.308,3.061-5.666,6.48-7.211,10.452-2.169,5.578-2.735,10.478-1.78,15.418.765,3.963,2.051,6.6,4.169,8.553,3.698,3.402,8.068,4.653,12.994,3.705,5.067-.976,10.503-4.098,16.159-9.279,5.059-4.636,6.804-10.157,5.185-16.41-.29-1.119-.245-2.239.126-3.238,1.492-3.992,2.011-6.925,1.632-9.23-.556-3.39-2.529-5.973-6.183-8.141l.025-.043Z" fill="#fff"/><path d="M434.431,108.76c-1.299-.901-2.583-1.9-3.859-3.002-5.989-5.172-9.202-12.019-9.549-20.351-.821-5.004-.511-10.184.949-15.829,1.243-4.807,3.339-10.071,6.598-16.567,2.391-4.767,5.965-11.002,12.439-16.951,5.725-5.077,11.513-9.143,17.203-12.088,5.69-2.944,11.441-4.848,17.096-5.659,5.611-.805,10.959-.435,15.895,1.097,4.882,1.515,9.524,4.214,13.797,8.039,2.97,2.654,5.273,5.691,6.844,9.028,1.59,3.378,2.481,7.171,2.65,11.275.802,5.042.49,10.244-.956,15.9-1.23,4.815-3.298,10.064-6.508,16.518-2.168,4.361-5.819,10.865-12.466,16.976h-.001c-5.707,5.104-11.494,9.179-17.2,12.113-5.687,2.925-11.448,4.795-17.124,5.559-5.714.77-10.912.391-15.891-1.158-3.456-1.075-6.73-2.691-9.917-4.901ZM500.846,24.258c-3.081-2.137-6.316-3.737-9.665-4.777-4.925-1.529-10.262-1.898-15.862-1.095-5.646.81-11.391,2.712-17.073,5.651-5.685,2.942-11.467,7.005-17.187,12.077-6.464,5.941-10.035,12.168-12.423,16.93-3.256,6.49-5.351,11.75-6.592,16.551-1.457,5.636-1.767,10.805-.947,15.804.346,8.315,3.55,15.144,9.523,20.302,4.399,3.794,8.895,6.377,13.749,7.888,4.968,1.546,10.155,1.924,15.858,1.156,5.669-.764,11.421-2.631,17.1-5.552,5.7-2.931,11.482-7.002,17.185-12.101,6.637-6.103,10.285-12.599,12.449-16.953,3.207-6.451,5.274-11.695,6.503-16.505,1.442-5.645,1.754-10.837.953-15.874-.168-4.098-1.057-7.882-2.642-11.25-1.566-3.329-3.864-6.358-6.826-9.006-1.333-1.192-2.703-2.274-4.105-3.246ZM451.282,87.69c-.55-.382-1.084-.808-1.603-1.276-2.212-1.998-3.46-4.732-3.931-8.602-.547-4.511.39-9.148,2.95-14.596,1.676-3.566,4.03-6.724,7.198-9.651,11.308-10.208,20.091-13.027,26.849-8.619l-.02.031.02-.031c.145.094.287.189.425.285,3.1,2.15,4.742,4.782,5.016,8.033.215,2.558-.618,5.668-2.626,9.789-.406.832-.541,1.811-.392,2.831.755,5.129-1.139,9.813-5.629,13.921-5.905,5.402-11.533,8.728-16.727,9.885-2.541.567-4.934.576-7.115.029-1.552-.39-3.031-1.07-4.415-2.03ZM483.128,45.292c-.138-.096-.279-.191-.423-.285-6.727-4.386-15.479-1.57-26.759,8.612-3.16,2.921-5.51,6.071-7.181,9.629-2.553,5.433-3.489,10.058-2.942,14.554.467,3.851,1.708,6.57,3.906,8.556,1.818,1.642,3.829,2.745,5.987,3.288,2.169.544,4.551.535,7.081-.029,5.18-1.155,10.797-4.476,16.692-9.869,4.47-4.088,6.356-8.75,5.606-13.854-.152-1.034-.013-2.028.399-2.874,2.001-4.109,2.834-7.207,2.618-9.75-.272-3.228-1.904-5.842-4.984-7.978Z" fill="#fff"/><path d="M432.979,108.48c-1.244-.863-2.449-1.825-3.618-2.89-6.445-5.864-9.597-12.828-9.638-21.291-.463-4.835.174-9.817,1.947-15.227,1.545-4.711,3.947-9.79,7.561-15.983,4.515-7.736,8.773-12.054,11.582-14.628,5.791-5.111,11.627-9.226,17.344-12.231,5.718-3.005,11.478-4.984,17.121-5.883,5.613-.892,10.948-.624,15.856.797,4.871,1.411,9.478,3.998,13.69,7.703,3.15,2.767,5.552,5.946,7.138,9.447,1.599,3.529,2.419,7.497,2.438,11.793.835,9.076-1.983,18.421-9.427,31.247-2.138,3.68-5.665,9.204-11.6,14.643h0c-5.94,5.289-11.771,9.472-17.331,12.433-5.841,3.109-11.621,4.997-17.176,5.61-5.975.659-11.2.35-15.975-.943-3.603-.976-6.878-2.492-9.912-4.596ZM501.135,26.02c-3.17-2.198-6.524-3.817-10.014-4.828-4.901-1.419-10.229-1.687-15.835-.795-5.637.897-11.393,2.875-17.105,5.877-5.714,3.004-11.546,7.117-17.335,12.225-5.862,5.369-9.411,10.913-11.572,14.616-3.612,6.19-6.013,11.265-7.556,15.974-1.772,5.403-2.408,10.378-1.944,15.208.04,8.451,3.187,15.403,9.62,21.257,4.019,3.653,8.436,6.099,13.51,7.475,4.769,1.292,9.988,1.6,15.955.942,5.55-.613,11.323-2.499,17.159-5.606,5.557-2.958,11.385-7.139,17.321-12.425h0c5.93-5.434,9.454-10.953,11.589-14.631,7.439-12.815,10.256-22.152,9.421-31.219-.02-4.29-.838-8.252-2.435-11.775-1.583-3.494-3.98-6.667-7.125-9.43-1.188-1.043-2.407-1.999-3.656-2.865ZM449.358,87.769c-.468-.325-.924-.683-1.365-1.074-2.337-2.069-3.501-4.8-3.66-8.595-.173-4.111,1.133-8.47,4.113-13.72,1.744-3.072,4.153-6.037,7.162-8.814,6.111-5.51,11.6-9.053,16.319-10.532,4.59-1.438,8.63-.979,12.01,1.365.053.037.107.074.16.112,3.07,2.196,4.634,5.032,4.65,8.427.013,2.595-1.02,5.678-3.157,9.426-.592,1.037-1.133,2.927-1.182,4.127-.153,3.668-1.998,6.927-5.981,10.564-6.141,5.608-11.943,9.13-17.247,10.468-2.59.652-5.012.743-7.201.272-1.643-.353-3.191-1.032-4.621-2.023ZM483.907,46.439c-3.366-2.335-7.392-2.792-11.967-1.358-4.711,1.476-10.195,5.016-16.3,10.522-3.004,2.773-5.41,5.735-7.151,8.802-2.975,5.24-4.279,9.591-4.107,13.691.159,3.782,1.317,6.502,3.643,8.562,1.786,1.583,3.792,2.619,5.964,3.086,2.18.469,4.596.378,7.179-.272,5.294-1.335,11.089-4.853,17.225-10.457,3.972-3.627,5.812-6.875,5.963-10.529.051-1.226.584-3.089,1.189-4.15,2.133-3.74,3.164-6.814,3.151-9.4-.016-3.379-1.573-6.2-4.629-8.386-.053-.038-.106-.076-.159-.113Z" fill="#fff"/><path d="M431.973,108.572c-1.34-.929-2.616-1.979-3.823-3.148-3.344-3.236-5.75-6.522-7.356-10.044-1.723-3.781-2.499-7.767-2.371-12.187-.102-4.718.845-9.516,2.893-14.667,1.865-4.688,4.669-9.711,8.575-15.357,3.176-4.593,6.682-8.617,10.722-12.304,5.86-5.146,11.744-9.309,17.489-12.375,5.745-3.066,11.513-5.12,17.144-6.107,5.617-.981,10.939-.814,15.82.496,4.863,1.306,9.428,3.787,13.58,7.368,3.332,2.878,5.834,6.196,7.435,9.862,1.608,3.682,2.357,7.825,2.225,12.314.093,4.766-.85,9.594-2.887,14.755-1.854,4.701-4.636,9.712-8.504,15.318-3.156,4.573-6.666,8.6-10.732,12.311h0c-5.846,5.186-11.735,9.366-17.504,12.424-5.745,3.045-11.526,5.061-17.184,5.99-5.863.964-11.248.849-16.005-.341-3.445-.862-6.63-2.305-9.517-4.307ZM501.396,27.755c-3.247-2.252-6.711-3.88-10.337-4.853-4.877-1.309-10.196-1.476-15.809-.496-5.628.987-11.394,3.04-17.136,6.105-5.744,3.066-11.626,7.228-17.484,12.373-4.038,3.684-7.544,7.708-10.718,12.3-3.904,5.645-6.708,10.666-8.572,15.352-2.048,5.148-2.994,9.943-2.892,14.658-.128,4.416.647,8.399,2.369,12.177,1.604,3.519,4.008,6.802,7.35,10.035,3.804,3.683,8.29,6.188,13.328,7.448,4.755,1.19,10.135,1.304,15.995.341,5.655-.929,11.434-2.944,17.176-5.988,5.766-3.056,11.655-7.236,17.499-12.42h0c4.065-3.709,7.574-7.734,10.728-12.306,3.867-5.605,6.648-10.613,8.501-15.312,2.035-5.159,2.979-9.982,2.885-14.746.132-4.486-.616-8.625-2.223-12.304-1.6-3.662-4.099-6.978-7.428-9.852-1.051-.908-2.13-1.745-3.233-2.51ZM447.703,88.147c-.498-.345-.964-.736-1.398-1.17-1.456-1.461-3.559-4.954-3.389-8.589.178-3.794,1.854-7.874,5.276-12.84,1.77-2.568,4.167-5.252,7.124-7.98,6.555-5.905,12.409-9.69,17.4-11.252,4.68-1.464,8.755-1.021,12.126,1.316.203.141.405.289.603.444,2.821,2.203,4.119,5.073,3.86,8.532-.227,3.003-1.713,6.438-4.545,10.5-.486.698-.888,1.543-1.268,2.661-.942,2.784-3.021,5.654-6.179,8.533-6.382,5.816-12.36,9.533-17.768,11.049-4.707,1.314-8.837.88-11.842-1.204ZM484.827,47.652c-3.364-2.333-7.431-2.776-12.104-1.313-4.987,1.561-10.839,5.345-17.39,11.247-2.956,2.726-5.351,5.409-7.12,7.976-3.419,4.963-5.095,9.038-5.271,12.827-.17,3.628,1.929,7.112,3.381,8.57.432.434.898.824,1.394,1.168,2.999,2.08,7.122,2.512,11.821,1.201,5.405-1.515,11.38-5.231,17.758-11.044,3.155-2.875,5.232-5.742,6.173-8.521.38-1.121.783-1.969,1.271-2.669,2.83-4.058,4.315-7.489,4.541-10.488.259-3.45-1.037-6.313-3.851-8.51-.198-.155-.398-.302-.601-.443Z" fill="#fff"/><path d="M486.793,49.64c-7.115-6.042-17.7-2.732-31.766,9.93-3.142,2.893-5.506,5.277-7.089,7.147-3.771,4.456-5.917,8.444-6.437,11.964-.523,3.51.515,6.368,3.119,8.579,3.46,2.938,7.889,3.575,13.291,1.922,5.395-1.658,11.498-5.531,18.29-11.632,3.142-2.893,5.535-5.312,7.181-7.257,3.775-4.461,5.935-8.466,6.482-12.016.556-3.549-.467-6.425-3.071-8.636ZM504.468,31.646c7.06,5.995,10.311,13.698,9.743,23.108-.558,9.411-5.012,19.044-13.353,28.9-2.493,2.946-5.781,6.273-9.865,9.981-11.914,10.527-23.524,16.894-34.87,18.786s-21.121-.316-29.183-7.163c-7.109-6.037-10.381-13.765-9.817-23.17.551-9.303,5.026-18.911,13.427-28.838,2.497-2.95,5.785-6.277,9.865-9.981,11.909-10.411,23.508-16.693,34.8-18.852,11.295-2.15,21.044.258,29.253,7.229Z" fill="none"/><path d="M245.87,150.557h26.484c5.626,0,10.21,1.645,13.74,4.939,3.436,3.291,5.155,7.563,5.155,12.811s-1.747,9.517-5.225,12.811c-3.483,3.34-8.137,5.009-13.961,5.009h-10.158v15.388h-16.035v-50.958ZM261.905,173.96h7.082c4.153,0,6.226-1.811,6.226-5.44,0-3.53-2.073-5.294-6.226-5.294h-7.082v10.734Z" fill="none" stroke="#fff" stroke-miterlimit="10" stroke-width="5"/><path d="M341.705,195.86c-4.823,4.869-11.142,7.301-18.97,7.301s-14.124-2.432-18.894-7.301c-4.817-4.913-7.228-11.451-7.228-19.608s2.411-14.695,7.228-19.611c4.77-4.866,11.072-7.301,18.894-7.301s14.148,2.435,18.97,7.301c4.77,4.82,7.152,11.355,7.152,19.611s-2.382,14.791-7.152,19.608ZM315.292,186.771c1.718,2.435,4.199,3.652,7.444,3.652s5.749-1.217,7.519-3.652c1.712-2.385,2.574-5.915,2.574-10.592,0-4.581-.874-8.076-2.615-10.484-1.742-2.408-4.234-3.614-7.479-3.614s-5.737,1.206-7.479,3.614c-1.742,2.408-2.609,5.903-2.609,10.484,0,4.724.879,8.256,2.644,10.592Z" fill="none" stroke="#fff" stroke-miterlimit="10" stroke-width="5"/><path d="M387.94,177.038v-26.481h15.743v50.958h-16.244l-15.318-26.195v26.195h-15.743v-50.958h15.883l15.679,26.481Z" fill="none" stroke="#fff" stroke-miterlimit="10" stroke-width="5"/><path d="M440.039,173.459h21.69v28.056h-10.665l-.716-4.796c-1.433,1.861-3.471,3.401-6.121,4.619-2.65,1.214-5.667,1.823-9.051,1.823-6.919,0-12.622-2.455-17.106-7.371-4.584-4.962-6.873-11.474-6.873-19.538,0-8.207,2.365-14.745,7.088-19.611,4.724-4.866,10.828-7.301,18.318-7.301,5.871,0,10.927,1.479,15.178,4.438,4.194,3.005,6.937,7.085,8.23,12.237l-15.388,1.075c-1.433-3.34-4.06-5.009-7.875-5.009-3.052,0-5.405,1.191-7.048,3.576-1.648,2.388-2.47,5.871-2.47,10.452,0,4.962.868,8.588,2.609,10.877,1.742,2.292,4.427,3.436,8.055,3.436,4.625,0,7.537-1.957,8.731-5.871h-6.587v-11.093Z" fill="none" stroke="#fff" stroke-miterlimit="10" stroke-width="5"/><path d="M530.434,150.557v13.239h-25.336v7.231h20.968v12.523h-20.968v17.965h-16.029v-50.958h41.365Z" fill="#fff"/><path d="M551.117,201.515h-16.029v-50.958h16.029v50.958Z" fill="#fff"/><path d="M575.736,182.12v5.798h28.056v13.597h-44.085v-50.958h43.369v13.239h-27.34v5.798h23.403v12.525h-23.403Z" fill="#fff"/><path d="M626.98,150.557v37.215h22.762v13.743h-38.791v-50.958h16.029Z" fill="#fff"/><path d="M654.75,150.557h23.973c7.729,0,13.74,2.219,18.038,6.654,4.293,4.438,6.442,10.714,6.442,18.825,0,7.779-1.986,13.982-5.941,18.609-4.013,4.581-9.948,6.87-17.823,6.87h-24.69v-50.958ZM670.779,188.131h5.37c3.431,0,6.127-1.072,8.084-3.221,1.957-2.146,2.936-5.105,2.936-8.874s-.979-6.727-2.936-8.874c-1.957-2.149-4.654-3.221-8.084-3.221h-5.37v24.189Z" fill="#fff"/><path d="M272.354,151.757c5.291,0,9.638,1.553,12.91,4.606,3.22,3.083,4.785,6.99,4.785,11.944s-1.586,8.848-4.855,11.945c-3.235,3.102-7.652,4.675-13.131,4.675h-11.358v15.388h-13.635v-48.558h25.284M260.705,175.16h8.283c4.789,0,7.426-2.358,7.426-6.64,0-5.651-4.653-6.494-7.426-6.494h-8.283v13.134M272.354,150.557h-26.484v50.958h16.035v-15.388h10.158c5.824,0,10.478-1.669,13.961-5.009,3.477-3.294,5.225-7.563,5.225-12.811s-1.718-9.52-5.155-12.811c-3.53-3.294-8.113-4.939-13.74-4.939h0ZM261.905,173.96v-10.734h7.082c4.153,0,6.226,1.765,6.226,5.294,0,3.629-2.073,5.44-6.226,5.44h-7.082Z" fill="#fff"/><path d="M322.735,150.54c7.455,0,13.55,2.337,18.117,6.945,4.516,4.563,6.805,10.877,6.805,18.767s-2.29,14.204-6.805,18.763c-4.564,4.609-10.66,6.945-18.118,6.945s-13.525-2.335-18.038-6.941c-4.569-4.66-6.885-10.974-6.885-18.768s2.316-14.108,6.885-18.771c4.515-4.606,10.583-6.941,18.037-6.941M322.735,191.623c3.633,0,6.489-1.395,8.494-4.152,1.858-2.588,2.8-6.387,2.8-11.292,0-4.815-.956-8.578-2.843-11.187-1.972-2.728-4.816-4.111-8.451-4.111s-6.478,1.383-8.451,4.111c-1.882,2.603-2.837,6.367-2.837,11.187,0,4.973.971,8.78,2.864,11.284,1.948,2.76,4.782,4.16,8.424,4.16M322.735,149.34c-7.822,0-14.124,2.435-18.894,7.301-4.817,4.916-7.228,11.451-7.228,19.611s2.411,14.695,7.228,19.608c4.77,4.869,11.072,7.301,18.894,7.301s14.147-2.432,18.97-7.301c4.77-4.817,7.152-11.355,7.152-19.608s-2.382-14.791-7.152-19.611c-4.823-4.866-11.142-7.301-18.97-7.301h0ZM322.735,190.423c-3.244,0-5.725-1.217-7.444-3.652-1.765-2.336-2.644-5.868-2.644-10.592,0-4.581.868-8.076,2.609-10.484,1.742-2.408,4.234-3.614,7.479-3.614s5.737,1.206,7.479,3.614c1.741,2.408,2.615,5.903,2.615,10.484,0,4.677-.862,8.207-2.574,10.592-1.771,2.435-4.275,3.652-7.519,3.652h0Z" fill="#fff"/><path d="M402.483,151.757v48.558h-14.356l-14.971-25.601-2.236-3.824v29.425h-13.343v-48.558h13.999l15.331,25.892,2.233,3.771v-29.663h13.343M403.683,150.557h-15.743v26.481l-15.679-26.481h-15.883v50.958h15.743v-26.195l15.318,26.195h16.244v-50.958h0Z" fill="#fff"/><path d="M436.603,150.54c5.59,0,10.466,1.421,14.479,4.214,3.554,2.547,6.028,5.962,7.371,10.168l-13.095.914c-1.699-3.289-4.592-4.955-8.609-4.955-3.461,0-6.164,1.378-8.035,4.095-1.78,2.578-2.682,6.324-2.682,11.134,0,5.284.934,9.079,2.854,11.603,1.972,2.595,5.003,3.91,9.011,3.91,5.121,0,8.537-2.324,9.879-6.721l.473-1.55h-7.008v-8.693h19.29v25.656h-8.43l-.564-3.774-.417-2.79-1.721,2.235c-1.308,1.699-3.217,3.133-5.671,4.26-2.482,1.137-5.359,1.714-8.551,1.714-6.63,0-11.935-2.283-16.225-6.985-4.349-4.708-6.554-11.008-6.554-18.724,0-7.844,2.271-14.161,6.749-18.775,4.468-4.603,10.341-6.937,17.457-6.937M436.603,149.34c-7.49,0-13.594,2.435-18.318,7.301-4.724,4.866-7.088,11.404-7.088,19.611,0,8.064,2.289,14.576,6.873,19.538,4.485,4.916,10.187,7.371,17.106,7.371,3.384,0,6.401-.609,9.051-1.823,2.65-1.217,4.689-2.758,6.121-4.619l.716,4.796h10.664v-28.056h-21.69v11.093h6.587c-1.194,3.914-4.106,5.871-8.731,5.871-3.629,0-6.314-1.145-8.055-3.436-1.742-2.289-2.609-5.915-2.609-10.877,0-4.581.821-8.064,2.47-10.452,1.643-2.385,3.996-3.576,7.048-3.576,3.815,0,6.442,1.669,7.875,5.009l15.388-1.075c-1.293-5.152-4.036-9.232-8.23-12.237-4.252-2.959-9.307-4.438-15.178-4.438h0Z" fill="#fff"/></svg>

