<?xml version="1.0" encoding="UTF-8"?>
<svg id="Calque_1" data-name="Calque 1" xmlns="http://www.w3.org/2000/svg" viewBox="0 0 778.99168 204.16059">
  <defs>
    <style>
      .cls-1, .cls-2 {
        fill: none;
      }

      .cls-3 {
        fill: #fff;
      }

      .cls-2 {
        stroke: #fff;
        stroke-miterlimit: 10;
        stroke-width: 2px;
      }
    </style>
  </defs>
  <path class="cls-3" d="M106.29409,11.05896l-5.60344,25.94014h-53.43235l-2.52212,11.36094h45.85459l-5.19259,24.54214h-45.85459l-2.38517,11.36094h54.97301l-5.7518,26.642H0L21.30675,11.05896h84.98734Z"/>
  <path class="cls-3" d="M172.90764,64.62826l11.35523-53.5693h30.84743l-21.31816,99.84615h-29.71761l-20.75896-53.0101-11.35523,53.0101h-30.85884L122.41966,11.05896h29.03287l21.45511,53.5693Z"/>
  <path class="cls-3" d="M227.02474,11.05896h89.06153l-5.7518,26.9216h-28.75898l-15.55495,72.92455h-31.41804l15.56637-72.92455h-28.88451l5.74038-26.9216Z"/>
  <path class="cls-3" d="M413.54725,36.30295c0,14.2996-7.62341,23.88593-22.85882,28.74756,7.01856,3.26962,10.51072,9.30102,10.51072,18.08848,0,1.02711-.0913,2.75607-.2739,5.18689l-2.23681,22.57922h-30.85884l2.23681-19.63485c.19401-2.05421.28531-3.50357.28531-4.34238,0-7.29245-3.68617-10.93868-11.08134-10.93868h-13.7404l-7.4294,34.91591h-31.41804l21.31816-99.84615h55.39527c9.54068,0,16.93584,2.26534,22.23115,6.80173,5.27248,4.53639,7.92013,10.68191,7.92013,18.44226ZM350.30032,53.83223h17.80318c3.74323,0,6.80173-1.10129,9.19831-3.29815,2.37376-2.19687,3.56064-4.93011,3.56064-8.20544,0-4.95293-2.89872-7.4294-8.68475-7.4294h-17.81459l-4.06278,18.93299Z"/>
  <path class="cls-3" d="M550.83712,11.05896h48.79896c10.47648,0,18.53356,2.66477,24.19406,7.99431,5.6605,5.32954,8.49075,12.43369,8.49075,21.31246,0,12.622-4.07419,22.48792-12.21115,29.59207-8.31956,7.20116-19.3096,10.79603-32.9587,10.79603h-19.76609l-6.44795,30.15128h-31.41804l21.31816-99.84615ZM572.42918,56.91355h13.7404c9.72327,0,14.58491-4.43938,14.58491-13.31815,0-5.14124-3.35521-7.71471-10.08847-7.71471h-13.7404l-4.49644,21.03286Z"/>
  <path class="cls-3" d="M663.16832,110.90511h-31.41804l21.31816-99.84615h31.40663l-21.30675,99.84615Z"/>
  <path class="cls-3" d="M778.99168,110.90511h-31.81747l-1.55207-13.60345h-31.40663l-7.30387,13.60345h-33.92875l58.62495-99.84615h30.98437l16.39946,99.84615ZM733.84465,61.12469l-8.12555,15.00146h17.38092l-1.67761-15.00146-.98146-13.46651-6.59631,13.46651Z"/>
  <g>
    <path class="cls-3" d="M450.12199,114.86703c-3.00896-2.08672-5.90109-4.62639-8.66754-7.61643-2.71738-2.93474-5.64783-6.90799-8.70959-11.81108-8.56268-14.3141-11.97133-28.8118-10.13418-43.09393,1.775-14.34414,8.56434-27.09983,20.18083-37.9137C453.03899,4.89194,464.0792.03651,475.60724.00032c11.39789-.04613,21.82447,4.95549,31.0003,14.86776,2.72186,2.94021,5.65231,6.91346,8.70959,11.81108,8.42403,14.32664,11.87016,28.79244,10.24526,42.99849-1.63903,14.2128-8.46584,27.00038-20.29111,38.0097-10.1823,9.48002-21.18821,14.30134-32.71024,14.33226-8.02831.03202-15.54046-2.36838-22.43906-7.15257ZM497.63004,7.36983c-6.81962-4.72942-14.1912-7.10085-22.02181-7.07113-11.44995.03601-22.42235,4.86522-32.61392,14.3518-11.56255,10.76505-18.32034,23.45992-20.08675,37.73204-1.82917,14.21442,1.56664,28.64887,10.09246,42.90197,3.05054,4.88349,5.9686,8.84224,8.67304,11.76328,9.05198,9.77913,19.44202,14.71759,30.887,14.67341,11.44528-.03098,22.38204-4.82583,32.50842-14.25249,11.77078-10.95969,18.56549-23.68566,20.19617-37.82509,1.61803-14.13993-1.8155-28.54384-10.20348-42.81003-3.04527-4.87747-5.96333-8.83622-8.67224-11.76273-2.80504-3.02979-5.7276-5.59883-8.75889-7.70104ZM469.68688,88.15434c-1.62573-1.12745-3.24109-2.55604-4.83859-4.28294-1.79742-1.94115-3.92849-4.83551-6.33275-8.60334-5.00591-8.15217-7.54592-15.7189-7.55065-22.49021.00424-6.77573,2.54146-12.57216,7.54327-17.22764,3.77173-3.51204,7.81966-5.0971,12.02986-4.71016,4.21623.38167,8.44607,2.83898,12.57931,7.30259,1.73086,1.87019,3.82734,4.72756,6.23056,8.49348,10.42641,16.92619,10.4968,30.36222.21098,39.93702-3.77474,3.51468-7.84089,5.08002-12.08483,4.65314-2.60338-.25432-5.20816-1.2834-7.78716-3.07194ZM478.13461,34.12715c-2.53432-1.75756-5.08387-2.75897-7.6236-2.98923-4.12285-.37834-8.09192,1.1799-11.80005,4.6309-4.93773,4.59714-7.4437,10.31956-7.44689,17.0086.00441,6.71557,2.53004,14.22979,7.50455,22.33183,2.39353,3.75093,4.51381,6.6319,6.29828,8.55935,4.08306,4.40991,8.26926,6.8535,12.43629,7.26011,4.15578.41772,8.14308-1.1208,11.85287-4.57419,5.08156-4.7313,7.63837-10.45036,7.59994-16.99932-.03922-6.56487-2.68383-14.15452-7.8612-22.56027-2.39249-3.74903-4.47793-6.59165-6.19609-8.44949-1.57719-1.70337-3.16789-3.11131-4.76411-4.21829Z"/>
    <path class="cls-3" d="M448.36058,114.10386c-2.80395-1.94454-5.5115-4.28533-8.1149-7.01816-3.13263-3.28651-6.09646-7.58298-8.8081-12.76778-7.61232-13.55343-10.35993-27.65176-8.16443-41.90039,2.13131-13.83241,8.45098-25.47137,19.31995-35.58212,10.38096-9.60806,21.47676-14.58795,32.97978-14.80099,11.27309-.21537,21.65133,4.57315,30.8558,14.23121,3.13263,3.28651,6.09407,7.58132,8.80227,12.76256,7.512,13.61972,10.29512,27.69069,8.27096,41.81833-1.92982,13.47715-8.46375,25.47787-19.41985,35.66996h0c-10.32302,9.562-21.3878,14.50907-32.88994,14.70381-8.14979.15097-15.79653-2.23763-22.83153-7.11642ZM497.88537,9.21618c-6.90817-4.79083-14.2762-7.06175-22.30676-6.90725-11.43431.21107-22.46907,5.16596-32.79854,14.72703-10.82185,10.06664-17.11471,21.65331-19.23571,35.42317-2.18574,14.18687.55111,28.22576,8.13473,41.72858,2.70121,5.16576,5.64984,9.43987,8.76474,12.70936,9.08257,9.53571,19.42458,14.25895,30.74334,14.04926,11.43264-.19333,22.43692-5.1162,32.7079-14.63041,10.90897-10.14798,17.41499-22.09482,19.3361-35.50831,2.01552-14.06747-.75789-28.08091-8.242-41.65057-2.69753-5.16084-5.64377-9.43329-8.75867-12.70278-2.71278-2.84768-5.49014-5.25814-8.34515-7.23809ZM467.53771,87.97757c-1.47576-1.02344-2.93505-2.29891-4.37443-3.82283-1.86652-1.97608-3.85148-4.79155-6.06985-8.60767-4.46201-7.67928-6.60889-14.95093-6.38108-21.61295.22384-6.53365,2.679-11.89319,7.50514-16.38224,4.56609-4.21457,9.04154-5.89655,13.68424-5.14352h0c4.4193.71742,8.38265,3.2132,11.78358,7.4194,1.46849,1.81582,3.06434,4.52802,5.17349,8.79292,9.41279,15.66564,9.27597,28.18417-.41257,37.20093-4.02203,3.72476-8.25982,5.48649-12.59636,5.23403-2.80368-.15459-5.58479-1.18664-8.31216-3.07807ZM471.85853,32.67847h0c-4.55491-.73822-8.95563.92116-13.45462,5.07475-4.76943,4.43623-7.19623,9.73274-7.41762,16.19131-.2255,6.60929,1.90884,13.83088,6.34448,21.46471,2.17687,3.7448,4.20616,6.6241,6.03146,8.55741,4.04897,4.28703,8.25438,6.57855,12.50235,6.81565,4.26017.24675,8.43016-1.48876,12.39468-5.16126,4.79001-4.4574,7.25075-9.81307,7.31296-15.91775.06271-6.11733-2.27622-13.16656-6.95389-20.95052-2.10419-4.25673-3.6909-6.95314-5.14676-8.75311-3.3548-4.15177-7.2636-6.61207-11.61304-7.32121Z"/>
    <path class="cls-3" d="M446.73363,113.49773c-2.63324-1.82616-5.19435-4.01695-7.69592-6.57638-3.50997-3.59073-6.50535-8.20796-8.90501-13.72337-6.81139-13.0287-8.83951-26.3469-6.19708-40.70851,2.40427-13.06425,8.44201-23.94064,18.45962-33.25134,10.51307-9.67592,21.66338-14.77868,33.14271-15.16881,11.3442-.39288,21.3875,4.05586,30.7108,13.59195,3.50494,3.58606,6.49689,8.19973,8.8928,13.71372,6.7155,13.08861,8.77716,26.38399,6.30096,40.63878-2.2423,12.91076-8.31015,23.81353-18.55129,33.33071l-.00055.0008c-10.4589,9.64379-21.58333,14.71606-33.06559,15.07463-8.36539.27789-15.98945-1.99693-23.09146-6.92218ZM498.27894,11.17492c-7.04617-4.88653-14.55052-7.13976-22.7321-6.85608-11.41843.38747-22.51475,5.46861-32.9826,15.10146-9.97627,9.27322-15.99002,20.10481-18.38332,33.11406-2.6325,14.3047-.61177,27.57052,6.17725,40.55653,2.39034,5.49478,5.36947,10.08774,8.85724,13.65598,9.19632,9.41258,19.2065,13.80174,30.60159,13.42407,11.41975-.35702,22.49155-5.40791,32.90467-15.00784h0c10.19979-9.4797,16.2431-20.33687,18.47603-33.19152,2.46658-14.20003.41207-27.44439-6.28106-40.49031-2.38795-5.49312-5.36205-10.08141-8.84558-13.64554-2.53936-2.59863-5.13335-4.81696-7.79212-6.66082ZM465.41301,87.83194c-1.33218-.92387-2.64546-2.05554-3.93475-3.39386-1.84398-1.91319-3.68766-4.64959-5.80455-8.61034-3.97336-7.43846-5.67815-14.22158-5.2123-20.73625.44196-6.19573,2.88448-11.27814,7.46541-15.53795,5.33121-4.89368,10.34811-6.71759,15.33646-5.57718l-.02754.12148.02754-.12148c4.51507,1.03075,8.21193,3.56499,10.9884,7.53541,1.58417,2.26227,2.9137,5.70769,4.11453,9.0934,8.41652,14.42775,8.07139,26.03039-1.03397,34.46514-4.25023,3.93627-8.66045,5.89384-13.10845,5.81572-3.00171-.0462-5.95099-1.07083-8.81078-3.0541ZM479.34238,36.89982c-1.82915-1.26852-3.8784-2.16515-6.13419-2.68049-4.90254-1.12107-9.84611.684-15.11238,5.51639-4.53245,4.21546-6.94841,9.24423-7.38699,15.37377-.46145,6.46574,1.23392,13.20452,5.18515,20.60165,2.10543,3.9398,3.93678,6.6582,5.76359,8.55358,4.00683,4.16212,8.23944,6.30711,12.57055,6.37151,4.38151.0769,8.73394-1.85696,12.93569-5.74888,9.00729-8.34446,9.33626-19.84372.9778-34.17804-1.20506-3.38982-2.52687-6.81571-4.09289-9.05476-1.35273-1.93165-2.92504-3.5194-4.70633-4.75473Z"/>
    <path class="cls-3" d="M444.97139,112.78006c-2.4394-1.69173-4.81727-3.69873-7.14324-6.02417-3.87211-3.87258-6.90038-8.81033-8.99849-14.6754-5.93276-12.32132-7.3185-25.25072-4.23212-39.51828,2.65561-12.27682,8.41276-22.39089,17.59985-30.92135,10.64734-9.74347,21.85325-14.9707,33.3078-15.53632,11.28491-.56631,21.27877,3.67094,30.5655,12.95484,3.86364,3.86435,6.88529,8.79632,8.981,14.65973,5.84203,12.3789,7.26149,25.29034,4.33224,39.46249-2.50703,12.13413-8.29128,22.27194-17.68248,30.99281h0c-10.59882,9.72632-21.78371,14.92324-33.24529,15.44618-8.52396.40774-16.27347-1.83949-23.48477-6.84054ZM498.67056,13.10751c-7.16822-4.97117-14.80853-7.19701-23.15494-6.77955-11.40119.56363-22.55907,5.77102-33.16617,15.4786-9.152,8.49691-14.88666,18.57343-17.53252,30.80383-3.07546,14.21606-1.69614,27.09849,4.21897,39.38394,2.09229,5.8445,5.10223,10.75417,8.95188,14.60292,9.15097,9.15431,19.11693,13.3415,30.45849,12.79912,11.40687-.52071,22.54452-5.69723,33.10255-15.38686,9.35612-8.68732,15.11811-18.78623,17.6162-30.87339,2.91729-14.12255,1.5048-26.98782-4.32038-39.3314-2.0883-5.84173-5.09241-10.74618-8.9336-14.58669-2.36377-2.36463-4.77397-4.39997-7.24049-6.11051ZM463.37254,87.7778c-1.20773-.83756-2.39788-1.8555-3.57954-3.05774-1.83383-1.86481-3.59376-4.60101-5.53877-8.61031-3.42625-7.06731-4.74908-13.56309-4.04568-19.85985.6543-5.85118,3.08395-10.65781,7.42814-14.69549,6.12177-5.59413,11.67741-7.5595,16.98599-6.01035l-.03134.10822.03134-.10822c4.58028,1.33704,7.91418,3.83931,10.19512,7.65038,1.30194,2.17523,2.16086,5.32145,3.05024,9.37601,7.41521,13.20055,6.85998,23.88133-1.64869,31.74699-4.48812,4.14814-9.07158,6.301-13.62189,6.39765-3.22823.07433-6.275-.89151-9.22493-2.93729ZM474.56001,35.76049c-5.22632-1.52636-10.71301.42304-16.77124,5.95963-4.30252,3.99805-6.709,8.75933-7.35662,14.55489-.69938,6.25348.61692,12.70929,4.02478,19.73667,1.9333,3.987,3.68011,6.70466,5.4962,8.55244,4.02033,4.08643,8.15432,6.02952,12.63875,5.92736,4.49535-.09578,9.02808-2.22829,13.47486-6.33895,8.42646-7.788,8.96394-18.38186,1.59813-31.48671l-.01262-.0312c-.88478-4.04073-1.73911-7.17314-3.02719-9.32577-2.25065-3.75935-5.54283-6.2315-10.06505-7.54836h0Z"/>
    <path class="cls-3" d="M442.92991,111.84156c-2.16977-1.50474-4.26991-3.25298-6.30998-5.25137-4.22861-4.13872-7.28763-9.39668-9.09387-15.62639-5.15573-11.78599-5.87683-23.96858-2.26581-38.3283,2.88144-11.46454,8.35722-20.81685,16.73872-28.59113,10.78136-9.81237,22.04312-15.16272,33.47129-15.90494,11.25171-.73818,21.20092,3.29089,30.421,12.31829,4.21615,4.12772,7.26751,9.378,9.06896,15.60439,5.07255,11.8429,5.82541,24.01207,2.36488,38.28596-2.74713,11.33559-8.24698,20.709-16.81368,28.65492l-.00055.0008c-11.06194,10.10451-22.30863,15.42633-33.42603,15.81583-8.97521.31571-16.94283-1.97645-24.15493-6.97805ZM499.05588,15.01683c-7.27591-5.04586-15.0496-7.23778-23.57202-6.67895-11.38261.73955-22.60285,6.07262-33.35023,15.85303-8.35165,7.74655-13.80799,17.06744-16.68038,28.49337-3.59969,14.31442-2.88107,26.45631,2.26013,38.21214,1.80097,6.20834,4.84277,11.43663,9.04542,15.55145,8.78046,8.59494,18.69974,12.58199,30.31944,12.17344,11.0681-.38825,22.27247-5.69333,33.29798-15.76405h0c8.53683-7.91819,14.01671-17.25938,16.75478-28.55636,3.44975-14.22939,2.69993-26.35865-2.35889-38.17194-1.79539-6.20447-4.82896-11.42588-9.01972-15.52889-2.18823-2.14248-4.41825-4.00325-6.69651-5.58322ZM461.30317,87.6989c-1.0809-.7496-2.14455-1.64673-3.19518-2.69549-1.87704-1.87233-3.50326-4.5288-5.27132-8.61267-2.88959-6.66914-3.83126-12.87815-2.88015-18.98186.85816-5.49952,3.27494-10.03037,7.39031-13.85224,6.93235-6.31495,13.0273-8.42256,18.63392-6.44463,4.55482,1.60883,7.5423,4.07404,9.40105,7.7648,1.15076,2.28421,1.62864,5.51823,1.9906,9.66893,6.41017,11.95658,5.64693,21.71931-2.26647,29.01962-4.72547,4.35922-9.48216,6.70736-14.13748,6.97928-3.42505.20482-6.61484-.73025-9.66528-2.84573ZM475.94751,37.2059l-.03323.09391c-5.53063-1.95123-11.56018.14386-18.43281,6.40335-4.08004,3.78967-6.47782,8.28289-7.32839,13.7357-.94475,6.06559-.00674,12.23898,2.866,18.87281,1.75826,4.06053,3.37111,6.6971,5.22938,8.55051,3.97217,3.96679,8.12967,5.75844,12.7091,5.48351,4.60705-.26876,9.32223-2.59963,14.01317-6.92609,7.84219-7.2351,8.58818-16.92356,2.21662-28.79783l-.0117-.03765c-.35976-4.13855-.8336-7.35795-1.97161-9.61796-1.83436-3.64076-4.7852-6.07703-9.28976-7.66635l.03323-.09391Z"/>
    <path class="cls-3" d="M441.08034,111.08458c-1.95758-1.35758-3.84802-2.91079-5.66997-4.65985-4.58223-4.40049-7.6731-9.97706-9.1855-16.57596-4.33142-11.09737-4.42904-22.9031-.30324-37.13974,3.12273-10.77505,8.16852-19.11895,15.8795-26.26194,10.91483-9.88047,22.23084-15.35505,33.63637-16.27245,11.23632-.91189,21.1413,2.91522,30.27545,11.67983,4.56609,4.38458,7.64635,9.95261,9.15501,16.55009,4.25715,11.15337,4.3843,22.94887.39776,37.11078-2.95926,10.51037-8.17473,19.11938-15.94352,26.31678l-.00055.0008c-11.16654,10.15484-22.47368,15.6013-33.60573,16.18738-9.04871.4762-17.30781-1.85389-24.63557-6.93571ZM499.4314,16.90281c-7.36924-5.11058-15.27214-7.26099-23.97931-6.55501-11.36697.91461-22.64797,6.37447-33.53215,16.22777-7.68658,7.11974-12.71658,15.43916-15.83063,26.18124-4.11459,14.19834-4.01848,25.96876.3021,37.04089,1.50849,6.57729,4.58158,12.12499,9.13976,16.50053,8.60968,8.26031,18.75995,12.14766,30.17554,11.54793,11.09054-.58415,22.36133-6.01566,33.4961-16.14172h0c7.74551-7.17575,12.94431-15.75732,15.8952-26.23688,3.97614-14.12305,3.85025-25.8846-.39685-37.01328-1.50315-6.57477-4.56698-12.11368-9.10902-16.47331-2.01434-1.93329-4.06595-3.62543-6.16074-5.07817ZM459.25723,87.64923c-.96204-.66717-1.90519-1.45357-2.83505-2.36305-1.91578-1.87439-3.45881-4.52987-5.00418-8.61289-2.39943-6.33512-2.94337-12.08873-1.71297-18.10626,1.05108-5.13891,3.45555-9.39476,7.35113-13.00874,7.76457-7.05502,14.39826-9.3041,20.28049-6.87867h0c2.76561,1.14298,6.67313,3.2031,8.60808,7.87762,1.01003,2.43943,1.10363,5.74718.93201,9.96377,5.40249,10.7096,4.43149,19.55564-2.88401,26.2936-4.96251,4.56814-9.89243,7.11157-14.65331,7.55955-3.62096.34422-6.9464-.55025-10.0822-2.72493ZM477.2696,38.84104c-5.81245-2.3983-12.38646-.15863-20.09462,6.84572-3.86818,3.58809-6.25593,7.81302-7.29881,12.91626-1.2241,5.98291-.68229,11.70551,1.70507,18.00864,1.53588,4.05753,3.06658,6.69501,4.96335,8.54912,3.92236,3.83419,8.09944,5.48348,12.77865,5.03912,4.72256-.44383,9.61828-2.972,14.55123-7.51457,7.25658-6.68196,8.21027-15.46557,2.8364-26.10571l-.00987-.01984.00069-.02315c.17192-4.20338.08132-7.49843-.91922-9.91237-1.88899-4.56704-5.54331-6.55789-8.51287-7.78324h0Z"/>
    <path class="cls-3" d="M439.37787,110.4698c-1.78448-1.23754-3.51043-2.64123-5.17651-4.21132-4.93604-4.65177-8.05741-10.54719-9.2772-17.52204-3.5968-10.58436-3.08599-21.67636,1.65963-35.95332,3.28938-9.89276,8.06149-17.49792,15.01948-23.93331,11.04775-9.94778,22.42016-15.54627,33.80121-16.64131,11.23277-1.08564,21.14114,2.34677,30.12984,11.04487,4.85204,4.69518,8.0233,10.51291,9.24064,17.48959,3.53136,10.64295,3.04893,21.7298-1.56832,35.9375-3.18057,9.78866-7.97098,17.40829-15.07502,23.98103h0c-11.28674,10.21914-22.65299,15.79001-33.78488,16.55813-9.21645.63631-17.58845-1.6315-24.96886-6.74982ZM499.79153,18.76157c-7.44582-5.16369-15.47567-7.26392-24.37255-6.40362-11.34894,1.09132-22.6923,6.67688-33.71541,16.60276-6.93771,6.41637-11.69734,14.00183-14.97737,23.86918-4.73479,14.24431-5.24668,25.3072-1.65729,35.86989,1.21668,6.95378,4.32242,12.82065,9.2341,17.44962,8.52667,8.02908,18.63229,11.70826,30.03354,10.92139,11.09659-.76661,22.43433-6.32534,33.69422-16.5194,7.08376-6.55372,11.8609-14.15421,15.03347-23.9177,4.60722-14.17448,5.08993-25.23279,1.56598-35.85406-1.21397-6.95427-4.30806-12.81069-9.19753-17.41717-1.84504-1.73791-3.72426-3.27151-5.64116-4.60089ZM457.23742,87.62832c-.85036-.58973-1.68253-1.27552-2.5005-2.06015-1.97176-1.89076-3.43264-4.54716-4.7376-8.6123-1.88872-5.88762-2.06242-11.36084-.54586-17.22717,1.23362-4.77014,3.62522-8.75021,7.31393-12.16979,8.6173-7.81277,15.78815-10.2044,21.92302-7.31197l-.03167.06782.03167-.06782c2.86122,1.34751,6.3345,3.47506,7.81567,7.98965.86479,2.63523.51279,6.08642.05435,9.11529-.10889.72427-.00557,1.5071.29213,2.20382,3.82936,8.99014,2.49181,16.56246-3.97351,22.50547-5.1966,4.77793-10.30031,7.51744-15.16945,8.14197-3.81595.49252-7.26699-.35202-10.47219-2.57483ZM481.63137,42.0774c-1.00352-.69594-2.0389-1.24032-3.0043-1.69482-6.07454-2.86359-13.19191-.48094-21.75882,7.28644-3.66597,3.39872-6.04423,7.35615-7.27003,12.09627-1.50905,5.83846-1.3365,11.28608.54359,17.14526,1.29626,4.04021,2.74592,6.67701,4.69836,8.54965,3.86782,3.71013,8.07105,5.21098,12.84956,4.59448,4.83837-.62105,9.91519-3.34733,15.08849-8.1036,6.41383-5.89602,7.73875-13.41095,3.93702-22.33703-.30855-.72197-.4162-1.53261-.3025-2.28426.45597-3.01169.80568-6.44084-.04753-9.04677-.9661-2.94057-2.79061-4.85799-4.73383-6.20561Z"/>
    <path class="cls-3" d="M437.56067,109.76835c-1.58106-1.09647-3.1059-2.3217-4.56967-3.67588-5.28838-4.89494-8.44001-11.10787-9.36731-18.467-2.88658-10.106-1.80356-20.50701,3.62251-34.76691,3.41389-8.97356,7.91335-15.83806,14.15922-21.60602,11.18257-10.01613,22.60923-15.73884,33.9663-17.00882,5.61112-.62976,10.98587-.06015,15.97539,1.69184,4.90899,1.72331,9.62207,4.65751,14.0097,8.71513,5.26378,4.87079,8.40136,11.07162,9.32436,18.43013,1.51805,5.45453,1.88878,11.0644,1.13067,17.14365-.65788,5.26865-2.1399,10.86713-4.66451,17.61977-3.32123,8.88424-7.83495,15.76248-14.20493,21.64639l-.00135.00024c-5.64037,5.08566-11.32273,9.08371-16.88856,11.88314-5.69224,2.86417-11.43739,4.56108-17.07491,5.04494-9.29296.79944-17.97585-1.49023-25.41689-6.6506ZM500.2043,20.65685c-2.87016-1.99046-5.84659-3.53128-8.89867-4.60357-4.97104-1.74626-10.32726-2.31365-15.92001-1.68651-11.33036,1.26724-22.73448,6.97959-33.89653,16.97805-6.2305,5.75263-10.71976,12.60412-14.12738,21.55841-5.41481,14.23345-6.49603,24.60971-3.61558,34.69729.92498,7.33863,4.06362,13.52601,9.33003,18.39981,8.32531,7.70278,18.65912,11.25904,29.8902,10.29509,5.62242-.48252,11.35215-2.17595,17.03051-5.03202,5.55552-2.79478,11.22859-6.78626,16.86049-11.86481h0c6.35517-5.86936,10.85918-12.7319,14.17333-21.59742,2.52067-6.74355,4.00067-12.334,4.65756-17.5927.75645-6.06151.38705-11.65627-1.12898-17.10349-.92123-7.33721-4.04502-13.51193-9.28764-18.36214-1.64567-1.52286-3.3371-2.88606-5.06733-4.08598ZM455.18116,87.58332c-.7299-.50619-1.43992-1.08365-2.12949-1.73316-2.04603-1.92336-3.42451-4.57933-4.46997-8.60982-1.40603-5.42528-1.20862-10.62106.62077-16.35077,1.39945-4.38578,3.77873-8.09087,7.27426-11.32899,9.49277-8.59137,17.20236-11.12446,23.56665-7.74687h0c5.18285,2.75082,6.49361,5.94223,7.02301,8.10032.53877,2.19058.29639,4.99479-.78437,9.09479-.24376.92726-.19544,1.91886.13988,2.86967,2.67616,7.60208,1.10957,14.14017-4.65548,19.43116-5.43443,4.9863-10.71218,7.92055-15.68878,8.72218-3.973.64232-7.62746-.18144-10.89648-2.44851ZM479.98532,41.92467c-6.31225-3.35213-13.97462-.8241-23.42414,7.72875-3.47826,3.22175-5.84673,6.90953-7.24039,11.27333-1.8217,5.7067-2.01816,10.88068-.61789,16.28189,1.03836,4.00666,2.40587,6.64438,4.43282,8.55097,3.81254,3.58201,8.03376,4.93939,12.92181,4.1496,4.95228-.79723,10.20884-3.72137,15.62386-8.6916,5.72561-5.25456,7.28086-11.74735,4.62234-19.2982-.34297-.97384-.39244-1.99104-.14179-2.94187,1.07417-4.07857,1.31703-6.86474.78432-9.03339-.52469-2.13592-1.82418-5.29589-6.96094-8.01947h0Z"/>
    <path class="cls-3" d="M436.14623,109.36512c-1.47895-1.02566-2.93227-2.17175-4.36449-3.44026-5.63108-4.98847-8.81218-11.51836-9.45827-19.40902-1.18254-5.20413-1.2119-10.58907-.08797-16.4548.95814-5.00489,2.76151-10.44668,5.67256-17.12625,3.53796-8.11845,7.64006-14.06416,13.29975-19.27819,5.6571-5.04335,11.39663-9.06081,17.0588-11.94465,5.66242-2.88249,11.40675-4.7111,17.07369-5.43328,5.61057-.71756,10.97073-.24785,15.93425,1.39514,4.89477,1.61776,9.57307,4.43687,13.90443,8.37632,2.79064,2.53781,4.99386,5.43376,6.54886,8.61027,1.57916,3.22515,2.54115,6.84452,2.86008,10.75746,1.1566,5.23813,1.18184,10.64265.07392,16.51594-.94531,5.01025-2.71607,10.43567-5.57305,17.07476-4.48674,10.42687-9.75932,16.0145-13.33588,19.30984l-.00055.0008c-5.64625,5.06859-11.38217,9.09447-17.04734,11.96559-5.66462,2.87033-11.41721,4.66485-17.09639,5.33484-9.37306,1.1432-17.75173-.90715-25.4624-6.25451ZM500.53512,22.4693c-2.98024-2.0668-6.08963-3.64076-9.29166-4.70127-4.94933-1.63788-10.29525-2.10598-15.89097-1.39111-5.65509.72213-11.3883,2.54663-17.0404,5.42446-5.65536,2.87912-11.38727,6.89241-17.03724,11.92888-5.649,5.20372-9.74311,11.13962-13.27597,19.24389-2.90742,6.67263-4.70851,12.10773-5.66573,17.10618-1.12097,5.85124-1.0919,11.22298.08941,16.42035.64323,7.87095,3.81476,14.37885,9.42517,19.34944,8.87253,7.86255,18.60625,11.02864,29.74869,9.67125,5.66812-.66938,11.40936-2.46115,17.0631-5.32602,5.6578-2.86561,11.3861-6.88732,17.02578-11.94983h0c7.45307-6.8682,11.1665-14.29082,13.31265-19.27634,2.85335-6.63216,4.62183-12.05089,5.56567-17.05389,1.10551-5.8596,1.08057-11.25092-.07481-16.48229-.31795-3.90754-1.27639-7.51499-2.8501-10.72927-1.54931-3.16428-3.74596-6.05096-6.52734-8.57998-1.48618-1.35082-3.01354-2.57071-4.57626-3.65446ZM453.21177,87.61746c-.63258-.4387-1.24879-.93338-1.84672-1.48508-2.13489-1.96727-3.43019-4.62225-4.2002-8.60702-.95759-4.95953-.39099-9.87682,1.78549-15.47333,1.54992-3.98609,3.91664-7.41754,7.2365-10.48924,10.39042-9.39003,18.63636-12.06623,25.20869-8.18287,3.69174,2.18219,5.66949,4.78829,6.23226,8.20995.38149,2.32368-.13877,5.27306-1.63658,9.28111-.36536.97996-.40843,2.07948-.12376,3.17828,1.62844,6.29189-.12664,11.84632-5.21447,16.50829-5.66956,5.19419-11.1219,8.32396-16.20707,9.3043-4.16174.80204-7.93082.04647-11.23414-2.24439ZM481.37051,43.42282l-.02502.0429c-6.53078-3.85809-14.73841-1.18604-25.09159,8.17075-3.30782,3.06115-5.66569,6.47983-7.2105,10.45175-2.16861,5.57834-2.73489,10.47814-1.78017,15.41796.76531,3.9626,2.05122,6.60044,4.16942,8.5526,3.69763,3.4019,8.06837,4.6527,12.99406,3.70472,5.06705-.97636,10.50336-4.09835,16.15866-9.27879,5.05908-4.63585,6.80412-10.15707,5.18547-16.41027-.28969-1.11882-.24544-2.23878.1262-3.23802,1.49239-3.99173,2.01074-6.92472,1.63188-9.23004-.55634-3.39003-2.52859-5.97341-6.18344-8.14065l.02502-.0429Z"/>
    <path class="cls-3" d="M434.43093,108.76033c-1.29867-.90063-2.58314-1.9001-3.859-3.00228-5.98937-5.17197-9.20207-12.01912-9.54924-20.35104-.82132-5.00443-.51139-10.1836.94888-15.82907,1.24292-4.8074,3.33871-10.0712,6.59833-16.56692,2.3907-4.76748,5.96545-11.00213,12.43869-16.95146,5.72503-5.07657,11.51286-9.14323,17.20308-12.08795,5.68967-2.94392,11.4413-4.8478,17.0964-5.65852,5.61083-.8048,10.9591-.43549,15.89501,1.09739,4.88184,1.51546,9.52358,4.21353,13.79726,8.03855,2.97001,2.65393,5.2727,5.69093,6.8436,9.02849,1.59009,3.37804,2.48102,7.17141,2.64969,11.27548.80232,5.04205.48954,10.24405-.95557,15.90003-1.2304,4.8149-3.29818,10.06387-6.50804,16.51849-2.16781,4.36091-5.8194,10.86478-12.46634,16.976l-.00135.00024c-5.7075,5.10409-11.49385,9.17886-17.20003,12.11251-5.68689,2.92458-11.44814,4.79462-17.1242,5.55891-5.71413.76979-10.91197.39138-15.89066-1.15817-3.4557-1.07459-6.73046-2.69116-9.91651-4.9007ZM500.84563,24.25822c-3.08076-2.13651-6.31568-3.73727-9.66458-4.77678-4.92548-1.52919-10.26245-1.89776-15.86247-1.09491-5.6462.80981-11.39052,2.71167-17.07258,5.65142-5.68451,2.94159-11.46742,7.00458-17.18698,12.07667-6.46421,5.94142-10.03478,12.16833-12.42296,16.93048-3.25576,6.49013-5.35092,11.74964-6.59212,16.55114-1.45713,5.63583-1.76687,10.8045-.94653,15.80353.34614,8.31467,3.55002,15.14389,9.52294,20.30209,4.3992,3.79393,8.89522,6.37677,13.74912,7.88822,4.96826,1.54586,10.1548,1.92352,15.85812,1.15569,5.66851-.76362,11.4211-2.6314,17.10037-5.55181,5.70046-2.93053,11.48246-7.00242,17.18528-12.10147,6.63735-6.10251,10.28476-12.59864,12.4495-16.95342,3.2071-6.45063,5.27426-11.6953,6.50349-16.50511,1.44222-5.64499,1.754-10.83705.95266-15.8737-.16824-4.09787-1.05746-7.88179-2.64234-11.2503-1.56649-3.32859-3.86366-6.35822-6.82624-9.00582-1.33319-1.19156-2.70312-2.27392-4.10469-3.24591ZM451.28208,87.68977c-.55042-.38172-1.08441-.80756-1.60308-1.27595-2.21161-1.99803-3.46049-4.73187-3.93073-8.60208-.54709-4.51064.39031-9.14834,2.95022-14.5959,1.6755-3.56585,4.02967-6.72367,7.1977-9.65139,11.30834-10.20771,20.09064-13.02702,26.84937-8.61863l-.02022.03087.02022-.03087c.14531.09369.28682.18946.42482.28516,3.0999,2.14979,4.74192,4.78177,5.01644,8.03307.21534,2.55814-.61835,5.66819-2.62585,9.78942-.40601.83246-.54138,1.81126-.39234,2.83136.75466,5.1295-1.13927,9.81266-5.62908,13.92064-5.90549,5.40152-11.53297,8.72762-16.72695,9.8853-2.54062.56654-4.93448.57567-7.11509.02858-1.55228-.39014-3.03139-1.06976-4.41542-2.02959ZM483.12777,45.29241c-.138-.09571-.27871-.19092-.42267-.28485-6.72682-4.38626-15.47891-1.56963-26.7585,8.61195-3.16011,2.9214-5.50953,6.07069-7.18086,9.62881-2.55345,5.43314-3.48899,10.05794-2.94245,14.55403.46682,3.8513,1.70816,6.57045,3.90572,8.55638,1.81798,1.64235,3.82924,2.74537,5.98677,3.28826,2.16883.54364,4.55084.53457,7.0809-.02867,5.18047-1.15524,10.79708-4.47589,16.69219-9.86924,4.47033-4.08842,6.35633-8.74991,5.60631-13.85374-.15229-1.03416-.01341-2.02825.39851-2.87433,2.00134-4.10895,2.83374-7.20691,2.61759-9.75025-.27172-3.22809-1.90356-5.84238-4.98351-7.97834Z"/>
    <path class="cls-3" d="M432.97949,108.4803c-1.24443-.86301-2.44881-1.82466-3.61817-2.8896-6.44523-5.86379-9.59681-12.82803-9.63837-21.29061-.46278-4.83493.17369-9.81718,1.94658-15.22694,1.54492-4.71137,3.94698-9.78995,7.56056-15.98349,4.51466-7.73645,8.77268-12.05362,11.58199-14.62761,5.79137-5.1109,11.62694-9.22596,17.34385-12.23132,5.71771-3.00481,11.47801-4.98419,17.12127-5.88346,5.61323-.89174,10.94801-.62392,15.85608.7975,4.87136,1.41132,9.47826,3.99781,13.68978,7.70293,3.15024,2.76711,5.55184,5.94595,7.13833,9.44672,1.59862,3.52926,2.4193,7.49719,2.43849,11.79294.83547,9.07577-1.98311,18.42083-9.4273,31.2469-2.13754,3.68017-5.66451,9.2037-11.5995,14.64264h0c-5.93979,5.28913-11.77068,9.47242-17.33112,12.43271-5.84108,3.10945-11.6207,4.99746-17.1763,5.6102-5.97491.65863-11.19989.35001-15.97458-.94347-3.60319-.97604-6.87791-2.49217-9.9116-4.59604ZM501.13456,26.02035c-3.1701-2.19847-6.524-3.81676-10.01425-4.8279-4.90138-1.41915-10.22916-1.68683-15.83539-.79497-5.6373.89749-11.39299,2.87535-17.10499,5.87703-5.71446,3.00352-11.54622,7.1165-17.33458,12.22476-5.86181,5.3692-9.41096,10.91278-11.57155,14.61596-3.61217,6.1898-6.01337,11.26542-7.55607,15.97361-1.77197,5.40332-2.40775,10.37777-1.94436,15.2084.04015,8.45097,3.18738,15.40275,9.62041,21.25689,4.01939,3.65339,8.43552,6.09931,13.51032,7.47452,4.7688,1.29176,9.98812,1.60001,15.95549.94205,5.54995-.61311,11.32306-2.49855,17.15898-5.60567,5.55663-2.95821,11.38452-7.13886,17.32129-12.42535h0c5.92953-5.43447,9.45397-10.95265,11.58906-14.63099,7.43914-12.8154,10.25649-22.15186,9.42114-31.21928-.01956-4.29011-.83767-8.25152-2.43452-11.77483-1.58312-3.4937-3.98025-6.66708-7.12545-9.42952-1.1878-1.04347-2.4071-1.99893-3.65552-2.86471ZM449.35791,87.76944c-.46826-.32474-.92378-.68317-1.36496-1.07419-2.33742-2.06874-3.50071-4.79993-3.66023-8.59523-.17338-4.11089,1.13321-8.4701,4.11255-13.72012,1.74399-3.0718,4.15332-6.0366,7.1616-8.81403,6.11052-5.50978,11.60034-9.05303,16.319-10.53208,4.59001-1.43832,8.62978-.97938,12.00968,1.36459.05345.03707.10689.07413.15979.11199,3.06996,2.19636,4.63446,5.03212,4.65026,8.42651.0127,2.59482-1.01977,5.67806-3.15694,9.42583-.59153,1.03694-1.13329,2.92709-1.18196,4.12668-.15295,3.66839-1.99785,6.92657-5.98057,10.56399-6.14087,5.60805-11.94348,9.13048-17.24659,10.46766-2.59011.65154-5.01241.74254-7.20088.27152-1.64318-.35276-3.19124-1.03177-4.62074-2.02312ZM483.90732,46.43907c-3.36634-2.33456-7.39187-2.7919-11.96726-1.35762-4.7108,1.47623-10.1949,5.01635-16.29996,10.52165-3.00416,2.7732-5.40992,5.73456-7.15115,8.80238-2.97484,5.24014-4.27941,9.59131-4.10663,13.69114.15922,3.7821,1.31705,6.50241,3.64306,8.56206,1.78567,1.58332,3.79171,2.61892,5.9641,3.08588,2.18043.46899,4.59572.37786,7.17853-.27166,5.29365-1.33547,11.08944-4.85318,17.22485-10.45675,3.97203-3.62712,5.81189-6.87462,5.96323-10.52876.05078-1.22648.58367-3.08852,1.18885-4.15025,2.13299-3.74004,3.16368-6.81389,3.15054-9.39955-.01582-3.37904-1.57277-6.20012-4.62893-8.38572-.05289-.03786-.10579-.07573-.15923-.11279Z"/>
    <path class="cls-3" d="M431.97337,108.5717c-1.34015-.9294-2.61562-1.97933-3.82321-3.14757-3.34387-3.23572-5.75024-6.52183-7.35599-10.04422-1.72299-3.7809-2.4989-7.7674-2.37095-12.18675-.10192-4.71817.84488-9.51592,2.89336-14.66722,1.8652-4.68772,4.66937-9.71072,8.57451-15.3571,3.1757-4.59285,6.68242-8.61709,10.72179-12.30383,5.86041-5.14571,11.74372-9.30919,17.48868-12.37543,5.74496-3.06624,11.51336-5.12034,17.14422-6.10735,5.61729-.98107,10.93939-.8142,15.81961.49577,4.86279,1.30614,9.42827,3.78712,13.5796,7.3678,3.33213,2.87789,5.83352,6.19563,7.43528,9.86175,1.6082,3.68239,2.35727,7.82512,2.22509,12.3136.09322,4.76648-.85035,9.59364-2.88717,14.75539-1.85441,4.70112-4.63573,9.7116-8.50351,15.31774-3.15622,4.57328-6.66595,8.60016-10.73162,12.31119l-.0008-.00055c-5.84607,5.18637-11.7348,9.36617-17.50358,12.42416-5.74458,3.04524-11.52626,5.06059-17.18355,5.9903-5.86311.96417-11.24836.84919-16.00503-.34083-3.44451-.86245-6.62984-2.30477-9.51675-4.30685ZM501.39624,27.75532c-3.24748-2.25213-6.71053-3.87997-10.33694-4.85321-4.87727-1.3091-10.19587-1.47591-15.80911-.49557-5.62816.98652-11.39386,3.04013-17.13636,6.10454-5.74361,3.066-11.62582,7.22787-17.48432,12.37254-4.03771,3.68435-7.54388,7.70779-10.71768,12.2996-3.90404,5.64479-6.70845,10.66643-8.57199,15.35176-2.04762,5.14836-2.99355,9.94316-2.89157,14.65783-.12789,4.41585.64673,8.39909,2.36924,12.17729,1.60446,3.51914,4.0082,6.80223,7.35023,10.0355,3.80423,3.68257,8.28982,6.18847,13.32768,7.44828,4.75452,1.18971,10.13547,1.30407,15.99533.34119,5.65458-.92922,11.43357-2.94408,17.17624-5.98828,5.76632-3.05616,11.65505-7.23595,17.49866-12.42048h0c4.06456-3.70944,7.57399-7.73416,10.7283-12.30641,3.86668-5.60454,6.64768-10.61288,8.50099-15.3124,2.03461-5.15856,2.97946-9.98247,2.88538-14.746.13188-4.48633-.61646-8.625-2.22338-12.30414-1.59968-3.66231-4.09923-6.97759-7.42792-9.85192-1.05105-.90847-2.12955-1.74501-3.23278-2.51011ZM447.70321,88.14705c-.49777-.3452-.96401-.73588-1.39767-1.17012-1.45589-1.46094-3.55928-4.95396-3.38917-8.58917.17761-3.79423,1.85365-7.8736,5.27561-12.84029,1.77029-2.56802,4.16693-5.25219,7.12421-7.97993,6.55455-5.90475,12.40858-9.69041,17.39967-11.25225,4.68016-1.4644,8.75549-1.02096,12.12582,1.31636.20342.14107.40455.28883.60286.44408,2.82075,2.2031,4.11937,5.07303,3.86012,8.53184-.22664,3.00297-1.71312,6.43765-4.54464,10.50013-.48621.69769-.88843,1.54341-1.2679,2.66126-.94161,2.78358-3.02067,5.65373-6.17866,8.53289-6.38165,5.81556-12.35965,9.53297-17.76782,11.04891-4.7073,1.31445-8.83747.88024-11.84244-1.20372ZM484.82729,47.65239c-3.36394-2.3329-7.43148-2.77566-12.10433-1.31327-4.98703,1.5611-10.83861,5.34492-17.39015,11.24704-2.95617,2.72614-5.3509,5.40927-7.12009,7.9757-3.41919,4.96269-5.09461,9.03777-5.27105,12.82691-.16999,3.62822,1.92899,7.11227,3.38144,8.56964.43231.43448.8983.82381,1.39448,1.16791,2.99939,2.08008,7.12152,2.51226,11.82095,1.20063,5.40492-1.51465,11.37966-5.23078,17.75751-11.04425,3.15522-2.87518,5.23206-5.74214,6.17251-8.52062.37954-1.12135.78341-1.96946,1.27073-2.66875,2.82954-4.05794,4.31461-7.48887,4.54064-10.48755.25881-3.44967-1.03724-6.31309-3.85136-8.51041-.19751-.15469-.39785-.3019-.60127-.44297Z"/>
    <path class="cls-1" d="M486.79272,49.63953c-7.11497-6.04173-17.70047-2.73163-31.76634,9.9295-3.14169,2.89311-5.50577,5.277-7.08854,7.14728-3.77115,4.45619-5.91686,8.44404-6.43712,11.96355-.52266,3.50992.51492,6.36786,3.11885,8.57901,3.45968,2.93782,7.88909,3.57532,13.2906,1.92208,5.39541-1.65843,11.49817-5.53059,18.28996-11.63207,3.14169-2.89311,5.5355-5.31212,7.18143-7.25704,3.77486-4.46059,5.93543-8.466,6.48171-12.01623.5561-3.54943-.46662-6.42494-3.07055-8.63608ZM504.46817,31.64557c7.05995,5.99501,10.311,13.69784,9.74329,23.10768-.55787,9.41064-5.01228,19.04372-13.35339,28.90003-2.49304,2.94592-5.78131,6.27291-9.8648,9.98098-11.91356,10.52749-23.52403,16.89449-34.86989,18.78562-11.35512,1.89267-21.12058-.31639-29.18299-7.16265-7.10885-6.03654-10.38063-13.76452-9.81664-23.16997.55104-9.30326,5.02618-18.91118,13.42674-28.83774,2.49676-2.95031,5.78503-6.2773,9.8648-9.98098,11.90913-10.41053,23.50797-16.69316,34.80025-18.85229,11.29468-2.14955,21.04351.2585,29.25262,7.22932Z"/>
  </g>
  <g>
    <g>
      <path class="cls-2" d="M245.87033,150.55733h26.48364c5.62639,0,10.21021,1.6454,13.73981,4.93911,3.43641,3.2908,5.15461,7.56301,5.15461,12.81081s-1.74733,9.5171-5.22451,12.81081c-3.483,3.34031-8.13672,5.009-13.96114,5.009h-10.15779v15.38812h-16.03463v-50.95786ZM261.90496,173.95986h7.0825c4.15281,0,6.22631-1.81139,6.22631-5.44001,0-3.5296-2.07349-5.2944-6.22631-5.2944h-7.0825v10.73441Z"/>
      <path class="cls-2" d="M341.70535,195.85968c-4.82262,4.86922-11.14212,7.30091-18.97014,7.30091-7.8222,0-14.12422-2.4317-18.89442-7.30091-4.8168-4.9129-7.22811-11.45081-7.22811-19.60791,0-8.16001,2.41131-14.69501,7.22811-19.61082,4.7702-4.8663,11.07222-7.30091,18.89442-7.30091,7.82802,0,14.14752,2.43461,18.97014,7.30091,4.7702,4.81971,7.15239,11.35471,7.15239,19.61082,0,8.2532-2.38219,14.79112-7.15239,19.60791ZM315.2916,186.77067c1.7182,2.43461,4.19941,3.65191,7.44361,3.65191s5.7487-1.2173,7.51933-3.65191c1.71238-2.3851,2.57439-5.9147,2.57439-10.59171,0-4.58091-.87366-8.07556-2.61516-10.48396-1.7415-2.4084-4.23435-3.61405-7.47856-3.61405s-5.73705,1.20566-7.47856,3.61405c-1.7415,2.4084-2.60934,5.90305-2.60934,10.48396,0,4.72361.87949,8.25612,2.64429,10.59171Z"/>
      <path class="cls-2" d="M387.9396,177.03806v-26.48073h15.74341v50.95786h-16.24431l-15.31823-26.19533v26.19533h-15.74341v-50.95786h15.8832l15.67934,26.48073Z"/>
      <path class="cls-2" d="M440.03904,173.45896h21.69014v28.05623h-10.66451l-.7164-4.79641c-1.43281,1.8609-3.47135,3.40146-6.12147,4.61877-2.65011,1.21439-5.66716,1.82304-9.05115,1.82304-6.91941,0-12.62152-2.45499-17.10632-7.3708-4.58382-4.96241-6.87282-11.47411-6.87282-19.53802,0-8.20661,2.36471-14.74452,7.08832-19.61082,4.72361-4.8663,10.8276-7.30091,18.3178-7.30091,5.87102,0,10.92661,1.4794,15.17844,4.43821,4.19358,3.0054,6.93689,7.08541,8.22991,12.23711l-15.38812,1.07461c-1.43281-3.34031-4.05962-5.009-7.87462-5.009-3.052,0-5.40506,1.19109-7.04755,3.57619-1.64831,2.38801-2.46955,5.87102-2.46955,10.45192,0,4.96241.86784,8.58811,2.60934,10.87711,1.7415,2.29191,4.42656,3.43641,8.05517,3.43641,4.62459,0,7.5368-1.95701,8.73081-5.87102h-6.58742v-11.09261Z"/>
    </g>
    <g>
      <path class="cls-3" d="M530.43405,150.55733v13.23891h-25.33623v7.23102h20.96791v12.5225h-20.96791v17.96543h-16.02881v-50.95786h41.36504Z"/>
      <path class="cls-3" d="M551.11657,201.51519h-16.02881v-50.95786h16.02881v50.95786Z"/>
      <path class="cls-3" d="M575.7364,182.11987v5.79821h28.05623v13.59711h-44.08504v-50.95786h43.36864v13.23891h-27.33983v5.79821h23.40252v12.52542h-23.40252Z"/>
      <path class="cls-3" d="M626.97965,150.55733v37.21514h22.76184v13.74272h-38.79064v-50.95786h16.02881Z"/>
      <path class="cls-3" d="M654.75049,150.55733h23.97332c7.72901,0,13.73981,2.2191,18.03823,6.6544,4.2926,4.43821,6.44181,10.71402,6.44181,18.82453,0,7.77851-1.98613,13.98152-5.94091,18.60902-4.01303,4.58091-9.94811,6.8699-17.82273,6.8699h-24.68972v-50.95786ZM670.77929,188.13067h5.37012c3.43058,0,6.12729-1.07169,8.0843-3.2209,1.95701-2.1463,2.93551-5.1051,2.93551-8.8735s-.9785-6.72721-2.93551-8.8735c-1.95701-2.14921-4.65371-3.2209-8.0843-3.2209h-5.37012v24.18882Z"/>
    </g>
    <g>
      <path class="cls-3" d="M245.87033,150.55733h26.48364c5.62639,0,10.21021,1.6454,13.73981,4.93911,3.43641,3.2908,5.15461,7.56301,5.15461,12.81081s-1.74733,9.5171-5.22451,12.81081c-3.483,3.34031-8.13672,5.009-13.96114,5.009h-10.15779v15.38812h-16.03463v-50.95786ZM261.90496,173.95986h7.0825c4.15281,0,6.22631-1.81139,6.22631-5.44001,0-3.5296-2.07349-5.2944-6.22631-5.2944h-7.0825v10.73441Z"/>
      <path class="cls-3" d="M341.70535,195.85968c-4.82262,4.86922-11.14212,7.30091-18.97014,7.30091-7.8222,0-14.12422-2.4317-18.89442-7.30091-4.8168-4.9129-7.22811-11.45081-7.22811-19.60791,0-8.16001,2.41131-14.69501,7.22811-19.61082,4.7702-4.8663,11.07222-7.30091,18.89442-7.30091,7.82802,0,14.14752,2.43461,18.97014,7.30091,4.7702,4.81971,7.15239,11.35471,7.15239,19.61082,0,8.2532-2.38219,14.79112-7.15239,19.60791ZM315.2916,186.77067c1.7182,2.43461,4.19941,3.65191,7.44361,3.65191s5.7487-1.2173,7.51933-3.65191c1.71238-2.3851,2.57439-5.9147,2.57439-10.59171,0-4.58091-.87366-8.07556-2.61516-10.48396-1.7415-2.4084-4.23435-3.61405-7.47856-3.61405s-5.73705,1.20566-7.47856,3.61405c-1.7415,2.4084-2.60934,5.90305-2.60934,10.48396,0,4.72361.87949,8.25612,2.64429,10.59171Z"/>
      <path class="cls-3" d="M387.9396,177.03806v-26.48073h15.74341v50.95786h-16.24431l-15.31823-26.19533v26.19533h-15.74341v-50.95786h15.8832l15.67934,26.48073Z"/>
      <path class="cls-3" d="M440.03904,173.45896h21.69014v28.05623h-10.66451l-.7164-4.79641c-1.43281,1.8609-3.47135,3.40146-6.12147,4.61877-2.65011,1.21439-5.66716,1.82304-9.05115,1.82304-6.91941,0-12.62152-2.45499-17.10632-7.3708-4.58382-4.96241-6.87282-11.47411-6.87282-19.53802,0-8.20661,2.36471-14.74452,7.08832-19.61082,4.72361-4.8663,10.8276-7.30091,18.3178-7.30091,5.87102,0,10.92661,1.4794,15.17844,4.43821,4.19358,3.0054,6.93689,7.08541,8.22991,12.23711l-15.38812,1.07461c-1.43281-3.34031-4.05962-5.009-7.87462-5.009-3.052,0-5.40506,1.19109-7.04755,3.57619-1.64831,2.38801-2.46955,5.87102-2.46955,10.45192,0,4.96241.86784,8.58811,2.60934,10.87711,1.7415,2.29191,4.42656,3.43641,8.05517,3.43641,4.62459,0,7.5368-1.95701,8.73081-5.87102h-6.58742v-11.09261Z"/>
    </g>
  </g>
</svg>